<?xml version="1.0" encoding="UTF-8" standalone="no"?>
<!DOCTYPE svg PUBLIC "-//W3C//DTD SVG 1.1//EN" "http://www.w3.org/Graphics/SVG/1.1/DTD/svg11.dtd">
<!-- Created with Vectornator (http://vectornator.io/) -->
<svg height="100%" stroke-miterlimit="10" style="fill-rule:nonzero;clip-rule:evenodd;stroke-linecap:round;stroke-linejoin:round;" version="1.1" viewBox="0 0 100 100" width="100%" xml:space="preserve" xmlns="http://www.w3.org/2000/svg" xmlns:vectornator="http://vectornator.io" xmlns:xlink="http://www.w3.org/1999/xlink">
<defs/>
<g id="Layer-1" vectornator:layerName="Layer 1">
<g opacity="1">
<path d="M58.5333 46.0383C58.5333 46.0383 70.09 45.6655 74.5635 40.4463C79.4099 34.8544 78.2915 51.6303 68.9716 51.6303C61.8884 51.2575 59.2788 49.0207 58.5333 46.0383Z" fill="#000000" fill-rule="nonzero" opacity="1" stroke="none"/>
<path d="M49.5861 0.55703C29.0823 0.55703 12.3064 19.1969 12.3064 39.7008C12.3064 76.9805 26.0999 92.2652 49.5861 97.4843C69.7172 93.7564 86.8659 79.2173 86.8659 39.7008C86.8659 19.1969 70.09 0.55703 49.5861 0.55703ZM46.2309 47.9023C46.2309 53.4943 44.7398 59.8318 44.7398 59.8318C44.7398 59.8318 41.3846 56.8494 40.2662 55.3582C38.775 53.4943 35.4198 54.9854 33.5558 57.595C31.6918 60.2046 31.319 60.9502 29.8279 64.6782C29.0823 66.915 30.2007 71.7613 31.319 75.4893C32.0646 78.4717 43.2486 87.046 43.2486 87.046C43.2486 87.046 29.4551 85.9276 22.7447 71.3885C17.8983 61.323 17.5255 54.6126 17.5255 43.4287C17.5255 32.2448 20.1351 12.8593 41.0118 5.0306C36.5382 8.01298 31.319 13.6049 30.2007 22.5521C28.3367 38.2096 36.5382 40.8191 38.775 40.8191C41.0118 40.8191 43.6214 36.7184 43.2486 30.008C43.2486 30.008 46.2309 32.6176 46.6037 43.4287C46.6037 45.6655 43.2486 45.6655 43.2486 45.6655C43.2486 45.6655 46.2309 46.0383 46.2309 47.9023ZM56.2965 87.4188C56.2965 87.4188 67.4804 78.8445 68.226 75.8621C69.3444 72.1341 70.4628 67.2878 69.7172 65.051C68.226 61.323 67.8532 60.5774 65.9892 57.9678C64.1252 55.3582 61.1428 53.867 59.2788 55.731C57.7877 57.2222 54.8053 60.2046 54.8053 60.2046C54.8053 60.2046 53.3141 53.4942 53.3141 48.2751C53.3141 46.4111 56.6693 46.0383 56.6693 46.0383C56.6693 46.0383 53.3141 46.4111 53.3141 43.8015C53.6869 32.9904 56.6693 30.3808 56.6693 30.3808C56.2965 37.0912 58.9061 41.1919 61.1428 41.1919C63.3796 41.1919 71.5812 38.2096 69.7172 22.9249C68.5988 13.9777 63.0068 8.38577 58.9061 5.0306C79.7827 12.8593 82.3923 32.2448 82.3923 43.4287C82.3923 54.6126 82.0195 61.323 77.1731 71.3885C69.7172 85.9276 56.2965 87.4188 56.2965 87.4188Z" fill="#000000" fill-rule="nonzero" opacity="1" stroke="none"/>
<path d="M40.639 46.0383C40.639 46.0383 29.0823 45.6655 24.6087 40.4463C19.7623 34.8544 20.8807 51.6303 30.2007 51.6303C37.2838 51.2575 39.8934 49.0207 40.639 46.0383Z" fill="#000000" fill-rule="nonzero" opacity="1" stroke="none"/>
</g>
</g>
</svg>
