<?xml version="1.0" encoding="UTF-8" standalone="no"?>
<!DOCTYPE svg PUBLIC "-//W3C//DTD SVG 1.1//EN" "http://www.w3.org/Graphics/SVG/1.1/DTD/svg11.dtd">
<!-- Created with Vectornator (http://vectornator.io/) -->
<svg height="100%" stroke-miterlimit="10" style="fill-rule:nonzero;clip-rule:evenodd;stroke-linecap:round;stroke-linejoin:round;" version="1.1" viewBox="0 0 100 100" width="100%" xml:space="preserve" xmlns="http://www.w3.org/2000/svg" xmlns:vectornator="http://vectornator.io" xmlns:xlink="http://www.w3.org/1999/xlink">
<defs/>
<g id="Layer-1" vectornator:layerName="Layer 1">
<g opacity="1">
<path d="M95.2727 56.3399C91.61 53.776 83.552 47.183 75.8602 43.154C68.1684 39.125 58.279 37.2936 53.8838 35.8285C50.5873 34.7297 50.5873 38.0262 49.1222 40.2238C29.3434 80.514 46.5583 94.0661 49.8547 95.8975C53.1512 97.3626 74.7614 102.49 94.5402 62.5665C96.0053 60.7352 98.2029 58.1712 95.2727 56.3399ZM53.8838 85.6418C46.192 81.9791 47.2908 68.7932 47.2908 68.7932C47.2908 68.7932 51.3198 76.8512 56.8139 79.4152C62.3081 81.9791 71.0986 80.1477 71.0986 80.1477C71.0986 80.1477 61.9418 89.3046 53.8838 85.6418ZM73.2963 71.3571C69.2673 69.5257 67.8022 65.1305 67.8022 65.1305C67.8022 65.1305 72.5637 63.6654 76.2265 65.4967C80.2555 67.3281 81.7206 72.0897 81.7206 72.0897C81.7206 72.0897 76.959 73.5548 73.2963 71.3571ZM54.6163 62.2003C50.9536 60.3689 49.1222 55.9736 49.1222 55.9736C49.1222 55.9736 53.5175 54.5085 57.5465 56.3399C61.2092 58.1712 63.0406 62.5665 63.0406 62.5665C63.0406 62.5665 58.6453 64.3979 54.6163 62.2003Z" fill="#000000" fill-rule="nonzero" opacity="1" stroke="none"/>
<path d="M39.9653 47.5493C39.2328 47.5493 38.8665 47.9156 38.134 47.9156C32.6398 49.7469 27.512 56.7061 27.512 56.7061C27.512 56.7061 28.2446 45.3516 36.3026 42.4215C38.134 41.6889 40.3316 41.6889 42.163 42.0552C42.8955 40.5901 43.6281 39.125 44.3606 37.6599C44.3606 37.2936 44.7269 37.2936 44.7269 36.9273C45.4594 34.7297 47.2908 29.9681 52.7849 29.9681C53.5175 29.9681 54.6163 29.9681 55.3488 30.3344C56.0814 31.067 56.8139 31.067 57.5465 31.7995C57.1802 25.2066 55.7151 17.5148 52.4187 7.99168C51.6861 5.79403 51.6861 2.49756 48.3896 2.86384C43.9943 3.59639 32.6398 4.69521 24.2155 7.25913C15.7912 10.5556 8.09947 16.0497 4.07046 18.2474C1.14026 19.7125 2.97164 22.2764 4.07046 24.8403C13.5936 53.0434 26.7795 61.4677 35.57 63.6654C36.3026 58.9038 37.7677 53.4097 39.9653 47.5493ZM43.6281 22.2764C48.0234 22.2764 51.3198 25.5728 51.3198 25.5728C51.3198 25.5728 48.0234 29.2356 43.6281 29.2356C39.2328 29.2356 35.9363 25.9391 35.9363 25.9391C35.9363 25.9391 39.5991 22.6426 43.6281 22.2764ZM25.3144 36.9273C22.0179 39.4913 16.8901 38.7587 16.8901 38.7587C16.8901 38.7587 17.6226 33.6309 20.9191 31.067C24.2155 28.503 29.3434 29.2356 29.3434 29.2356C29.3434 29.2356 28.6108 34.3634 25.3144 36.9273Z" fill="#000000" fill-rule="nonzero" opacity="1" stroke="none"/>
</g>
</g>
</svg>
