<?xml version="1.0" encoding="UTF-8" standalone="no"?>
<!DOCTYPE svg PUBLIC "-//W3C//DTD SVG 1.1//EN" "http://www.w3.org/Graphics/SVG/1.1/DTD/svg11.dtd">
<!-- Created with Vectornator (http://vectornator.io/) -->
<svg height="100%" stroke-miterlimit="10" style="fill-rule:nonzero;clip-rule:evenodd;stroke-linecap:round;stroke-linejoin:round;" version="1.1" viewBox="0 0 100 100" width="100%" xml:space="preserve" xmlns="http://www.w3.org/2000/svg" xmlns:vectornator="http://vectornator.io" xmlns:xlink="http://www.w3.org/1999/xlink">
<defs/>
<g id="Layer-1" vectornator:layerName="Layer 1">
<g opacity="1">
<path d="M50.502 6.80778C48.5935 5.15371 46.3032 4.26305 43.7797 4.34788C41.9772 4.4115 39.6657 4.83562 38.6902 6.5109C38.5206 9.01322 38.7751 12.0033 39.1144 14.5904C39.6021 18.2379 40.3443 21.9489 41.8712 25.3207C42.9315 27.6322 44.7976 30.5586 47.4908 30.4738C52.4106 30.3041 53.9586 25.1723 54.3615 21.0795C54.8493 16.1173 54.5524 10.328 50.502 6.80778ZM92.7446 78.1663C92.278 72.4618 87.1886 68.0934 82.7565 65.1245C80.2542 63.428 77.561 61.9224 74.8254 60.65C72.8957 59.7594 70.8811 59.0808 69.0786 58.0841C68.3788 59.3989 67.5305 60.6288 66.5126 61.6891C64.6465 63.6401 62.229 65.4214 59.4298 65.6335C56.8851 65.8243 54.5524 64.8276 52.8771 62.9403C52.0077 61.9648 51.3291 60.8621 50.7989 59.6958C50.3748 61.5407 49.675 63.3008 48.5511 64.9761C46.9182 67.4148 44.8824 69.705 42.1893 70.9562C36.4848 73.607 31.2257 69.4506 28.3629 64.7004C28.1084 64.2763 27.8539 63.831 27.5783 63.4068C27.4298 63.428 27.2814 63.428 27.0905 63.4068C25.7757 63.1948 23.9096 64.6792 22.8493 65.3578C21.6194 66.1424 20.4106 66.9482 19.2443 67.8389C16.848 69.6838 14.4941 71.8469 13.0309 74.54C10.3165 79.5235 10.9951 85.8005 14.9606 89.9569C19.3715 94.601 25.7333 95.3008 31.7771 94.1132C36.0395 93.2862 40.1959 91.6533 44.0554 89.5327C43.7585 88.5148 45.1369 87.3273 46.2608 88.1755C46.282 88.1967 46.3032 88.1967 46.3244 88.218C47.7453 87.3485 49.1024 86.4154 50.4172 85.44C56.3125 81.0715 61.5928 75.982 67.3609 71.4651C68.5484 70.5321 69.842 72.1437 69.1846 73.2677L69.1846 73.2677C70.4358 75.3247 72.005 77.318 73.956 78.7388C75.7373 80.0324 78.4729 80.9655 80.2542 79.0781C81.6962 77.5301 80.4662 75.4731 79.3423 74.1159C77.8579 72.3558 75.8857 71.0622 73.7651 70.214C67.6366 67.7965 62.1866 70.8714 56.7366 73.4797C51.6684 75.9184 46.176 78.4844 40.4504 78.548C40.3867 78.7176 40.3019 78.9085 40.2171 79.0781C38.2025 82.8952 32.5617 83.9131 28.7446 84.5917C26.6452 84.9522 24.3337 85.3975 22.2131 84.9522C20.347 84.5493 18.184 83.3193 18.1628 81.1139C18.1416 78.6752 20.0077 76.7243 21.9374 75.4731C24.5882 73.7766 27.3874 73.7342 30.3775 73.7342C30.4199 73.1616 30.8016 72.6527 31.5438 72.6527C32.0527 72.6527 32.5405 72.6527 33.0494 72.6739C35.0216 72.7375 37.2906 72.8011 39.0295 73.9038C39.8354 74.4128 40.3443 75.1126 40.5776 75.8972C42.0196 75.8548 43.4616 75.6639 44.8612 75.3034C48.0421 74.4764 51.0958 73.2252 54.0859 71.8256C56.9699 70.4897 59.7903 68.8144 62.8016 67.7753C68.7393 65.7395 75.4616 66.6089 80.1269 71.0834C81.7598 72.6315 83.4987 74.7733 83.6047 77.1484C83.7108 79.6507 81.9719 81.7925 79.5544 82.4923C74.2741 84.0191 69.6935 79.0781 67.1488 75.0066C62.9288 78.4207 58.9209 82.1106 54.6796 85.4824C52.7499 87.0092 50.7565 88.4512 48.6783 89.7872C56.567 94.3677 66.6187 94.3253 75.3768 92.6924C79.5332 91.9078 83.8592 90.6354 87.3582 88.1543C90.5603 85.8853 93.0839 82.259 92.7446 78.1663Z" fill="#fcbf95" fill-rule="nonzero" opacity="1" stroke="none"/>
<path d="M67.8062 36.4963C65.0706 32.1066 60.3417 29.7316 55.231 29.5407C54.9553 29.5195 54.7008 29.4347 54.51 29.3074C52.4318 32.1703 48.7631 33.9304 45.2429 32.7216C43.7373 32.1915 42.5073 31.1736 41.5319 29.9012C41.3834 30.3041 41.0229 30.601 40.4504 30.601C36.0183 30.6858 31.565 33.8668 28.4053 36.7296C26.9421 38.0656 25.3092 39.5288 24.5034 41.3737C23.5915 43.4731 23.5279 45.8058 23.9096 48.0324C24.7366 52.8886 27.1541 57.3631 29.614 61.5619C31.671 65.0821 35.1912 70.5321 40.1111 68.8992C42.8891 67.9873 45.1157 65.6123 46.5577 63.1312C47.3423 61.7952 48.0633 60.3744 48.3178 58.8475C48.6147 57.1722 48.6783 55.497 48.6571 53.8005C48.6571 51.9343 48.5935 50.0894 48.6995 48.2233C48.6995 47.99 48.7207 47.7779 48.7207 47.5447C48.6783 46.7601 48.6147 45.9966 48.5511 45.2332C48.5087 45.0636 48.4663 44.8727 48.4026 44.7031C48.339 44.5546 48.1906 44.0033 47.9997 43.9184C48.0209 43.9608 47.6604 44.0669 47.618 44.1093C47.2999 44.3426 47.0242 44.597 46.7486 44.8939C46.2608 45.4241 46.1124 46.1663 46.0063 46.8661C45.6034 49.9198 46.7698 56.2392 42.571 57.1722C38.1177 58.1477 35.8062 51.5738 34.7459 48.4353C34.1946 46.8237 36.6969 45.933 37.2482 47.5659C37.4179 48.0748 37.5875 48.5838 37.7784 49.0715C38.4358 50.768 39.3476 53.44 41.0441 54.373C42.7194 55.2637 42.9739 53.1219 43.0799 51.9131C43.2496 49.8561 43.0375 47.7143 43.504 45.6997C43.9918 43.6428 45.6246 41.4797 47.8725 41.2677C48.8268 41.1829 49.5266 41.607 50.0567 42.2644C52.2834 41.9887 54.2131 42.8157 55.231 44.9363C56.058 46.654 56.0368 48.7746 57.0335 50.3863C57.5 51.1497 58.1786 51.5526 59.1117 51.4678C60.0024 51.3618 60.4265 50.6408 60.7234 49.8561C61.508 47.7992 61.3596 45.4877 62.1866 43.4519C62.8228 41.8614 65.1979 43.049 64.5617 44.6394C63.7346 46.6964 63.9891 49.326 62.9288 51.4466C61.7837 53.7581 58.8996 55.0304 56.5246 53.5672C54.51 52.316 54.0222 50.1106 53.4709 47.99C53.2588 47.1842 53.0468 46.039 52.4318 45.4453C52.0501 45.0848 51.626 44.9363 51.1594 44.8939C51.1594 44.9575 51.1806 45.0212 51.1806 45.0636C51.2443 45.4241 51.2867 45.7846 51.3291 46.0815C51.3503 46.4208 51.3715 46.7813 51.3715 47.1206C51.626 50.4923 51.6896 54.0337 52.7499 57.2571C53.5557 59.6958 55.0613 62.5162 57.8818 62.9191C60.5749 63.3008 63.056 61.5831 64.7525 59.6321C66.7459 57.3207 67.9546 54.5003 68.7605 51.5738C70.1813 46.5692 70.7114 41.1616 67.8062 36.4963ZM36.1455 75.6427C34.9792 75.4095 33.7916 75.3671 32.6041 75.3459C32.5617 75.9184 32.18 76.4274 31.4378 76.4274C28.9142 76.4062 26.0302 76.0457 23.8036 77.4877C22.8917 78.0814 20.3682 79.7143 20.8771 81.1563C21.3861 82.6408 23.8672 82.5771 25.0971 82.4711C26.624 82.3227 28.1296 82.0894 29.614 81.7925C31.3954 81.432 33.2191 80.9443 34.8944 80.2021C35.9971 79.7143 37.5875 78.9721 37.9904 77.7209C38.4358 76.3001 37.4603 75.8972 36.1455 75.6427Z" fill="#fcbf95" fill-rule="nonzero" opacity="1" stroke="none"/>
<path d="M87.5491 65.4214C84.8135 63.1312 81.6962 61.2438 78.5577 59.5473C76.0342 58.1901 73.2562 57.2995 70.7326 55.9847C70.6266 55.8151 70.457 55.6666 70.2449 55.5606C70.4782 54.988 70.669 54.4154 70.8599 53.8429C71.7505 51.0861 72.4503 48.2657 72.5988 45.3604C72.8533 40.3558 71.0083 35.3936 67.4881 31.8522C64.4981 28.8409 60.4053 27.3565 56.2489 26.9748C56.1217 26.9324 55.9732 26.9112 55.8248 26.8899C56.9699 24.0271 57.1395 20.719 57.182 17.7077C57.2456 13.7846 56.3761 9.84025 53.9586 6.65934C51.5836 3.52084 48.0209 1.80315 44.1402 1.69712C41.5531 1.6335 38.9023 2.37571 37.227 4.17823C36.7181 4.22064 36.2516 4.53873 36.1667 5.21733C36.1455 5.42939 36.1243 5.64145 36.1031 5.85351C35.9971 6.10798 35.891 6.38366 35.785 6.65934C35.6366 7.12588 35.7638 7.50759 35.9971 7.76206C35.9547 9.96749 36.1455 12.1729 36.4212 14.3359C36.8665 18.153 37.6512 22.0338 39.1144 25.5964C39.4325 26.381 39.8142 27.1868 40.2383 27.9715C40.2383 27.9715 40.2383 27.9715 40.2171 27.9715C34.9368 28.0563 29.8897 31.831 26.1362 35.2027C24.2913 36.8568 22.5948 38.7442 21.7254 41.098C20.7711 43.7276 20.8559 46.5692 21.4073 49.2624C22.2343 53.3339 24.0156 57.1722 26.0514 60.8197C25.2456 60.9681 24.5034 61.3286 23.74 61.7528C22.4252 62.4526 21.174 63.2372 19.9441 64.0642C17.5902 65.6547 15.3423 67.436 13.4126 69.5354C9.44706 73.819 7.75057 79.481 9.29861 85.1855C10.783 90.5718 15.1939 94.7282 20.4318 96.4247C26.6876 98.4605 33.9189 96.764 39.8142 94.3889C41.9984 93.4983 44.119 92.4592 46.1548 91.2928C54.3403 96.5519 64.5829 96.9973 74.0196 95.5765C81.9719 94.3677 91.9811 91.208 94.7167 82.6832C96.9646 75.77 92.6809 69.705 87.5491 65.4214ZM39.1144 14.5904C38.7751 11.9821 38.5206 8.99201 38.6902 6.5109C39.6657 4.83562 41.956 4.4115 43.7797 4.34788C46.3032 4.26305 48.5935 5.15371 50.502 6.80779C54.5524 10.328 54.8493 16.1173 54.3828 21.0795C54.001 25.1723 52.4318 30.3041 47.512 30.4738C44.8188 30.5586 42.9315 27.6322 41.8924 25.3207C40.3443 21.9701 39.6021 18.2379 39.1144 14.5904ZM23.8884 48.0748C23.5067 45.8482 23.5703 43.5155 24.4822 41.4161C25.288 39.5712 26.9209 38.0868 28.3841 36.772C31.5438 33.9092 35.9971 30.7283 40.4291 30.6434C41.0017 30.6434 41.3622 30.3253 41.5107 29.9436C42.5073 31.1948 43.7161 32.2339 45.2217 32.764C48.7419 33.9728 52.3894 32.2127 54.4888 29.3499C54.6796 29.4771 54.9341 29.5619 55.2098 29.5831C60.3205 29.7952 65.0494 32.1491 67.785 36.5387C70.6902 41.2041 70.1389 46.6116 68.7605 51.6587C67.9546 54.5851 66.7459 57.4055 64.7525 59.717C63.0772 61.6679 60.5749 63.3856 57.8818 63.0039C55.0613 62.601 53.5557 59.7806 52.7499 57.3419C51.6684 54.0974 51.6048 50.5772 51.3715 47.2054C51.3715 46.8661 51.3503 46.5056 51.3291 46.1663C51.3079 45.8482 51.2655 45.5089 51.1806 45.1484C51.1806 45.0848 51.1594 45.0212 51.1594 44.9787C51.626 44.9999 52.0501 45.1484 52.4318 45.5301C53.0468 46.1239 53.2588 47.2902 53.4709 48.0748C54.0435 50.2166 54.5312 52.4221 56.5246 53.652C58.8996 55.1153 61.7837 53.8641 62.9288 51.5314C63.9891 49.4108 63.7346 46.8025 64.5617 44.7243C65.1979 43.155 62.8228 41.9675 62.1866 43.5367C61.3596 45.5937 61.508 47.884 60.7234 49.941C60.4265 50.7256 60.0024 51.4466 59.1117 51.5526C58.1786 51.6587 57.5 51.2345 57.0335 50.4711C56.0368 48.8595 56.058 46.7388 55.231 45.0212C54.1919 42.9005 52.2833 42.0735 50.0567 42.3492C49.5266 41.6918 48.8268 41.2677 47.8725 41.3525C45.6246 41.5646 43.9918 43.7276 43.504 45.7846C43.0163 47.7992 43.2496 49.941 43.0799 51.998C42.9739 53.2067 42.7194 55.3485 41.0441 54.4579C39.3264 53.5248 38.4146 50.8528 37.7784 49.1563C37.5875 48.6474 37.4179 48.1597 37.2482 47.6507C36.6969 46.039 34.2158 46.9085 34.7459 48.5202C35.8062 51.6799 38.1177 58.2538 42.571 57.2571C46.7698 56.324 45.5822 50.0046 46.0063 46.9509C46.0912 46.2511 46.2396 45.5089 46.7486 44.9787C47.0242 44.6819 47.2999 44.4274 47.618 44.1941C47.6604 44.1517 48.0421 44.0457 47.9997 44.0033C48.2118 44.0881 48.3602 44.6394 48.4026 44.7879C48.4663 44.9575 48.5087 45.1484 48.5511 45.318C48.6147 46.0603 48.6783 46.8449 48.7207 47.6295C48.7207 47.8628 48.6995 48.096 48.6995 48.3081C48.6147 50.1742 48.6571 52.0192 48.6571 53.8853C48.6571 55.5818 48.5935 57.2571 48.3178 58.9323C48.0421 60.4804 47.3423 61.88 46.5577 63.216C45.0945 65.6971 42.8891 68.051 40.1111 68.984C35.1912 70.6169 31.671 65.1457 29.614 61.6467C27.1541 57.4055 24.7154 52.9098 23.8884 48.0748ZM87.3794 88.1543C83.9016 90.6567 79.5756 91.929 75.4192 92.7136C66.6611 94.3465 56.6094 94.3889 48.7207 89.8084C50.7989 88.4936 52.7923 87.0304 54.722 85.5036C58.9845 82.1318 62.9712 78.4419 67.1912 75.0278C69.736 79.0993 74.3165 84.0404 79.5968 82.5135C81.9931 81.8137 83.7532 79.6931 83.6472 77.1696C83.5411 74.8157 81.781 72.6739 80.1694 71.1046C75.504 66.6302 68.7817 65.7819 62.844 67.7965C59.8327 68.8356 57.0123 70.5109 54.1283 71.8469C51.1594 73.2465 48.1058 74.4976 44.9036 75.3247C43.504 75.6852 42.062 75.876 40.62 75.9184C40.3867 75.1338 39.8566 74.4128 39.072 73.9251C37.3331 72.8435 35.0852 72.7587 33.0918 72.6951C32.5829 72.6739 32.0952 72.6739 31.5862 72.6739C30.844 72.6739 30.4623 73.1828 30.4199 73.7554C27.4298 73.7342 24.6306 73.7766 21.9799 75.4943C20.0289 76.7455 18.184 78.6964 18.2052 81.1351C18.2264 83.3193 20.3894 84.5705 22.2555 84.9734C24.3761 85.44 26.6664 84.9946 28.787 84.6129C32.6253 83.9343 38.2661 82.9164 40.2595 79.0993C40.3443 78.9297 40.4291 78.7388 40.4928 78.5692C46.2184 78.4844 51.7108 75.9396 56.779 73.5009C62.229 70.8926 67.679 67.8177 73.8075 70.2352C75.9281 71.0834 77.9215 72.3558 79.3847 74.1371C80.5299 75.4943 81.7598 77.5513 80.2966 79.0993C78.5153 81.0079 75.7797 80.0536 73.9984 78.76C72.0262 77.3392 70.4782 75.3459 69.227 73.2889L69.227 73.2889C69.8844 72.1862 68.5908 70.5745 67.4033 71.4864C61.6352 76.0032 56.3337 81.0927 50.4596 85.4612C49.1448 86.4366 47.7665 87.3697 46.3669 88.2392C46.3456 88.218 46.3244 88.218 46.3032 88.1967C45.2005 87.3485 43.8221 88.536 44.0978 89.5539C40.2383 91.6745 36.1031 93.3074 31.8195 94.1345C25.7757 95.322 19.4139 94.6222 15.003 89.9781C11.0375 85.8217 10.3589 79.5447 13.0733 74.5612C14.5365 71.8681 16.8904 69.705 19.2867 67.8601C20.453 66.9695 21.6618 66.1636 22.8917 65.379C23.952 64.7004 25.8182 63.216 27.1329 63.428C27.3026 63.4492 27.4722 63.4492 27.6207 63.428C27.8751 63.8734 28.1296 64.2975 28.4053 64.7216C31.2681 69.4506 36.5272 73.6282 42.2317 70.9774C44.9248 69.7262 46.9606 67.436 48.5935 64.9973C49.7174 63.322 50.4172 61.5619 50.8413 59.717C51.3715 60.8833 52.0289 61.986 52.9195 62.9615C54.616 64.8488 56.9487 65.8455 59.4722 65.6547C62.2714 65.4426 64.6889 63.6825 66.555 61.7103C67.5729 60.6288 68.4212 59.3989 69.121 58.1053C70.9235 59.0808 72.9169 59.7806 74.8678 60.6712C77.6246 61.9436 80.2966 63.4492 82.7989 65.1457C87.231 68.1146 92.3204 72.5042 92.787 78.1875C93.0839 82.259 90.5603 85.8853 87.3794 88.1543ZM37.9692 77.7421C37.5663 78.9933 35.9759 79.7355 34.8732 80.2233C33.1979 80.9655 31.3741 81.432 29.5928 81.8137C28.1084 82.1106 26.5816 82.3651 25.0759 82.4923C23.846 82.5983 21.3649 82.662 20.8559 81.1775C20.3682 79.7355 22.8917 78.1026 23.7824 77.5089C26.0302 76.0669 28.893 76.4274 31.4166 76.4486C32.1588 76.4486 32.5405 75.9396 32.5829 75.3671C33.7704 75.3883 34.958 75.4307 36.1243 75.6639C37.4603 75.8972 38.4358 76.3001 37.9692 77.7421Z" fill="#000000" fill-rule="nonzero" opacity="1" stroke="none"/>
</g>
</g>
</svg>
