<?xml version="1.0" encoding="UTF-8" standalone="no"?>
<!DOCTYPE svg PUBLIC "-//W3C//DTD SVG 1.1//EN" "http://www.w3.org/Graphics/SVG/1.1/DTD/svg11.dtd">
<!-- Created with Vectornator (http://vectornator.io/) -->
<svg height="100%" stroke-miterlimit="10" style="fill-rule:nonzero;clip-rule:evenodd;stroke-linecap:round;stroke-linejoin:round;" version="1.1" viewBox="0 0 100 100" width="100%" xml:space="preserve" xmlns="http://www.w3.org/2000/svg" xmlns:vectornator="http://vectornator.io" xmlns:xlink="http://www.w3.org/1999/xlink">
<defs/>
<g id="Layer-1" vectornator:layerName="Layer 1">
<path d="M62.3938 12.6406C62.3938 6.18055 57.179 0.965798 50.719 0.965798C44.2589 0.965798 39.0442 6.18055 39.0442 12.6406C39.0442 19.1007 44.2589 24.3154 50.719 24.3154C57.179 24.3154 62.3938 19.1007 62.3938 12.6406Z" fill="#000000" fill-rule="nonzero" opacity="1" stroke="none"/>
<path d="M93.5266 33.6553C93.5266 30.2307 90.7247 27.4287 87.3001 27.4287L14.1379 27.4287C10.7133 27.4287 7.91135 30.2307 7.91135 33.6553C7.91135 37.0799 10.7133 39.8818 14.1379 39.8818L39.0442 39.8818L39.0442 92.0293C39.0442 95.9209 42.1575 99.0342 46.0491 99.0342C49.9407 99.0342 53.0539 95.9209 53.0539 92.0293L53.0539 83.0786C54.9997 83.7791 57.179 83.5456 58.9692 82.456L74.5356 73.1161C76.6371 71.8708 77.8824 69.6915 77.9602 67.2009C78.038 64.7881 76.7927 62.531 74.7691 61.2078L62.316 53.1133L62.316 39.8818L87.3001 39.8818C90.7247 39.8818 93.5266 37.0799 93.5266 33.6553Z" fill="#000000" fill-rule="nonzero" opacity="1" stroke="none"/>
<path d="M53.0539 69.6915L53.0539 67.2787L53.0539 63.7763L57.7239 66.8117L53.0539 69.6915Z" fill="#000000" fill-rule="nonzero" opacity="1" stroke="none"/>
</g>
</svg>
