<?xml version="1.0" encoding="UTF-8" standalone="no"?>
<!DOCTYPE svg PUBLIC "-//W3C//DTD SVG 1.1//EN" "http://www.w3.org/Graphics/SVG/1.1/DTD/svg11.dtd">
<!-- Created with Vectornator (http://vectornator.io/) -->
<svg height="100%" stroke-miterlimit="10" style="fill-rule:nonzero;clip-rule:evenodd;stroke-linecap:round;stroke-linejoin:round;" version="1.1" viewBox="0 0 100 100" width="100%" xml:space="preserve" xmlns="http://www.w3.org/2000/svg" xmlns:vectornator="http://vectornator.io" xmlns:xlink="http://www.w3.org/1999/xlink">
<defs/>
<g id="Layer-1" vectornator:layerName="Layer 1">
<g opacity="1">
<path d="M58.959 15.6167C58.959 9.6712 54.1596 4.87186 48.2142 4.87186C42.2687 4.87186 37.4694 9.6712 37.4694 15.6167C37.4694 21.5621 42.2687 26.3615 48.2142 26.3615C54.1596 26.3615 58.959 21.5621 58.959 15.6167Z" fill="#000000" fill-rule="nonzero" opacity="1" stroke="none"/>
<path d="M87.6118 34.9573C87.6118 31.8055 85.033 29.2267 81.8812 29.2267L14.5472 29.2267C11.3954 29.2267 8.81661 31.8055 8.81661 34.9573C8.81661 38.1091 11.3954 40.6878 14.5472 40.6878L37.4694 40.6878L37.4694 88.6813C37.4694 92.2629 40.3347 95.1281 43.9163 95.1281C47.4979 95.1281 50.3631 92.2629 50.3631 88.6813L50.3631 80.4436C52.1539 81.0883 54.1596 80.8734 55.8072 79.8705L70.1336 71.2747C72.0676 70.1286 73.2137 68.1229 73.2854 65.8307C73.357 63.6101 72.2109 61.5327 70.3485 60.315L58.8874 52.8653L58.8874 40.6878L81.8812 40.6878C85.033 40.6878 87.6118 38.1091 87.6118 34.9573Z" fill="#000000" fill-rule="nonzero" opacity="1" stroke="none"/>
<path d="M50.3631 68.1229L50.3631 65.9023L50.3631 62.6789L54.6611 65.4725L50.3631 68.1229Z" fill="#000000" fill-rule="nonzero" opacity="1" stroke="none"/>
</g>
</g>
</svg>
