<?xml version="1.0" encoding="UTF-8" standalone="no"?>
<!DOCTYPE svg PUBLIC "-//W3C//DTD SVG 1.1//EN" "http://www.w3.org/Graphics/SVG/1.1/DTD/svg11.dtd">
<!-- Created with Vectornator (http://vectornator.io/) -->
<svg height="100%" stroke-miterlimit="10" style="fill-rule:nonzero;clip-rule:evenodd;stroke-linecap:round;stroke-linejoin:round;" version="1.1" viewBox="0 0 100 100" width="100%" xml:space="preserve" xmlns="http://www.w3.org/2000/svg" xmlns:vectornator="http://vectornator.io" xmlns:xlink="http://www.w3.org/1999/xlink">
<defs/>
<g id="Layer-1" vectornator:layerName="Layer 1">
<g opacity="1">
<path d="M49.6282 67.7351C39.4161 67.7351 31.1079 59.4269 31.1079 49.2148C31.1079 39.0028 39.4161 30.6946 49.6282 30.6946C59.8402 30.6946 68.1484 39.0028 68.1484 49.2148C68.1484 59.4269 59.8402 67.7351 49.6282 67.7351ZM84.8166 67.7351C78.6882 67.7351 73.7044 62.7513 73.7044 56.6229C73.7044 50.4946 78.6882 45.5108 84.8166 45.5108C90.9449 45.5108 95.9287 50.4946 95.9287 56.6229C95.9287 62.7513 90.9449 67.7351 84.8166 67.7351ZM62.5923 25.1386C56.464 25.1386 51.4802 20.1548 51.4802 14.0264C51.4802 7.89808 56.464 2.91429 62.5923 2.91429C68.7207 2.91429 73.7044 7.89808 73.7044 14.0264C73.7044 20.1548 68.7207 25.1386 62.5923 25.1386ZM14.4397 25.1386C8.3114 25.1386 3.32761 20.1548 3.32761 14.0264C3.32761 7.89808 8.3114 2.91429 14.4397 2.91429C20.5681 2.91429 25.5519 7.89808 25.5519 14.0264C25.5519 20.1548 20.5681 25.1386 14.4397 25.1386ZM14.4397 88.1073C8.3114 88.1073 3.32761 83.1235 3.32761 76.9952C3.32761 70.8668 8.3114 65.883 14.4397 65.883C20.5681 65.883 25.5519 70.8668 25.5519 76.9952C25.5519 83.1235 20.5681 88.1073 14.4397 88.1073ZM68.1484 95.5154C62.02 95.5154 57.0362 90.5316 57.0362 84.4033C57.0362 78.2749 62.02 73.2911 68.1484 73.2911C74.2767 73.2911 79.2605 78.2749 79.2605 84.4033C79.2605 90.5316 74.2767 95.5154 68.1484 95.5154Z" fill="#000000" fill-rule="nonzero" opacity="1" stroke="none"/>
<path d="M57.6107 22.185L61.0865 23.4654L57.203 34.0072L53.7273 32.7268L57.6107 22.185Z" fill="#000000" fill-rule="nonzero" opacity="1" stroke="none"/>
<path d="M66.8349 50.942L75.1716 52.6961L74.409 56.3208L66.0722 54.5667L66.8349 50.942Z" fill="#000000" fill-rule="nonzero" opacity="1" stroke="none"/>
<path d="M59.1821 63.3869L65.3853 75.1677L62.1078 76.8934L55.9047 65.1126L59.1821 63.3869Z" fill="#000000" fill-rule="nonzero" opacity="1" stroke="none"/>
<path d="M22.5373 19.5045L39.1346 36.1024L36.5154 38.7215L19.9181 22.1236L22.5373 19.5045Z" fill="#000000" fill-rule="nonzero" opacity="1" stroke="none"/>
<path d="M34.9365 58.4549L37.2312 61.3625L23.0012 72.5926L20.7065 69.685L34.9365 58.4549Z" fill="#000000" fill-rule="nonzero" opacity="1" stroke="none"/>
</g>
</g>
</svg>
