<?xml version="1.0" encoding="UTF-8" standalone="no"?>
<!DOCTYPE svg PUBLIC "-//W3C//DTD SVG 1.1//EN" "http://www.w3.org/Graphics/SVG/1.1/DTD/svg11.dtd">
<!-- Created with Vectornator (http://vectornator.io/) -->
<svg height="100%" stroke-miterlimit="10" style="fill-rule:nonzero;clip-rule:evenodd;stroke-linecap:round;stroke-linejoin:round;" version="1.1" viewBox="0 0 100 100" width="100%" xml:space="preserve" xmlns="http://www.w3.org/2000/svg" xmlns:vectornator="http://vectornator.io" xmlns:xlink="http://www.w3.org/1999/xlink">
<defs/>
<g id="Layer-1" vectornator:layerName="Layer 1">
<path d="M57.5238 38.0494L57.5238 44.3789L63.8534 44.3789L63.8534 50.7084L70.1829 50.7084L70.1829 44.3789L76.5124 44.3789L76.5124 38.0494L70.1829 38.0494L70.1829 31.7199L63.8534 31.7199L63.8534 38.0494L57.5238 38.0494ZM95.5009 12.7313L89.1714 12.7313L89.1714 6.40182L82.8419 6.40182L82.8419 12.7313L76.5124 12.7313L76.5124 19.0608L82.8419 19.0608L82.8419 25.3904L89.1714 25.3904L89.1714 19.0608L95.5009 19.0608L95.5009 12.7313ZM51.1943 12.7313L57.5238 12.7313L57.5238 19.0608L51.1943 19.0608L51.1943 12.7313Z" fill="none" opacity="0" stroke="#000000" stroke-linecap="butt" stroke-linejoin="miter" stroke-width="6"/>
</g>
</svg>
