<?xml version="1.0" encoding="UTF-8" standalone="no"?>
<!DOCTYPE svg PUBLIC "-//W3C//DTD SVG 1.1//EN" "http://www.w3.org/Graphics/SVG/1.1/DTD/svg11.dtd">
<!-- Created with Vectornator (http://vectornator.io/) -->
<svg height="100%" stroke-miterlimit="10" style="fill-rule:nonzero;clip-rule:evenodd;stroke-linecap:round;stroke-linejoin:round;" version="1.1" viewBox="0 0 100 100" width="100%" xml:space="preserve" xmlns="http://www.w3.org/2000/svg" xmlns:xlink="http://www.w3.org/1999/xlink">
<defs/>
<g id="Layer-1">
<path d="M81.3228 60.266C76.7719 62.323 71.9615 63.3674 67.0181 63.3674C47.8207 63.3674 32.2058 47.7525 32.2058 28.5551C32.2058 23.6118 33.2502 18.8013 35.3073 14.2504C35.8516 13.0541 35.5921 11.6363 34.6617 10.7059C33.7375 9.78178 32.3324 9.5286 31.1171 10.0666C16.3947 16.7189 6.88776 31.4287 6.88776 47.5436C6.88776 70.2286 25.3446 88.6855 48.0296 88.6855C64.1445 88.6855 78.8543 79.1785 85.5066 64.4561C86.0509 63.2598 85.7914 61.842 84.861 60.9116C83.9369 59.9875 82.5254 59.7343 81.3228 60.266ZM48.0296 82.3559C28.8322 82.3559 13.2173 66.741 13.2173 47.5436C13.2173 36.6506 18.3568 26.517 26.7814 20.0039C26.1801 22.8079 25.8763 25.6625 25.8763 28.5551C25.8763 51.2401 44.3331 69.6969 67.0181 69.6969C69.9107 69.6969 72.7653 69.3931 75.5693 68.7918C69.0562 77.2164 58.9227 82.3559 48.0296 82.3559Z" fill="#000000" fill-rule="nonzero" opacity="1" stroke="none"/>
<path d="M57.5238 38.0494L57.5238 44.3789L63.8534 44.3789L63.8534 50.7084L70.1829 50.7084L70.1829 44.3789L76.5124 44.3789L76.5124 38.0494L70.1829 38.0494L70.1829 31.7199L63.8534 31.7199L63.8534 38.0494L57.5238 38.0494ZM95.5009 12.7313L89.1714 12.7313L89.1714 6.40182L82.8419 6.40182L82.8419 12.7313L76.5124 12.7313L76.5124 19.0608L82.8419 19.0608L82.8419 25.3904L89.1714 25.3904L89.1714 19.0608L95.5009 19.0608L95.5009 12.7313ZM51.1943 12.7313L57.5238 12.7313L57.5238 19.0608L51.1943 19.0608L51.1943 12.7313Z" fill="#000000" fill-rule="nonzero" opacity="1" stroke="none"/>
</g>
</svg>
