<?xml version="1.0" encoding="UTF-8" standalone="no"?>
<!DOCTYPE svg PUBLIC "-//W3C//DTD SVG 1.1//EN" "http://www.w3.org/Graphics/SVG/1.1/DTD/svg11.dtd">
<!-- Created with Vectornator (http://vectornator.io/) -->
<svg height="100%" stroke-miterlimit="10" style="fill-rule:nonzero;clip-rule:evenodd;stroke-linecap:round;stroke-linejoin:round;" version="1.1" viewBox="0 0 100 100" width="100%" xml:space="preserve" xmlns="http://www.w3.org/2000/svg" xmlns:vectornator="http://vectornator.io" xmlns:xlink="http://www.w3.org/1999/xlink">
<defs/>
<g id="Layer-1" vectornator:layerName="Layer 1">
<path d="M41.3174 51.8387C40.8105 60.7088 38.9234 76.5406 32.0632 86.8573C30.3028 89.5027 31.1255 90.9707 33.2348 90.9707C36.9037 90.9707 43.61 90.9707 49.5929 90.9707C55.6305 90.9707 60.935 90.9707 61.6446 90.9707C63.3641 90.9707 63.8066 90.2903 64.1946 88.8223C64.5513 87.4791 68.8363 72.7781 63.639 50.0315M47.661 9.3009C23.3334 11.535 7.7102 31.9754 7.7102 42.5006C7.7102 54.1235 25.5148 52.3845 48.2107 50.9458C75.2715 49.2322 89.5886 45.4716 89.5886 33.8488C89.5886 23.3391 71.9886 7.06679 47.661 9.3009Z" fill="none" opacity="1" stroke="#000000" stroke-linecap="round" stroke-linejoin="miter" stroke-width="2"/>
</g>
</svg>
