<?xml version="1.0" encoding="UTF-8" standalone="no"?>
<!DOCTYPE svg PUBLIC "-//W3C//DTD SVG 1.1//EN" "http://www.w3.org/Graphics/SVG/1.1/DTD/svg11.dtd">
<!-- Created with Vectornator (http://vectornator.io/) -->
<svg height="100%" stroke-miterlimit="10" style="fill-rule:nonzero;clip-rule:evenodd;stroke-linecap:round;stroke-linejoin:round;" version="1.1" viewBox="0 0 100 100" width="100%" xml:space="preserve" xmlns="http://www.w3.org/2000/svg" xmlns:vectornator="http://vectornator.io" xmlns:xlink="http://www.w3.org/1999/xlink">
<defs/>
<g id="Layer-1" vectornator:layerName="Layer 1">
<path d="M34.4088 48.5176C32.7929 48.804 31.0952 49.0494 29.4589 49.0904C26.4725 49.1722 23.4862 48.7222 20.4999 48.6813C24.3248 53.7948 33.3656 52.2812 39.2973 51.6471C39.3792 50.1949 39.4201 48.7426 39.4405 47.3108C37.8042 47.8631 36.1065 48.2313 34.4088 48.5176Z" fill="#bcbcbc" fill-rule="nonzero" opacity="1" stroke="none"/>
<path d="M30.952 28.3498C30.8907 28.2884 30.8293 28.227 30.7884 28.1452C29.0907 29.3111 27.4543 30.5588 25.9407 31.9293C26.1248 32.0315 26.3089 32.2156 26.4112 32.4406C26.9021 33.4633 28.0271 34.261 28.927 34.8951C29.9702 35.6519 31.0952 36.3269 32.2406 36.9405C33.3861 37.5542 34.5724 38.1882 35.7997 38.5973C37.3133 39.1087 38.9292 39.395 40.5041 39.6814C40.6882 39.7223 40.8519 39.7837 40.9746 39.8859C41.2609 39.5791 41.5882 39.2928 41.895 39.0064C37.8246 35.9383 34.552 31.9702 30.952 28.3498Z" fill="#bcbcbc" fill-rule="nonzero" opacity="1" stroke="none"/>
<path d="M34.4701 40.52C33.1202 39.9882 31.8111 39.3132 30.5429 38.5973C28.293 37.3087 25.6748 35.7746 24.4067 33.402C24.0998 33.7088 23.8135 34.0156 23.5067 34.3224C22.034 35.9383 20.5613 37.861 19.6817 39.9678C19.7022 39.9678 19.7022 39.9678 19.7226 39.9882C25.4907 42.545 32.3429 43.0768 38.4996 41.6041C37.1292 41.3382 35.7588 41.0314 34.4701 40.52Z" fill="#bcbcbc" fill-rule="nonzero" opacity="1" stroke="none"/>
<path d="M39.4405 43.6904C32.752 45.3881 25.3476 44.8563 19.0272 42.1359C18.7817 43.3836 18.8022 44.6722 19.1908 45.9813C19.2522 46.1858 19.3136 46.3904 19.3954 46.5745C19.5386 46.4722 19.7431 46.4313 19.9681 46.4313C22.8317 46.4518 25.6544 46.9017 28.518 46.8608C30.1134 46.8404 31.7497 46.6972 33.3247 46.4313C34.7974 46.2063 36.2497 45.9199 37.6815 45.4904C38.2951 45.3063 38.9292 45.1222 39.5223 44.8359C39.5428 44.5291 39.5428 44.2018 39.5632 43.895C39.5019 43.8336 39.461 43.7723 39.4405 43.6904Z" fill="#bcbcbc" fill-rule="nonzero" opacity="1" stroke="none"/>
<path d="M73.7832 24.3407C70.3878 20.0453 65.2947 18.409 60.0584 18.2454C60.1607 18.4295 60.222 18.6749 60.1811 18.9408C59.9152 21.4976 58.463 23.6862 57.9925 26.1816C57.7471 27.552 57.2562 28.8611 56.9903 30.2316C56.7243 31.602 56.5403 32.9724 56.5198 34.3838C56.5198 34.6292 56.4584 34.8338 56.3357 34.9974C57.2766 35.2837 58.1561 35.6928 58.9539 36.286C59.1993 36.4701 59.4243 36.6951 59.6493 36.9201C59.6698 36.736 59.7311 36.5519 59.8538 36.3678C61.8993 33.4429 65.9288 32.0315 69.1196 30.8043C70.531 30.2725 71.7991 29.5361 73.2923 29.1475C74.2127 28.902 75.2763 28.6566 76.2786 28.7384C75.6854 27.1634 74.8263 25.6498 73.7832 24.3407Z" fill="#bcbcbc" fill-rule="nonzero" opacity="1" stroke="none"/>
<path d="M54.4335 18.5931C52.8994 18.8181 51.3653 19.1249 49.8517 19.4931C50.2608 19.5749 50.6085 19.9022 50.6085 20.4749C50.629 25.1794 50.9767 29.8838 51.6926 34.5269C52.5517 34.486 53.4312 34.5065 54.2903 34.5883C54.2903 34.5678 54.2903 34.5678 54.2903 34.5474C54.3107 33.0747 54.4335 31.602 54.7198 30.1497C54.9857 28.7793 55.4766 27.4293 55.7425 26.0589C56.2334 23.4612 57.7061 21.1294 57.9925 18.4908C57.9925 18.409 58.013 18.3272 58.0539 18.2454C56.8266 18.2863 55.6198 18.409 54.4335 18.5931Z" fill="#bcbcbc" fill-rule="nonzero" opacity="1" stroke="none"/>
<path d="M40.9337 24.0748C41.6496 26.5293 43.1018 28.8202 44.3086 31.0497C45.1473 32.5633 46.3336 33.9542 47.0495 35.5497C47.8268 35.2224 48.6245 34.9565 49.4631 34.7928C48.7267 30.1088 48.3586 25.3839 48.3586 20.6385C48.3586 20.2703 48.5222 19.9635 48.7472 19.7794C43.3882 21.2317 38.1928 23.543 33.5088 26.4066C33.2429 26.5702 32.9565 26.7543 32.6906 26.918C36.2906 30.5588 39.5837 34.5269 43.7155 37.5746C44.1654 37.2269 44.6154 36.9201 45.0654 36.6133C44.3495 34.8338 42.9586 33.2179 42.0791 31.5406C40.9337 29.3316 39.5223 27.2248 38.8269 24.8112C38.3974 23.4203 40.5246 22.6635 40.9337 24.0748Z" fill="#bcbcbc" fill-rule="nonzero" opacity="1" stroke="none"/>
<path d="M65.9901 45.3472C65.2947 45.0609 64.5788 44.8563 63.8629 44.7131C64.1288 45.4904 64.3742 46.2881 64.6197 47.0654C65.5401 46.7995 66.4401 46.4518 67.3196 46.0222C66.9106 45.7359 66.3992 45.5109 65.9901 45.3472Z" fill="#bcbcbc" fill-rule="nonzero" opacity="1" stroke="none"/>
<path d="M72.74 40.9905C71.7582 40.9291 70.7764 40.97 69.7946 41.0314C67.4424 41.1337 65.131 41.5632 62.7788 41.6859C62.8606 41.9109 62.9424 42.1359 63.0242 42.3609C63.147 42.3405 63.2697 42.3405 63.3924 42.3609C65.131 42.5655 67.9742 43.3018 69.3855 44.8563C70.9605 43.8132 72.4127 42.545 73.5991 41.0723C73.2718 41.0314 72.9446 41.0109 72.74 40.9905Z" fill="#bcbcbc" fill-rule="nonzero" opacity="1" stroke="none"/>
<path d="M76.9945 31.2543C76.9331 31.2338 76.8718 31.2134 76.8104 31.1724C75.7672 30.5997 74.09 31.2338 73.0673 31.5815C71.9014 31.9906 70.8378 32.5838 69.6923 33.0133C66.9105 34.0974 63.3924 35.3042 61.5925 37.8405C61.3675 38.1473 61.1015 38.2701 60.8356 38.2701C61.1015 38.5973 61.5311 39.0064 61.797 39.4564C64.7219 39.4155 67.606 38.8223 70.5309 38.7405C71.7787 38.6996 73.64 38.5564 75.0513 39.0473C75.3991 38.4542 75.7263 37.861 75.9922 37.2269C76.7899 35.386 77.2604 33.2792 76.9945 31.2543Z" fill="#bcbcbc" fill-rule="nonzero" opacity="1" stroke="none"/>
<path d="M80.8194 20.3726C78.9785 15.934 75.6445 12.0477 71.7173 9.30687C64.3742 4.17286 54.9857 3.06833 46.2722 4.25468C36.9247 5.52284 27.7407 9.32733 21.0931 16.1795C14.1182 23.3589 10.5387 34.6292 14.6704 44.1404C15.7341 46.5745 17.2681 48.7222 19.0886 50.6449C19.2113 50.7676 19.334 50.8494 19.4567 50.9108C20.1931 51.6676 21.0317 52.3221 21.9931 52.8335C24.7339 54.3062 28.0475 54.5516 31.0952 54.5312C33.7747 54.5107 36.4337 54.1835 39.1133 53.9175C38.8883 56.0448 38.4996 58.172 37.7837 60.197C35.8406 65.6992 31.1975 69.1559 27.3521 73.2672C25.6544 75.0877 24.1408 77.2354 23.8544 79.7717C23.6294 81.858 24.3453 83.9853 25.3885 85.7648C27.4339 89.242 31.2793 91.2874 35.0224 92.3715C43.4496 94.8056 53.0426 91.492 59.5675 85.9898C63.1879 82.9421 65.8878 78.9944 67.0742 74.3922C67.7492 71.7945 67.7696 69.0332 67.7287 66.3742C67.6878 63.3674 67.4015 60.3811 66.931 57.4152C66.5015 54.6744 65.9287 51.9335 65.1924 49.254C66.256 48.9676 67.2992 48.5585 68.3219 48.0676C68.9355 48.5381 70.1832 48.1495 70.2241 47.0858C70.2241 47.0654 70.2241 47.0449 70.2241 47.004C72.3514 45.6745 74.2741 43.9359 75.7877 41.9314C76.4013 41.8086 76.9331 41.2155 76.749 40.5405C77.3422 39.5996 77.8331 38.6178 78.2217 37.5951C78.5695 37.5746 78.8967 37.3905 79.1013 37.0224C80.6149 34.4656 81.7603 31.6838 82.0876 28.6975C82.4558 25.8339 81.9035 22.9908 80.8194 20.3726Z" fill="#000000" fill-rule="nonzero" opacity="1" stroke="none"/>
<path d="M19.3749 46.5745C19.3136 46.3699 19.2317 46.1859 19.1704 45.9813C18.7817 44.6927 18.7817 43.4041 19.0067 42.1359C25.3271 44.8563 32.7315 45.3677 39.4201 43.6904C39.4405 43.7723 39.4814 43.8336 39.5223 43.895C39.5019 44.2018 39.5019 44.5291 39.4814 44.8359C38.8883 45.1222 38.2542 45.3063 37.6405 45.4904C36.2088 45.8995 34.7565 46.1859 33.2838 46.4313C31.6884 46.6768 30.0725 46.8404 28.4771 46.8608C25.6135 46.8813 22.7908 46.4518 19.9272 46.4313C19.7226 46.4313 19.5181 46.4927 19.3749 46.5745Z" fill="#000000" fill-rule="nonzero" opacity="1" stroke="none"/>
<path d="M49.4631 34.7928C48.604 34.9565 47.8063 35.2224 47.0495 35.5496C46.3336 33.9542 45.1472 32.5633 44.3086 31.0497C43.0814 28.8202 41.6496 26.5293 40.9337 24.0748C40.5246 22.6839 38.3974 23.4203 38.8064 24.8112C39.5019 27.2248 40.9132 29.3316 42.0587 31.5406C42.9382 33.2179 44.3291 34.8338 45.045 36.6133C44.595 36.8996 44.145 37.2269 43.695 37.5746C39.5428 34.5269 36.2497 30.5588 32.6702 26.918C32.9361 26.7543 33.2224 26.5702 33.4883 26.4066C38.1724 23.543 43.3677 21.2317 48.7267 19.7794C48.5017 19.984 48.3381 20.2703 48.3381 20.6385C48.379 25.3839 48.7472 30.1088 49.4631 34.7928Z" fill="#000000" fill-rule="nonzero" opacity="1" stroke="none"/>
<path d="M41.895 39.0269C41.5678 39.3132 41.2609 39.5996 40.9746 39.9064C40.8519 39.8041 40.6882 39.7428 40.5041 39.7019C38.9292 39.4155 37.3337 39.1496 35.7997 38.6178C34.5724 38.1882 33.3861 37.5542 32.2406 36.961C31.0952 36.3474 29.9907 35.6724 28.927 34.9156C28.0271 34.2815 26.9225 33.4633 26.4112 32.4611C26.2885 32.2156 26.1248 32.052 25.9407 31.9497C27.4543 30.5793 29.1111 29.3316 30.7884 28.1657C30.8293 28.227 30.8907 28.3089 30.952 28.3702C34.552 31.9702 37.8246 35.9383 41.895 39.0269Z" fill="#000000" fill-rule="nonzero" opacity="1" stroke="none"/>
<path d="M30.5429 38.5973C31.7906 39.3132 33.1202 39.9882 34.4701 40.52C35.7792 41.0314 37.1292 41.3587 38.4996 41.6246C32.3429 43.0973 25.4907 42.5655 19.7226 40.0087C19.7022 40.0087 19.7022 39.9882 19.6817 39.9882C20.5613 37.8814 22.034 35.9383 23.5067 34.3429C23.793 34.036 24.0998 33.7088 24.4067 33.4224C25.6748 35.7746 28.293 37.3087 30.5429 38.5973Z" fill="#000000" fill-rule="nonzero" opacity="1" stroke="none"/>
<path d="M20.4999 48.6813C23.4862 48.7426 26.4521 49.1722 29.4589 49.0903C31.0952 49.0494 32.7929 48.804 34.4088 48.5176C36.1065 48.2108 37.8042 47.8631 39.4405 47.2904C39.3996 48.7426 39.3792 50.1949 39.2973 51.6267C33.3656 52.2812 24.3248 53.7948 20.4999 48.6813Z" fill="#000000" fill-rule="nonzero" opacity="1" stroke="none"/>
<path d="M60.0788 18.2454C65.2947 18.409 70.4082 20.0249 73.8036 24.3407C74.8468 25.6703 75.7059 27.1634 76.3195 28.7588C75.3172 28.6975 74.2536 28.9429 73.3332 29.1679C71.8605 29.5566 70.5719 30.2929 69.1605 30.8247C65.9697 32.052 61.9402 33.4633 59.8948 36.3883C59.772 36.5724 59.7107 36.7565 59.6902 36.9405C59.4652 36.7155 59.2402 36.4905 58.9948 36.3065C58.1971 35.7133 57.3175 35.2837 56.3766 35.0178C56.4789 34.8542 56.5607 34.6497 56.5607 34.4042C56.5812 32.9929 56.7448 31.6224 57.0312 30.252C57.2971 28.8816 57.788 27.5725 58.0334 26.2021C58.5039 23.7067 59.9561 21.4976 60.222 18.9613C60.2425 18.6545 60.1811 18.4295 60.0788 18.2454Z" fill="#000000" fill-rule="nonzero" opacity="1" stroke="none"/>
<path d="M57.9925 18.4908C57.7061 21.1294 56.2334 23.4612 55.7425 26.0589C55.4766 27.4293 54.9857 28.7793 54.7198 30.1497C54.4335 31.602 54.3107 33.0747 54.2903 34.5474C54.2903 34.5678 54.2903 34.5678 54.2903 34.5883C53.4312 34.486 52.5517 34.486 51.6926 34.5269C50.9767 29.8838 50.6085 25.1794 50.6085 20.4749C50.6085 19.9022 50.2608 19.5954 49.8517 19.4931C51.3653 19.1249 52.8994 18.8181 54.4335 18.5931C55.6198 18.409 56.8266 18.3067 58.0539 18.2658C58.0334 18.3272 58.013 18.409 57.9925 18.4908Z" fill="#000000" fill-rule="nonzero" opacity="1" stroke="none"/>
<path d="M64.5992 47.0654C64.3538 46.2677 64.1083 45.4904 63.8424 44.7131C64.5788 44.8563 65.2947 45.0813 65.9697 45.3472C66.3787 45.5109 66.8901 45.7154 67.2992 46.0222C66.4401 46.4518 65.5197 46.7995 64.5992 47.0654Z" fill="#000000" fill-rule="nonzero" opacity="1" stroke="none"/>
<path d="M69.406 44.8563C67.9946 43.3018 65.1515 42.5859 63.4129 42.3609C63.2697 42.3405 63.147 42.3405 63.0447 42.3609C62.9629 42.1359 62.8811 41.9109 62.7992 41.6859C65.1515 41.5632 67.4628 41.1337 69.815 41.0314C70.7969 40.9905 71.7787 40.9496 72.7605 40.9905C72.965 41.0109 73.3127 41.0314 73.64 41.0723C72.4127 42.5245 70.9809 43.8132 69.406 44.8563Z" fill="#000000" fill-rule="nonzero" opacity="1" stroke="none"/>
<path d="M75.9718 37.2474C75.7059 37.861 75.3786 38.4746 75.0309 39.0678C73.6195 38.5769 71.7582 38.7201 70.5105 38.761C67.5855 38.8428 64.7015 39.436 61.7765 39.4769C61.5106 39.0473 61.0811 38.6382 60.8152 38.2905C61.0811 38.2905 61.3675 38.1678 61.572 37.861C63.372 35.3042 66.8901 34.1179 69.6719 33.0338C70.8173 32.5838 71.8809 31.9906 73.0468 31.602C74.0695 31.2543 75.7468 30.6202 76.7899 31.1929C76.8513 31.2338 76.9127 31.2543 76.974 31.2747C77.2604 33.2792 76.7899 35.386 75.9718 37.2474Z" fill="#000000" fill-rule="nonzero" opacity="1" stroke="none"/>
</g>
</svg>
