<?xml version="1.0" encoding="UTF-8" standalone="no"?>
<!DOCTYPE svg PUBLIC "-//W3C//DTD SVG 1.1//EN" "http://www.w3.org/Graphics/SVG/1.1/DTD/svg11.dtd">
<!-- Created with Vectornator (http://vectornator.io/) -->
<svg height="100%" stroke-miterlimit="10" style="fill-rule:nonzero;clip-rule:evenodd;stroke-linecap:round;stroke-linejoin:round;" version="1.1" viewBox="0 0 100 100" width="100%" xml:space="preserve" xmlns="http://www.w3.org/2000/svg" xmlns:vectornator="http://vectornator.io" xmlns:xlink="http://www.w3.org/1999/xlink">
<defs/>
<g id="Layer-1" vectornator:layerName="Layer 1">
<g opacity="1">
<path d="M87.723 35.7525C86.4459 16.6624 70.5118 1.52101 51.1061 1.52101C31.7004 1.52101 15.7663 16.6624 14.4893 35.7489C10.0562 37.8223 7.06902 42.3324 7.06902 47.393C7.06902 52.6334 10.236 57.239 14.904 59.2096C17.7443 77.8704 32.4014 96.9348 51.1061 96.9348C69.8146 96.9348 84.4679 77.8704 87.3083 59.2096C91.9763 57.239 95.1433 52.6334 95.1433 47.393C95.1433 42.3324 92.1561 37.8223 87.723 35.7525ZM87.4808 45.5581L78.0679 45.5581C77.7523 45.0297 77.3266 44.6003 76.7945 44.2847L76.7945 35.8186C77.3229 35.503 77.7523 35.0736 78.0679 34.5452L80.211 34.5452C80.3615 35.7415 80.4606 36.9489 80.4606 38.1819L80.2734 41.3636L83.3964 41.9948C85.323 42.3875 86.8459 43.7783 87.4808 45.5581ZM78.6954 63.9069C78.1706 65.6281 77.5358 67.3308 76.7945 68.9969L76.7945 65.1803C77.3229 64.8647 77.7523 64.4354 78.0679 63.9069L78.6954 63.9069ZM63.3888 74.9162C63.0732 74.3878 62.6439 73.9584 62.1154 73.6428L62.1154 65.1767C62.6439 64.8611 63.0732 64.4317 63.3888 63.9033L71.855 63.9033C72.1706 64.4317 72.5999 64.8611 73.1284 65.1767L73.1284 74.9162L63.3888 74.9162ZM45.04 74.9162C44.7244 74.3878 44.2951 73.9584 43.7666 73.6428L43.7666 65.1767C44.2951 64.8647 44.7244 64.4354 45.04 63.9069L57.1759 63.9069C57.4915 64.4354 57.9209 64.8647 58.4493 65.1803L58.4493 73.6465C57.9209 73.9621 57.4915 74.3914 57.1759 74.9199L45.04 74.9199L45.04 74.9162ZM29.0876 74.9162L29.0876 65.1803C29.616 64.8647 30.0454 64.4354 30.361 63.9069L38.8271 63.9069C39.1391 64.4354 39.5684 64.8647 40.0969 65.1803L40.0969 73.6465C39.5684 73.9584 39.1391 74.3878 38.8235 74.9162L29.0876 74.9162ZM24.1444 63.9069C24.46 64.4354 24.8894 64.8647 25.4178 65.1803L25.4178 68.9969C24.6802 67.3271 24.0453 65.628 23.5206 63.9069L24.1444 63.9069ZM22.7132 30.8791C23.3371 28.4681 24.2362 26.1671 25.4178 24.0387L25.4178 29.6094C24.8894 29.9213 24.46 30.3506 24.1444 30.8791L22.7132 30.8791ZM57.1723 19.8698C57.4879 20.3983 57.9172 20.8276 58.4457 21.1432L58.4457 29.6094C57.9172 29.925 57.4879 30.3543 57.1723 30.8828L45.04 30.8828C44.7244 30.3506 44.2951 29.9213 43.7666 29.6057L43.7666 21.1395C44.2951 20.8276 44.7244 20.3983 45.04 19.8698L57.1723 19.8698ZM78.0679 30.8791C77.7523 30.3506 77.3229 29.9213 76.7945 29.6057L76.7945 24.0276C77.9761 26.1598 78.8789 28.4644 79.4991 30.8791L78.0679 30.8791ZM73.1247 58.9638C72.5963 59.2794 72.1669 59.7087 71.8513 60.2372L63.3852 60.2372C63.0696 59.7087 62.6402 59.2794 62.1118 58.9638L62.1118 56.3803C60.7466 56.105 59.5136 55.4958 58.442 54.6848L58.442 58.9638C57.9135 59.2794 57.4842 59.7087 57.1686 60.2372L45.04 60.2372C44.7244 59.7087 44.2951 59.2794 43.7666 58.9638L43.7666 54.6848C42.695 55.4958 41.462 56.105 40.0969 56.3803L40.0969 58.9638C39.5684 59.2794 39.1391 59.7087 38.8235 60.2372L30.361 60.2372C30.0454 59.7087 29.616 59.2794 29.0876 58.9638L29.0876 35.8186C29.616 35.5067 30.0454 35.0773 30.361 34.5488L38.8271 34.5488C39.1391 35.0773 39.5684 35.5067 40.0969 35.8223L40.0969 38.4058C41.462 38.681 42.695 39.2902 43.7666 40.1012L43.7666 35.8223C44.2951 35.5067 44.7244 35.0773 45.04 34.5488L57.1759 34.5488C57.4915 35.0773 57.9209 35.5067 58.4493 35.8223L58.4493 40.1012C59.5209 39.2902 60.7539 38.681 62.1191 38.4058L62.1191 35.8223C62.6475 35.5067 63.0769 35.0773 63.3925 34.5488L71.8586 34.5488C72.1742 35.0773 72.6036 35.5067 73.132 35.8223L73.132 58.9638L73.1247 58.9638ZM29.0876 29.6057L29.0876 19.8698L38.8235 19.8698C39.1391 20.3983 39.5684 20.8276 40.0969 21.1432L40.0969 29.6094C39.5684 29.9213 39.1391 30.3506 38.8235 30.8791L30.361 30.8791C30.0454 30.3506 29.616 29.9213 29.0876 29.6057ZM73.1247 19.8698L73.1247 29.6057C72.5963 29.9213 72.1669 30.3506 71.8513 30.8791L63.3852 30.8791C63.0696 30.3506 62.6402 29.9213 62.1118 29.6057L62.1118 21.1395C62.6402 20.8239 63.0696 20.3946 63.3852 19.8661L73.1247 19.8661L73.1247 19.8698ZM63.3888 16.2C63.0732 15.6716 62.6439 15.2422 62.1154 14.9266L62.1154 11.022C65.1944 12.2734 68.0054 14.0386 70.4641 16.2L63.3888 16.2ZM40.0969 14.9266C39.5684 15.2422 39.1391 15.6716 38.8235 16.2L31.7518 16.2C34.2106 14.0386 37.0179 12.2734 40.0969 11.022L40.0969 14.9266ZM58.4457 9.82567L58.4457 14.9266C57.9172 15.2422 57.4879 15.6716 57.1723 16.2L45.04 16.2C44.7244 15.6716 44.2951 15.2422 43.7666 14.9266L43.7666 9.82567C46.1189 9.21649 48.5667 8.86053 51.1061 8.86053C53.6456 8.86053 56.0933 9.21649 58.4457 9.82567ZM18.8159 41.9985L21.7481 41.2205L21.7481 38.2186C21.7481 36.9746 21.8508 35.7525 22.0013 34.5488L24.1444 34.5488C24.46 35.0773 24.8894 35.5067 25.4178 35.8223L25.4178 44.2884C24.8894 44.6003 24.46 45.0297 24.1444 45.5581L14.7315 45.5581C15.3663 43.7783 16.8893 42.3875 18.8159 41.9985ZM18.9113 52.7876C16.937 52.4279 15.3774 51.0334 14.7351 49.2279L24.1481 49.2279C24.46 49.7563 24.8894 50.1857 25.4178 50.5013L25.4178 58.9674C24.8894 59.2794 24.46 59.7087 24.1444 60.2372L22.5738 60.2372C22.2802 58.8353 22.0343 57.4335 21.9022 56.0463L21.638 53.2866L18.9113 52.7876ZM31.1977 78.586L38.8271 78.586C39.1391 79.1144 39.5684 79.5438 40.0969 79.8594L40.0969 86.4539C36.7794 84.52 33.7739 81.8007 31.1977 78.586ZM43.7666 88.1824L43.7666 79.8594C44.2951 79.5438 44.7244 79.1144 45.04 78.586L57.1759 78.586C57.4915 79.1144 57.9209 79.5438 58.4493 79.8594L58.4493 88.1824C56.1007 89.0705 53.6493 89.5953 51.1061 89.5953C48.563 89.5953 46.1116 89.0705 43.7666 88.1824ZM62.1154 86.4539L62.1154 79.8594C62.6439 79.5438 63.0732 79.1144 63.3888 78.586L71.0183 78.586C68.4384 81.8007 65.4329 84.52 62.1154 86.4539ZM83.301 52.7876L80.5743 53.2866L80.3101 56.0463C80.178 57.4335 79.9321 58.8353 79.6385 60.2372L78.0679 60.2372C77.7523 59.7087 77.3229 59.2794 76.7945 58.9638L76.7945 50.4976C77.3229 50.182 77.7523 49.7563 78.0679 49.2242L87.4808 49.2242C86.8349 51.0334 85.2789 52.4279 83.301 52.7876Z" fill="#000000" fill-rule="nonzero" opacity="1" stroke="none"/>
<path d="M38.262 41.8884C35.2218 41.8884 32.7573 44.3529 32.7573 47.393C32.7573 50.4331 35.2218 52.8977 38.262 52.8977C41.3021 52.8977 43.7666 50.4331 43.7666 47.393C43.7666 44.3529 41.3021 41.8884 38.262 41.8884ZM63.9503 41.8884C60.9102 41.8884 58.4457 44.3529 58.4457 47.393C58.4457 50.4331 60.9102 52.8977 63.9503 52.8977C66.9904 52.8977 69.4549 50.4331 69.4549 47.393C69.4549 44.3529 66.9904 41.8884 63.9503 41.8884Z" fill="#000000" fill-rule="nonzero" opacity="1" stroke="none"/>
</g>
</g>
</svg>
