<?xml version="1.0" encoding="UTF-8" standalone="no"?>
<!DOCTYPE svg PUBLIC "-//W3C//DTD SVG 1.1//EN" "http://www.w3.org/Graphics/SVG/1.1/DTD/svg11.dtd">
<!-- Created with Vectornator (http://vectornator.io/) -->
<svg height="100%" stroke-miterlimit="10" style="fill-rule:nonzero;clip-rule:evenodd;stroke-linecap:round;stroke-linejoin:round;" version="1.1" viewBox="0 0 100 100" width="100%" xml:space="preserve" xmlns="http://www.w3.org/2000/svg" xmlns:vectornator="http://vectornator.io" xmlns:xlink="http://www.w3.org/1999/xlink">
<defs/>
<g id="Layer-1" vectornator:layerName="Layer 1">
<path d="M50.9094 95.1303C61.9006 95.1303 84.5558 79.2418 84.5558 44.6608C84.5558 20.3606 81.4977 5.40669 50.9094 5.40669C20.3212 5.40669 17.2631 20.3606 17.2631 44.6608C17.2631 79.2418 39.9183 95.1303 50.9094 95.1303Z" fill="none" opacity="1" stroke="#000000" stroke-linecap="butt" stroke-linejoin="miter" stroke-width="1"/>
<path d="M17.2631 35.3146L83.6212 35.3146C83.6212 35.3146 50.9094 26.903 30.3478 10.0798M80.8173 65.2225L19.1323 65.2225C19.1323 65.2225 56.5172 77.3725 65.8634 85.7841" fill="none" opacity="1" stroke="#000000" stroke-linecap="butt" stroke-linejoin="bevel" stroke-width="1"/>
<path d="M43.4325 50.2685C43.4325 52.3322 41.7576 54.007 39.694 54.007C32.217 54.007 28.4785 46.53 28.4785 46.53C28.4785 46.53 43.4325 46.53 43.4325 50.2685ZM58.3864 50.2685C58.3864 52.3322 60.0613 54.007 62.1249 54.007C69.6019 54.007 73.3404 46.53 73.3404 46.53C73.3404 46.53 58.3864 46.53 58.3864 50.2685Z" fill="#000000" fill-rule="nonzero" opacity="1" stroke="none"/>
</g>
</svg>
