<?xml version="1.0" encoding="UTF-8" standalone="no"?>
<!DOCTYPE svg PUBLIC "-//W3C//DTD SVG 1.1//EN" "http://www.w3.org/Graphics/SVG/1.1/DTD/svg11.dtd">
<!-- Created with Vectornator (http://vectornator.io/) -->
<svg height="100%" stroke-miterlimit="10" style="fill-rule:nonzero;clip-rule:evenodd;stroke-linecap:round;stroke-linejoin:round;" version="1.1" viewBox="0 0 100 100" width="100%" xml:space="preserve" xmlns="http://www.w3.org/2000/svg" xmlns:vectornator="http://vectornator.io" xmlns:xlink="http://www.w3.org/1999/xlink">
<defs/>
<g id="Layer-1" vectornator:layerName="Layer 1">
<g opacity="1">
<g opacity="1">
<path d="M37.8155 36.5944C51.5562 36.5944 58.7696 46.2992 60.6214 55.9367C60.6214 55.9367 61.1411 57.3318 60.998 62.443C60.8297 68.4359 55.9099 72.7854 49.4331 74.7171C49.2605 84.4809 46.7922 87.0965 37.8155 87.0965L37.9375 87.0965C28.9608 87.0965 26.4925 84.4809 26.3199 74.7171C19.843 72.7854 14.9233 68.4359 14.755 62.443C14.6119 57.3318 15.1316 55.9367 15.1316 55.9367C16.9834 46.2992 24.1967 36.5944 37.9375 36.5944L37.8155 36.5944Z" fill="none" opacity="1" stroke="#000000" stroke-linecap="round" stroke-linejoin="round" stroke-width="2"/>
<path d="M63.1275 95.5135C69.4403 80.7837 69.4403 59.7412 69.4403 59.7412C69.4403 19.7604 37.8765 19.7604 37.8765 19.7604C37.8765 19.7604 6.31269 19.7604 6.31269 59.7412C6.31269 59.7412 6.31269 80.7837 12.6255 95.5135M14.7297 61.8454C14.7297 76.5752 16.834 84.9922 21.0425 95.5135M61.0233 61.8454C61.0233 76.5752 58.919 84.9922 54.7105 95.5135M77.8573 21.8646C77.8573 21.8646 51.5289 9.11283 29.4595 9.23909C23.294 9.27486 17.4589 10.9898 12.6255 13.4476C18.8204 6.60456 30.9577 2.78534 44.1893 2.92633C63.4011 3.13044 83.6145 9.88509 92.5871 13.4476L77.8573 21.8646ZM94.6913 9.23909L82.0658 95.5135" fill="none" opacity="1" stroke="#000000" stroke-linecap="round" stroke-linejoin="round" stroke-width="2"/>
<path d="M42.0008 51.24C38.9328 54.3059 39.6399 59.9874 42.2491 62.5987C44.8542 65.2038 48.3788 63.7519 51.4468 60.686C54.5148 57.6159 55.9668 54.0954 53.3596 51.4841C50.7461 48.8769 45.0667 48.172 42.0008 51.24ZM37.8765 63.9497C35.5534 63.9497 33.668 69.1556 33.668 71.4471C33.668 73.7366 35.5534 71.0305 37.8765 71.0305C40.1996 71.0305 42.085 73.7366 42.085 71.4471C42.085 69.1556 40.1996 63.9497 37.8765 63.9497ZM33.7522 51.24C30.6842 48.172 25.0027 48.8769 22.3934 51.4862C19.7883 54.0954 21.2382 57.6159 24.3062 60.686C27.3742 63.7519 30.8946 65.2038 33.5039 62.5966C36.1152 59.9874 36.8202 54.3059 33.7522 51.24Z" fill="#000000" fill-rule="nonzero" opacity="1" stroke="none"/>
</g>
</g>
</g>
</svg>
