<?xml version="1.0" standalone="no"?>
<!DOCTYPE svg PUBLIC "-//W3C//DTD SVG 1.1//EN" 
  "http://www.w3.org/Graphics/SVG/1.1/DTD/svg11.dtd">
<svg width="100.0m" height="100.0m" viewBox="0 0 100.0 100.0"
     xmlns="http://www.w3.org/2000/svg" version="1.1">
<desc>Outline to SVG export</desc>
	<path fill-rule="evenodd" fill="#000000" stroke="#555555" stroke-width="0" opacity="1" d="M 25.47151758746636,49.99999999908688 L 25.4715177879672,50.000000105829166 L 26.214803478683912,50.34944905569673 L 26.214803696358768,50.34944914556247 L 26.21480392270089,50.349449080543984 L 26.95808982849121,50.09678649902344 L 27.701377868652344,49.8441276550293 L 28.444664001464844,49.59146499633789 L 29.187952041625977,49.33880615234375 L 29.931238174438477,49.086143493652344 L 30.674524307250977,48.8334846496582 L 31.41781234741211,48.5808219909668 L 32.161102294921875,48.328163146972656 L 32.90438842593892,48.07550048889157 L 33.64767454555502,47.82315063985544 L 33.64767457555385,47.82315062972361 L 34.390964486852575,47.573421485395585 L 34.390964529292845,47.573421471242156 L 35.134250615238216,47.32738877191174 L 35.13425066654548,47.327388755082254 L 35.87754055832875,47.08580018066552 L 35.87754061849129,47.0858001613211 L 36.62082668660146,46.849395762954565 L 36.62082675585979,46.84939574120324 L 37.36411281483567,46.61891938470379 L 37.36411289327038,46.61891936073506 L 38.10740275760463,46.39510728250856 L 38.10740284554196,46.39510725646895 L 38.85068888566961,46.17871095166561 L 38.850688983124314,46.17871092382811 L 39.593975013515674,45.97046281409594 L 39.593975120925464,45.970462784646784 L 40.33726495606061,45.77111436507834 L 40.337265073422344,45.771114334364086 L 41.08055108375695,45.58140184121065 L 41.08055121137314,45.58140180953074 L 41.82383721127399,45.40206529374747 L 41.82383734950277,45.402065261432774 L 42.56712715351619,45.233856217978754 L 42.56712730229756,45.233856185497885 L 43.310413280875615,45.077507035811976 L 43.310413440578,45.07750700357505 L 44.05369940812412,44.933761613172926 L 44.05369957896605,44.93376158167043 L 44.79698935005815,44.803367630685464 L 44.796989532055996,44.803367600485664 L 45.540275477230786,44.68706513961109 L 45.54027567050729,44.68706511130007 L 46.28356160437727,44.585594191193415 L 46.2835618089746,44.58559416540844 L 47.02685154618317,44.49969483668485 L 47.02685176216702,44.49969481409802 L 47.77013767337438,44.43011475671779 L 47.770137900569146,44.43011473805941 L 48.51342380062412,44.377594002552975 L 48.51342403889782,44.377593988572094 L 49.25671374275774,44.342876440138035 L 49.2567139917234,44.342876431615565 L 49.999999782394696,44.326698307958985 L 50.000000217605304,44.326698307958985 L 50.743286008275476,44.34287643161554 L 50.74328625724353,44.34287644013812 L 51.48657214638241,44.377593988571014 L 51.48657238470105,44.37759400255513 L 52.229862099454486,44.430118552757804 L 52.22986232660192,44.43011857141284 L 52.97314823785518,44.49969862879736 L 52.973148453794536,44.49969865137905 L 53.71643437630595,44.58559416540634 L 53.71643458094778,44.58559419119646 L 54.459720514774766,44.687065111297244 L 54.459720708093016,44.6870651396148 L 55.20301046796018,44.80337141518507 L 55.20301064992489,44.80337144537984 L 55.94629660636555,44.933765396372685 L 55.9462967771503,44.93376542786428 L 56.68958274470036,45.077507003570744 L 56.68958290445132,45.077507035817064 L 57.43286888297553,45.23385618549165 L 57.43286903181529,45.23385621798573 L 58.17615502115594,45.40206907614165 L 58.17615515927918,45.40206910843176 L 58.919441159191386,45.58140180952119 L 58.91944128688949,45.58140184122135 L 59.66273111189153,45.77111814906397 L 59.6627312292309,45.77111817977268 L 60.40601724971569,45.97046659935355 L 60.40601735705442,45.970466628782944 L 61.14930720212602,46.17871092381375 L 61.14930729968481,46.178710951680905 L 61.892593339799866,46.395111071177375 L 61.89259342766028,46.39511109719429 L 62.63587947730314,46.618919360725585 L 62.635879555800194,46.61891938471335 L 63.379169429473784,46.84939955590994 L 63.37916949867097,46.84939957764207 L 64.12245175210691,47.08580016131889 L 64.12245181228539,47.085800180668286 L 64.8657455187494,47.327388755079745 L 64.86574557007103,47.327388771913895 L 65.6090316560033,47.573421471239975 L 65.60903169845825,47.57342148539834 L 66.35231779505722,47.82315062972546 L 66.35231782504137,47.82315063985236 L 67.09560394110567,48.07550048768188 L 67.83889770507812,48.328163146972656 L 68.58218383789062,48.5808219909668 L 69.32546997070312,48.8334846496582 L 70.06875610351562,49.086143493652344 L 70.81204223632812,49.33880615234375 L 71.55532836914062,49.59146499633789 L 72.29861450195312,49.8441276550293 L 73.04190826416016,50.09678649902344 L 73.78519416995043,50.34944908054397 L 73.78519439629261,50.34944914556247 L 73.78519461396746,50.34944905569673 L 74.52848030468415,50.00000010582917 L 74.528480505185,49.99999999908688 L 74.5284803131491,49.99999987777421 L 73.04190826416016,49.161277770996094 L 72.29861450195312,48.74191665649414 L 67.83889770507812,46.22574996948242 L 67.09560394514243,45.80638885626194 L 66.35231782945105,45.38754273553714 L 65.60903170486718,44.97304536452413 L 64.86574557796831,44.564689654654195 L 64.12245182187165,44.16370393984442 L 63.379169487122034,43.77132798455938 L 63.379169440975126,43.77132796050483 L 62.6358795429206,43.38878632946332 L 62.63587949012367,43.388786302685 L 61.89259341360071,43.0173111110905 L 61.89259335378156,43.01731108169109 L 61.14930728443669,42.65813829131518 L 61.149307217279905,42.658138259476985 L 60.406017340771,42.312496202649804 L 60.40601726588228,42.312496168571904 L 59.66273121199508,41.981620806977155 L 59.66273112898714,41.98162077092252 L 58.9194412687489,41.666736622102846 L 58.91944117716642,41.66673658437077 L 58.176155140435945,41.36907960990841 L 58.17615503980652,41.36907957086531 L 57.43286901232363,41.08988573225549 L 57.43286890224852,41.08988569237324 L 56.689582884431026,40.8303833216326 L 56.689582764474714,40.830383281447666 L 55.94629675676875,40.59180071052082 L 55.94629662647687,40.591800670649235 L 55.20301062928356,40.37537386077301 L 55.20301048831267,40.37537382195261 L 54.45972068724129,40.18233491955425 L 54.459720535325964,40.18233488262593 L 53.7164345599899,40.01391603403068 L 53.71643439696159,40.01391599993521 L 52.97314843278999,39.87134553667693 L 52.97314825856991,39.871345506443504 L 52.22986230549811,39.75585938935071 L 52.22986212029942,39.75585936411174 L 51.48657236339509,39.6686821098557 L 51.48657216747942,39.66868209077923 L 50.74328623568901,39.61105347477312 L 50.74328602969433,39.611053463072196 L 50.00000018042597,39.584205633958476 L 49.99999981957403,39.584205633958476 L 49.25671397030477,39.61105346307223 L 49.256713764311876,39.61105347477301 L 48.51342401781328,39.668682090780045 L 48.51342382191766,39.66868210985409 L 47.77013787972425,39.75585554941212 L 47.770137694478365,39.75585557465758 L 47.026851741403185,39.871345506447234 L 47.02685156723659,39.8713455366713 L 46.28356178836779,40.01391218523333 L 46.28356162528662,40.01391221933977 L 45.54027564996744,40.18233488262766 L 45.540275498070784,40.182334919551934 L 44.79698951166937,40.375373821957176 L 44.79698937073402,40.375373860767425 L 44.05369955884034,40.59179685594819 L 44.05369942851965,40.59179689582815 L 43.31041342082802,40.8303794667504 L 43.31041330087171,40.83037950693534 L 42.567127283060906,41.08988187767363 L 42.56712717297275,41.08988191756079 L 41.82383733078172,41.36907957087161 L 41.82383723018627,41.36907960990144 L 41.0805511934434,41.666732769671995 L 41.08055110185229,41.66673280740726 L 40.337265056326174,41.98161314152363 L 40.33726497329731,41.98161317758735 L 39.59397510472201,42.31249235387506 L 39.59397502983564,42.312492387952084 L 38.85068896801818,42.658134444781794 L 38.85068890087047,42.65813447661578 L 38.107402831516424,43.01730726699613 L 38.107402771707186,43.01730729639058 L 37.36411288049013,43.38878248798364 L 37.36411282767603,43.388782514770675 L 36.62082674432728,43.771324145807675 L 36.62082669818073,43.77132416986215 L 35.87754062821605,44.163703897427055 L 35.13425067453529,44.56468961806845 L 34.39096453576495,44.973045333898355 L 33.647674579995844,45.387542713763615 L 32.904388430019445,45.806388853692816 L 32.161102294921875,46.22574996948242 L 31.41781234741211,46.645111083984375 L 30.674524307250977,47.06447219848633 L 29.187952041625977,47.903194427490234 L 28.444664001464844,48.32255554199219 L 27.701377868652344,48.74191665649414 L 26.95808982849121,49.161277770996094 L 25.471517779502154,49.99999987777427 L 25.47151758746636,49.99999999908688 z" />
	<path fill-rule="evenodd" fill="#000000" stroke="#555555" stroke-width="0" opacity="1" d="M 16.599815241652724,20.043958878497374 L 16.469352784711354,20.264366044239686 L 16.46935266488716,20.26436625850803 L 16.34986120230993,20.490924726581202 L 16.349861093131707,20.49092494651085 L 16.241642050161047,20.72306812603708 L 16.24164195194489,20.72306835098416 L 16.14494709837046,20.960245018711923 L 16.14494701127454,20.960245248320494 L 16.06001285808066,21.201892736993116 L 16.060012782415992,21.201892970430865 L 15.987041508394416,21.44740855836884 L 15.987041444211188,21.44740879550357 L 15.92621996934178,21.696210741936873 L 15.92621991691942,21.69621098176274 L 15.877685570130405,21.947698472638525 L 15.877685529560315,21.947698714636715 L 15.841548937007554,22.20126902817701 L 15.841548908340828,22.201269272087874 L 15.817909252056532,22.456304427895983 L 15.817909235405828,22.456304672854806 L 15.80681992108851,22.712186690665995 L 15.806819916484782,22.712186936156087 L 15.808307646991802,22.96831500171386 L 15.808307654446592,22.96831524712645 L 15.822368615086468,23.224056121314685 L 15.822368634574627,23.224056365999694 L 15.848964678415575,23.478790161118315 L 15.848964709884864,23.478790404515276 L 15.888030987119969,23.731916306192254 L 15.888031030540406,23.731916547965266 L 15.939483617929527,23.98281657597218 L 15.93948367309336,23.98281681500792 L 16.003181426960122,24.230886340337626 L 16.00318149388882,24.23088657671855 L 16.07899089993277,24.475532414443776 L 16.07899097834073,24.475532647106807 L 16.16671748726638,24.716153983227073 L 16.166717576932623,24.716154211593555 L 16.266143751141012,24.952182656570645 L 16.266143852017564,24.95218288050149 L 16.377040809870216,25.18304050821732 L 16.377040921573386,25.18304072683206 L 16.49913781987888,25.40817631417838 L 16.4991379421858,25.40817652705577 L 16.632137234853573,25.62704075816206 L 16.63213736738344,25.627040964658836 L 16.775718620106264,25.83912076315911 L 16.775718762735117,25.83912096307302 L 16.92953865305308,26.043889901207038 L 16.929538805291727,26.043890093832765 L 17.093223493330914,26.240856076257696 L 17.093223654761566,26.240856261087558 L 17.266376412319957,26.429551987751534 L 17.266376582746446,26.42955216455554 L 17.448585422934624,26.609516057555386 L 17.448585601699925,26.60951622565364 L 17.63940420537271,26.780321039310643 L 17.63940439228849,26.78032119852949 L 17.838374996169765,26.941547316509894 L 17.838375190614357,26.94154746631278 L 18.045022865423718,27.09281532666168 L 18.04502306697073,27.092815466729196 L 18.258840458411317,27.23375504412941 L 18.258840666607696,27.233755174146584 L 18.479139222390316,27.363923964085462 L 18.47913943654911,27.36392408363803 L 18.705564390373322,27.48313516624945 L 18.70556461010088,27.483135275137144 L 18.937553294582454,27.591094918964075 L 18.937553519343947,27.591095016928886 L 19.174558525810646,27.687551452132997 L 19.174558755376754,27.68755153905544 L 19.41600978724094,27.772256810602077 L 19.416010020518392,27.77225688606841 L 19.66132342975376,27.84502216665255 L 19.661323666542312,27.845022230613168 L 19.909904360830943,27.905666322250475 L 19.909904600412005,27.905666374508723 L 20.161159394908086,27.954048133539978 L 20.161159636846573,27.954048173999205 L 20.41448771733888,27.990047437581513 L 20.414487960851186,27.99004746611337 L 20.669265624831798,28.013582218322636 L 20.669265869715755,28.013582234892638 L 20.924892303021117,28.024583811255514 L 20.924892548164234,28.024583815787874 L 21.180755492624673,28.023038864876085 L 21.180755737660395,28.023038857385636 L 21.436227675965025,28.008953101236436 L 21.43622792048001,28.00895308172794 L 21.69070040905296,27.982353223196885 L 21.69070065218719,27.982353191738156 L 21.943563339947943,27.943309802673546 L 21.9435635815932,27.943309759262142 L 22.19420421038409,27.891899133513103 L 22.194204449153602,27.891899078406745 L 22.44201839010651,27.828269989000553 L 22.442018626076827,27.828269922202022 L 22.686416508738475,27.752563512878996 L 22.68641674129128,27.752563434536718 L 22.92680538104022,27.66495518113524 L 22.926805609195753,27.664955091590475 L 23.162607079930886,27.56567196838072 L 23.16260730358446,27.56567186768384 L 23.3932551231617,27.454942756345194 L 23.3932553416298,27.45494264478745 L 23.61819065754224,27.333034573826097 L 23.618190870223525,27.333034451717403 L 23.83688153277931,27.20023924515242 L 23.836881739121946,27.20023911282438 L 24.04879559842935,27.0568867417322 L 24.04879579822115,27.056886599310783 L 24.25342168534659,26.9033089420356 L 24.25342187781917,26.90330879005847 L 24.45027151211951,26.739879686465752 L 24.45027169681917,26.739879525313423 L 24.638870148781525,26.567001425708202 L 24.638870325555278,26.567001255498738 L 24.818757924653426,26.38507661001423 L 24.81875809269726,26.385076431518584 L 24.989509500656695,26.194553466585994 L 24.98950965980439,26.19455327999756 L 25.150716704334123,25.995880222196288 L 25.15071685413468,25.995880028034712 L 25.301986621837873,25.789541343397417 L 25.301986761898686,25.78954114218092 L 25.4429548797126,25.576040476006508 L 25.44295500053031,25.57604027154509 L 25.442954805718653,25.576040135714976 L 16.599815580025652,20.04395879617111 L 16.599815372658668,20.043958680407012 L 16.599815241652724,20.043958878497374 z" />
	<path fill-rule="evenodd" fill="#000000" stroke="#555555" stroke-width="0" opacity="1" d="M 55.20920563045456,5.823276642506208 L 55.20920561840766,5.823276397340456 L 55.19036866136678,5.567978027563153 L 55.1903686373361,5.567977783573124 L 55.15903855872912,5.313915374550484 L 55.15903852270862,5.3139151317053 L 55.11527254296095,5.061691405135403 L 55.115272495072816,5.0616911644000115 L 55.05918124025207,4.811927915071053 L 55.05918118067055,4.811927677210843 L 54.99090960916628,4.565212368106608 L 54.99090953789456,4.565212133155772 L 54.910606422764026,4.3221436711823475 L 54.91060634012259,4.322143440220819 L 54.818477674781,4.083309288079218 L 54.81847758088493,4.08330906139364 L 54.71474080289161,3.8492814231972625 L 54.71474069801404,3.8492812014468822 L 54.599647577170636,3.6206208372032207 L 54.59964746145814,3.620620620716563 L 54.473472655701855,3.397892105064963 L 54.47347252956189,3.3978918946134353 L 54.33652121435179,3.181621655218404 L 54.336521078001084,3.181621451156829 L 54.189117502296455,2.97232828635689 L 54.18911735614809,2.9723280893006314 L 54.031623915824184,2.7705193533258283 L 54.031623760184985,2.770519163677838 L 53.8644219246708,2.5766831373954706 L 53.8644217598277,2.576682955519879 L 53.68790444249736,2.3912850314697525 L 53.68790426906736,2.39128485803975 L 53.502506345017245,2.2147675407094276 L 53.502506163141646,2.2147673758663196 L 53.30867013685916,2.0475655403520308 L 53.30866994721136,2.0475653847129855 L 53.10686121123662,1.890071944389131 L 53.10686101418009,1.8900717982405617 L 52.897567849406045,1.7426682225541699 L 52.89756764529127,1.7426680861697708 L 52.681297405897894,1.605720585654335 L 52.681297195499525,1.6057204595480312 L 52.45856867979162,1.4795456537598468 L 52.45856846336431,1.479545538077222 L 52.22990809911915,1.364448602539452 L 52.22990787730949,1.3644484976320421 L 51.995880239111706,1.2607117196380957 L 51.99588001249092,1.2607116257670221 L 51.757045860381155,1.1685791457441022 L 51.75704562928765,1.1685790630554744 L 51.51397716734803,1.088279762629714 L 51.51397693246485,1.0882796913803334 L 51.26726162333399,1.0200081198686977 L 51.26726138545806,1.0200080602836503 L 51.01749432142559,0.9639168054606871 L 51.01749408071907,0.9639167575783806 L 50.76527416880601,0.920150777824328 L 50.76527392601274,0.9201507418096002 L 50.51120770236968,0.8888168485180465 L 50.51120745817274,0.8888168244689119 L 50.25591290308832,0.8699874968152046 L 50.25591265813985,0.8699874847806583 L 50.00000393747094,0.8637008697152584 L 50.00000369192359,0.8637008697152584 L 49.744094971251954,0.8699874847807253 L 49.74409472630892,0.8699874968148695 L 49.48879635653183,0.8888168244685077 L 49.48879611232033,0.8888168485191664 L 49.23473370337092,0.9201507418107158 L 49.234733460599244,0.9201507778221493 L 48.9825097339926,0.9639167575761995 L 48.982509493257574,0.9639168054642658 L 48.73274624392844,1.0200080602850428 L 48.73274600606838,1.0200081198665287 L 48.48603069692968,1.0882796913803334 L 48.4860304620465,1.088279762629714 L 48.24296200010688,1.1685790630554744 L 48.24296176901338,1.1685791457441022 L 48.00412761690361,1.2607116257670221 L 48.004127390282825,1.2607117196380957 L 47.77009975208504,1.3644484976320421 L 47.77009953027538,1.364448602539452 L 47.54143916603022,1.479545538077222 L 47.54143894960291,1.4795456537598468 L 47.318710433895006,1.6057204595480312 L 47.31871022349664,1.605720585654335 L 47.10243998410326,1.7426680861697708 L 47.10243977998849,1.7426682225541699 L 46.89314661521444,1.8900717982405617 L 46.89314641815791,1.890071944389131 L 46.691337682183175,2.0475653847129855 L 46.69133749253537,2.0475655403520308 L 46.497501466252885,2.2147673758663196 L 46.497501284377286,2.2147675407094276 L 46.31210336032717,2.39128485803975 L 46.31210318689717,2.3912850314697525 L 46.13558586956683,2.576682955519879 L 46.13558570472373,2.5766831373954706 L 45.968383869209546,2.770519163677838 L 45.96838371357035,2.7705193533258283 L 45.81089027324644,2.9723280893006314 L 45.81089012709808,2.97232828635689 L 45.66348655139345,3.181621451156829 L 45.66348641504274,3.181621655218404 L 45.52653509983264,3.3978918946134353 L 45.52653497369268,3.397892105064963 L 45.40036016793639,3.620620620716563 L 45.400360052223895,3.6206208372032207 L 45.28526693138049,3.8492812014468822 L 45.28526682650292,3.8492814231972625 L 45.1815300485096,4.08330906139364 L 45.18152995461353,4.083309288079218 L 45.08940128927194,4.322143440220819 L 45.089401206630505,4.3221436711823475 L 45.00909809149997,4.565212133155772 L 45.00909802022825,4.565212368106608 L 44.94082644872398,4.811927677210843 L 44.94082638914246,4.811927915071053 L 44.884735134321716,5.0616911644000115 L 44.88473508643358,5.061691405135403 L 44.84096910668591,5.3139151317053 L 44.84096907066541,5.313915374550484 L 44.80963899205843,5.567977783573124 L 44.80963896802775,5.567978027563153 L 44.79080201098687,5.823276397340456 L 44.79080199893997,5.823276642506208 L 44.78451919856903,6.079185363140337 L 44.78451919856903,6.07918560853935 L 44.79080199893997,6.335094329173479 L 44.79080201098687,6.335094574339231 L 44.80963896802775,6.590392944116535 L 44.80963899205843,6.590393188106564 L 44.840969070663846,6.844455597116576 L 44.840969106688696,6.84445583998681 L 44.884735086437956,7.0966719371786136 L 44.88473513431454,7.096672177856835 L 44.940826389139666,7.34644305659255 L 44.94082644872834,7.346443294484576 L 45.00909802022825,7.593158603573079 L 45.00909809149997,7.593158838523916 L 45.089401206630505,7.83622730049734 L 45.08940128927194,7.836227531458868 L 45.181529954613474,8.075061683600314 L 45.181530048509664,8.075061910286193 L 45.28526682650297,8.309089548482534 L 45.28526693138044,8.309089770232706 L 45.40036005222384,8.53775013447635 L 45.40036016793645,8.53775035096323 L 45.526534973692684,8.76047886661474 L 45.526535099832635,8.760479077066236 L 45.66348641504266,8.976749316461168 L 45.663486551393525,8.976749520522967 L 45.810890127098,9.18604268532269 L 45.81089027324652,9.186042882379157 L 45.96838371357043,9.387851618353961 L 45.96838386920947,9.387851808001765 L 46.13558570472372,9.581687834284198 L 46.13558586956685,9.581688016159825 L 46.312103186897076,9.76708594020984 L 46.31210336032727,9.767086113640032 L 46.4975012843773,9.943603430970276 L 46.49750146625285,9.94360359581334 L 46.69133749253535,10.11080543132764 L 46.69133768218319,10.110805586966714 L 46.893146418191776,10.268299027316987 L 46.89314661517811,10.268299173416114 L 47.10243215052748,10.415702749076116 L 47.10243235477977,10.415702885552582 L 47.31871022352917,10.552650386048269 L 47.318710433860396,10.55265051211205 L 47.54143894963174,10.67882531793617 L 47.54143916599991,10.678825433589036 L 47.77009953021592,10.793926183805745 L 47.77009975214728,10.793926288770672 L 48.00412739031329,10.897659252056926 L 48.00412761687185,10.897659345900413 L 48.24296176901333,10.989791825935567 L 48.24296200010691,10.989791908624223 L 48.48603046204647,11.070091209049963 L 48.48603069692973,11.070091280299367 L 48.73274600606837,11.138362851813154 L 48.73274624392845,11.13836291139465 L 48.98250949325755,11.194454166215417 L 48.9825097339926,11.194454214103487 L 49.234733460599266,11.238220193857542 L 49.23473370337089,11.238220229868968 L 49.48879611232032,11.26955412316052 L 49.488796356531864,11.269554147211183 L 49.74409472630893,11.288383474864819 L 49.74409497125193,11.288383486898962 L 50.00000369192362,11.29467010196443 L 50.000003937470915,11.29467010196443 L 50.255912658139806,11.288383486899031 L 50.25591290308839,11.288383474864478 L 50.5112074581727,11.269554147210778 L 50.511207702369724,11.269554123161637 L 50.765273926012725,11.23822022987009 L 50.765274168805995,11.238220193855362 L 51.01749408071904,11.194454214101311 L 51.01749432142562,11.194454166218993 L 51.26726138545804,11.138362911396042 L 51.26726162333401,11.138362851810983 L 51.5139769324648,11.070091280299367 L 51.51397716734806,11.070091209049963 L 51.757045629287624,10.989791908624223 L 51.757045860381204,10.989791825935567 L 51.99588001252268,10.897659345900413 L 51.99588023908124,10.897659252056926 L 52.22990787724725,10.793926288770672 L 52.22990809917861,10.793926183805745 L 52.45856846339462,10.678825433589036 L 52.45856867976279,10.67882531793617 L 52.68129719549959,10.55265051213162 L 52.68129740589782,10.552650386025396 L 52.89756764529122,10.415702885509948 L 52.8975678494061,10.415702749125476 L 53.106861014180076,10.268299173439134 L 53.10686121123661,10.268299027290563 L 53.308669947189145,10.110805586984036 L 53.3086701368796,10.110805431308204 L 53.50250616320481,9.94359978106345 L 53.502506344959556,9.943599616331575 L 53.68790426900769,9.767089928390357 L 53.687904442551485,9.767089754848524 L 53.864421759846294,9.581688016142103 L 53.86442192465407,9.581687834303615 L 54.03162376018506,9.387851808001765 L 54.0316239158241,9.387851618353961 L 54.18911735614801,9.186042882379157 L 54.18911750229653,9.18604268532269 L 54.336521078001006,8.976749520522967 L 54.33652121435187,8.976749316461168 L 54.4734725295422,8.760479077097344 L 54.473472655718375,8.760478866581897 L 54.59964746149431,8.537742721508415 L 54.59964757714061,8.537742505145253 L 54.714740697997584,8.309089770261844 L 54.71474080290511,8.309089548451972 L 54.81847758088487,8.075061910286193 L 54.81847767478106,8.075061683600314 L 54.91060634012259,7.836227531458868 L 54.910606422764026,7.83622730049734 L 54.99090953789456,7.593158838523916 L 54.99090960916628,7.593158603573079 L 55.059181180666194,7.346443294484576 L 55.059181240254865,7.34644305659255 L 55.11527249507999,7.096672177856835 L 55.115272542956575,7.0966719371786136 L 55.159038522705835,6.84445583998681 L 55.159038558730686,6.844455597116576 L 55.1903686373361,6.590393188106564 L 55.19036866136678,6.590392944116535 L 55.20920561840766,6.335094574339231 L 55.20920563045456,6.335094329173479 L 55.2154884308255,6.07918560853935 L 55.2154884308255,6.079185363140337 L 55.20920563045456,5.823276642506208 z" />
	<path fill-rule="evenodd" fill="#000000" stroke="#555555" stroke-width="0" opacity="1" d="M 74.73834230190843,25.846675875362617 L 74.73834243525644,25.846676071882403 L 74.89245598081122,26.05107869840373 L 74.89245613328211,26.051078890627096 L 75.05641166454384,26.24767294039688 L 75.0564118263163,26.247673124966933 L 75.22982016835714,26.435985474934938 L 75.22982033889953,26.43598565125086 L 75.41225424606503,26.615562352903087 L 75.4122544250433,26.615562520634473 L 75.60327902212879,26.785976328159038 L 75.60327920931383,26.785976487066943 L 75.80243673315286,26.94680206219512 L 75.80243692774043,26.94680221159345 L 76.00924672703928,27.09766571442798 L 76.00924692873285,27.097665854107774 L 76.22320546382603,27.23819916663154 L 76.22320567216913,27.238199296271357 L 76.44380940350486,27.36806863280014 L 76.44380961797808,27.36806875207085 L 76.67051685912978,27.486953678379 L 76.67051707908071,27.486953786926787 L 76.90278614343785,27.594577737667617 L 76.90278636872924,27.594577835410437 L 77.14005268173732,27.690662337999704 L 77.14005291120348,27.69066242443751 L 77.38175189827709,27.774999578094654 L 77.38175213188788,27.774999653230577 L 77.62729633002176,27.847373927700737 L 77.62729656704721,27.847373991284602 L 77.87609088413512,27.90760991069547 L 77.87609112397419,27.907609962566983 L 78.12754809720383,27.95556638325566 L 78.1275483393262,27.955566423299686 L 78.38105761772995,27.991125089765326 L 78.38105786147564,27.99112511787444 L 78.63600146471111,28.014202106858352 L 78.63600170951256,28.014202122973032 L 78.8917692865869,28.0247440287606 L 78.8917695318728,28.024744032846282 L 79.14775836114829,28.022726059927514 L 79.14775860642973,28.022726051970228 L 79.40333544876894,28.0081482003478 L 79.40333569331874,28.008148180367844 L 79.65788256835683,27.981048596980504 L 79.65788281171753,27.981048565012227 L 79.91078936850155,27.941488284956588 L 79.91078960991405,27.941488241099776 L 80.16146075631566,27.889564539047704 L 80.16146099524842,27.88956448340833 L 80.40927875082873,27.82540705895436 L 80.409278986777,27.82540699165027 L 80.65364825924685,27.749168432565877 L 80.65364849174613,27.74916835371574 L 80.89398181844598,27.661024135859318 L 80.89398204653212,27.661024045800833 L 81.129707223365,27.561199236111356 L 81.12970744699976,27.561199134861095 L 81.36024464049352,27.449924522321577 L 81.36024485871093,27.44992441031171 L 81.58505238248314,27.327472745459204 L 81.58505259497663,27.32747262286061 L 81.80357350357319,27.194145266594315 L 81.8035737099572,27.19414513360969 L 82.0152892051448,27.050247261367055 L 82.01528940462943,27.05024711850168 L 82.21968831758875,26.896135404043466 L 82.21968850972675,26.896135251642814 L 82.41629018889581,26.732179720371004 L 82.4162903735354,26.73217955854086 L 82.60459890874218,26.558775031255905 L 82.60459908511649,26.558774860654488 L 82.78417197210129,26.376339046115575 L 82.78417213972335,26.376338867254 L 82.95458976197067,26.185316177482633 L 82.95458992092821,26.185315990242405 L 83.11541740339392,25.986156559068057 L 83.1154175527694,25.986156364512226 L 83.26628105558247,25.779350379936396 L 83.26628119532197,25.77935017815587 L 83.4068145078275,25.56538592105003 L 83.40681463744963,25.565385712731043 L 83.53668206663019,25.344781981397695 L 83.53668218591515,25.34478176689392 L 83.65556329752793,25.118074525745538 L 83.65556340606035,25.11807430582011 L 83.7631835421456,24.88580905607451 L 83.76318363982647,24.885808830931325 L 83.8592757718049,24.648540610571615 L 83.8592758583008,24.648540380957414 L 83.94361110458631,24.406841393954984 L 83.9436111797179,24.406841160352805 L 84.01598354685463,24.16129886952036 L 84.01598361041614,24.161298632582024 L 84.07622525186156,23.912494778784286 L 84.07622530376628,23.91249453878805 L 84.12417600242532,23.66104138019559 L 84.1241760424251,23.661041138354793 L 84.15974424562334,23.407533767307907 L 84.15974427376915,23.40753352326007 L 84.18281554070569,23.15258801275482 L 84.18281555680869,23.152587768100222 L 84.19335936994712,22.896814468886923 L 84.19335937403473,22.896814223639673 L 84.19134521581053,22.640840653261 L 84.19134520784233,22.640840407726003 L 84.1767578194877,22.385259750725066 L 84.17675779951809,22.385259506356586 L 84.14965821611825,22.1307126312011 L 84.14965818415835,22.130712387894047 L 84.11009981145209,21.877800109086053 L 84.11009976757806,21.877799867577405 L 84.05817415818125,21.627130628532537 L 84.05817410255986,21.62713038967786 L 83.99401858546679,21.379312634152004 L 83.9940185181073,21.37931239802021 L 83.91777042227217,21.134939310803205 L 83.91777034351523,21.13493907858019 L 83.82963566235796,20.894611473825634 L 83.82963557227733,20.89461124567009 L 83.72981266996021,20.658882254203927 L 83.72981256868512,20.658882030510576 L 83.61853795614654,20.428344837018756 L 83.61853784416513,20.428344618853593 L 83.49609380873625,20.20354472453544 L 83.49609368604023,20.20354451187665 L 83.36275488570884,19.985017881265474 L 83.36275475278107,19.985017674976643 L 83.21885695167437,19.77330419179651 L 83.21885680855338,19.77330400227939 L 83.218856608822,19.773304130761574 L 74.73834248786056,25.846675727634814 L 74.73834230190843,25.846675875362617 z" />
	<path fill-rule="evenodd" fill="#000000" stroke="#555555" stroke-width="0" opacity="1" d="M 21.559122049456445,40.95267116832936 L 21.559122115886186,40.95267093209047 L 21.622348755099296,40.704612850814364 L 21.622348809833852,40.704612611709635 L 21.673332189904823,40.453750730660076 L 21.673332232871296,40.45375048898792 L 21.711940746874184,40.20068752975094 L 21.711940777914,40.20068728638174 L 21.738086687907064,39.94604122923598 L 21.738086706968843,39.94604098465158 L 21.751708977841076,39.69041455132215 L 21.751708984881837,39.69041430592684 L 21.75276565501115,39.434429291386365 L 21.752765650005397,39.434429046138796 L 21.74126434877606,39.17869961601858 L 21.741264331737344,39.178699371216176 L 21.717227947309947,38.923843505923365 L 21.717227918295453,38.9238432623667 L 21.680719393118945,38.67046749822179 L 21.680719352158423,38.670467256202045 L 21.63181879480265,38.4191933882697 L 21.631818742040966,38.419193148669926 L 21.57065013004317,38.17062389850539 L 21.570650065557004,38.170623661671954 L 21.49735263522705,37.925350306761594 L 21.497352559244163,37.9253500735211 L 21.412113230554983,37.68397152072914 L 21.412113143212636,37.68397129147314 L 21.31513409498297,37.447063559690065 L 21.315133996417313,37.44706333482088 L 21.20664029550808,37.21520244262426 L 21.206640186168244,37.21520222314404 L 21.086906490534552,36.988937486455335 L 21.086906370417914,36.988937272354114 L 20.9562130600886,36.76882945121895 L 20.95621292968294,36.76882924338837 L 20.814876624143704,36.55539713599656 L 20.814876483711824,36.55539693483303 L 20.663236690741087,36.34915171020614 L 20.66323654057866,36.349151516136494 L 20.501663285480053,36.15060052855218 L 20.501663125956895,36.15060034206364 L 20.330539785425078,35.960216613508344 L 20.330539616931752,35.96021643506237 L 20.150276270463394,35.77845772869949 L 20.15027609353284,35.77845755884507 L 19.961315245634307,35.6057587497997 L 19.961315060469634,35.60575858873099 L 19.76410875237459,35.442543108028154 L 19.764108559574144,35.442542956274835 L 19.55913172058877,35.289199902620524 L 19.559131520550867,35.28919976049347 L 19.346876246173395,35.14609915918469 L 19.346876039400925,35.14609902704393 L 19.127857313215124,35.01358801516512 L 19.12785710030022,35.013587893380006 L 18.902595628071534,34.89197546116632 L 18.90259540923392,34.89197534987291 L 18.67163859947184,34.78157048748962 L 18.671638375604445,34.7815703871456 L 18.435543173479665,34.68262867902148 L 18.435542944935026,34.682628589772065 L 18.194879647231858,34.59539036164533 L 18.194879414575897,34.59539028371419 L 17.950225947421323,34.52006534374531 L 17.950225711102778,34.5200652772929 L 17.702167629849907,34.45684054543252 L 17.70216739077997,34.45684049070684 L 17.451305509712967,34.40585711063232 L 17.451305268040564,34.4058570676658 L 17.198242308803792,34.36724855366295 L 17.198242065434265,34.36724852262309 L 16.943596008288946,34.341102612630074 L 16.943595763704163,34.34110259356826 L 16.687969330374983,34.32748032269603 L 16.687969084979404,34.32748031565527 L 16.43198407043915,34.326423645525956 L 16.431983825191555,34.32642365053171 L 16.17625439506793,34.3379249517612 L 16.176254150272204,34.337924968799285 L 15.921394470306055,34.36196135322477 L 15.921394226695403,34.36196138224669 L 15.668022277250577,34.39847181476907 L 15.668022035278389,34.398471855722725 L 15.416748167286803,34.44737241309002 L 15.416747927757392,34.4473724658344 L 15.168178677611031,34.508537263134116 L 15.168178440673193,34.50853732764777 L 14.92290508579701,34.58183666531432 L 14.92290485259055,34.58183674128705 L 14.681526299765679,34.66707606998784 L 14.68152607054159,34.667076157317126 L 14.444618338790244,34.764053298187 L 14.444618113828184,34.76405339679425 L 14.212757221600796,34.87255091241149 L 14.212757002269283,34.87255102167639 L 13.986492265595425,34.99227899526181 L 13.986492051324205,34.99227911547375 L 13.766384230215682,35.12297814782765 L 13.766384022493769,35.12297827816701 L 13.552951915050075,35.2643126763938 L 13.552951713884953,35.26431281682497 L 13.346706489283163,35.41595070243044 L 13.34670629516674,35.41595085262903 L 13.148155307593232,35.57752601506565 L 13.148155121127157,35.57752617457052 L 12.957771392541597,35.74864951512954 L 12.95777121413274,35.74864968358606 L 12.776008693094045,35.92891303003677 L 12.776008523165292,35.928913207044836 L 12.60331352882493,36.117874054930894 L 12.603313367808338,36.11787424003683 L 12.440097887077032,36.31507864081946 L 12.440097735330854,36.31507883360841 L 12.286750867012639,36.52005757990088 L 12.286750724817141,36.52005778003703 L 12.143653938207171,36.7323149617536 L 12.143653806122716,36.73231516844085 L 12.011142794223183,36.95133198731409 L 12.01114267242823,36.95133220024524 L 11.88953024021902,37.17659367246563 L 11.889530128925673,37.17659389130313 L 11.779125266542357,37.407550701065254 L 11.779125166198316,37.407550924932714 L 11.680183458071806,37.64364612706317 L 11.680183368826626,37.64364635559613 L 11.59294514071458,37.88430774591196 L 11.592945062754824,37.884307978658725 L 11.51762393747068,38.128963353188915 L 11.517623871060257,38.12896358935906 L 11.454395324495874,38.3770216706527 L 11.454395269752395,38.37702190979245 L 11.403411889682793,38.62788379083525 L 11.403411846719687,38.62788403248534 L 11.364803332719058,38.880939362320305 L 11.364803301674288,38.880939605726944 L 11.338657391681638,39.135593292255884 L 11.338657372621407,39.13559353682519 L 11.32503510174876,39.39121997016232 L 11.325035094708008,39.391220215557475 L 11.323978424578693,39.64720523009801 L 11.323978429584447,39.64720547534558 L 11.335479730813782,39.90293490546573 L 11.335479747852506,39.90293515026827 L 11.359516132278166,40.157791015542664 L 11.35951616129791,40.15779125913575 L 11.396026593826504,40.41116702331732 L 11.396026634767756,40.41116726522854 L 11.444923377433335,40.66244113317844 L 11.444923430208998,40.66244137285002 L 11.506092042193755,40.91101062296157 L 11.506092106690184,40.91101085982937 L 11.579391444367015,41.15628421473997 L 11.579391520339792,41.15628444794659 L 11.664630849035888,41.39766300075815 L 11.664630936375866,41.39766323000836 L 11.761608077263181,41.634567147108704 L 11.761608175817821,41.63456737195507 L 11.870101876720184,41.86643207883062 L 11.870101986088772,41.86643229836848 L 11.989837589054746,42.092697035029744 L 11.989837709172402,42.092697249129515 L 12.120532926865307,42.31280507029295 L 12.120533057237514,42.31280527807017 L 12.261867455462996,42.52623738551189 L 12.261867595858826,42.52623758662897 L 12.413501666752264,42.73248281120569 L 12.413501817022778,42.732483005415155 L 12.575080794135339,42.93103399296696 L 12.575080953604122,42.93103417938866 L 12.746204294217462,43.12141790803465 L 12.74620446259985,43.12141808636878 L 12.9264639943199,43.303184422063715 L 12.92646417147984,43.30318459213827 L 13.115428834020745,43.4758757717496 L 13.115429019048975,43.47587593269518 L 13.312633419849197,43.639091413441044 L 13.312633612685955,43.639091565222984 L 13.51761235900117,43.79243461886461 L 13.517612559038742,43.79243476099013 L 13.729869740781531,43.93553536231139 L 13.729869947520045,43.935535494430404 L 13.948886766366865,44.06804650631395 L 13.948886979297962,44.068046628108874 L 14.174148451518311,44.18965906031806 L 14.174148670355903,44.18965917161146 L 14.405105480117973,44.300064033994744 L 14.405105703985443,44.30006413433879 L 14.641200906115992,44.39900584246534 L 14.641201134648798,44.39900593171046 L 14.881862524964763,44.486244159822554 L 14.881862757711437,44.48624423778228 L 15.126518132241758,44.561565363066464 L 15.126518368411588,44.5615654294768 L 15.374576449712757,44.6247939760431 L 15.374576688837681,44.62479403078356 L 15.625434755167259,44.67577741084918 L 15.625434996864724,44.67577745382024 L 15.878501770791528,44.714385967822544 L 15.878502014150017,44.71438599886071 L 16.133148071300898,44.7405319088543 L 16.13314831588568,44.740531927916116 L 16.38877474921486,44.75415419878834 L 16.38877499461044,44.7541542058291 L 16.644760009150694,44.75521087595842 L 16.64476025439829,44.755210870952666 L 16.900489684592504,44.74370956972 L 16.90048992924756,44.74370955269519 L 17.15534579444779,44.719680797663734 L 17.155346038334347,44.71968076860905 L 17.408721802407324,44.68316270670889 L 17.40872204424444,44.683162665774695 L 17.65999591230304,44.63426210839435 L 17.659996151832452,44.63426205564998 L 17.90856540197883,44.57309725835025 L 17.90856563891663,44.5730971938366 L 18.15383899379283,44.499797856170055 L 18.153839226999295,44.499797780197326 L 18.395217779759072,44.41455845151952 L 18.39521800911097,44.41455836413792 L 18.632125740982087,44.317573593831796 L 18.63212596558688,44.31757349538426 L 18.86398495043301,44.209091238557576 L 18.86398517016953,44.20909112909247 L 19.090249906772062,44.08935171146397 L 19.090250120797382,44.089351591386766 L 19.31035984933729,43.95865637367625 L 19.31036005713078,43.958656243294385 L 19.523792164548972,43.81732184508448 L 19.52379236569625,43.81732170466643 L 19.73003949763679,43.66568381906688 L 19.730039691789006,43.66568366884054 L 19.92858877199407,43.50410850642153 L 19.928588958464957,43.504108346910805 L 20.118974594408844,43.33298119164782 L 20.118974772794722,43.33298102321199 L 20.30073347914703,43.15272149144773 L 20.300733649076072,43.152721314439376 L 20.473428643410056,42.963760466560295 L 20.47342880443841,42.96376028144014 L 20.636646192523862,42.766552065955025 L 20.636646344249247,42.76655187319233 L 20.789991305223825,42.56157694158923 L 20.789991447428225,42.56157674144118 L 20.93308823403913,42.34931955972323 L 20.933088366114173,42.34931935305155 L 21.06560510005161,42.130294904795235 L 21.065605221869223,42.13029469182402 L 21.1872119320293,41.905040849007 L 21.187212043309632,41.905040630193604 L 21.297616905706228,41.6740838204037 L 21.297617006037093,41.67408359656769 L 21.39656062151061,41.43798839443675 L 21.396560710769062,41.43798816587212 L 21.483798938881353,41.19732677555562 L 21.483799016830595,41.197326542842994 L 21.559122049456445,40.95267116832936 z" />
	<path fill-rule="evenodd" fill="#000000" stroke="#555555" stroke-width="0" opacity="1" d="M 29.625871751189294,8.582240978073912 L 29.625871569512793,8.582241143086208 L 29.489217846912428,8.712623511529882 L 29.489217673703106,8.712623685102146 L 29.359123314572678,8.849548250810285 L 29.35912314986207,8.849548432923516 L 29.235906680986144,8.992698576451883 L 29.23590652557534,8.99269876622911 L 29.11986358551844,9.141715906609873 L 29.11986343958515,9.14171610380776 L 29.011268686335487,9.296249289164525 L 29.01126855012907,9.296249493478488 L 28.91039282674338,9.455928698787883 L 28.910392700882248,9.455928909280747 L 28.81747061091453,9.620361221282819 L 28.8174704954748,9.620361437800991 L 28.73272710583772,9.78915775776728 L 28.73272700117137,9.789157979665093 L 28.65636639789341,9.961910135530989 L 28.656366304209694,9.961910362374741 L 28.588577314554176,10.138198737994472 L 28.58857723213479,10.1381989691069 L 28.529520073172073,10.317600133648936 L 28.52952000217651,10.317600368582527 L 28.479337724858116,10.499687076544447 L 28.47933766550466,10.499687314560633 L 28.438148525294707,10.68401324694729 L 28.438148477682848,10.684013487619808 L 28.406051656609414,10.870139954676489 L 28.406051620840977,10.870140197569238 L 28.383131042106555,11.057620880445246 L 28.38313101832559,11.05762112453274 L 28.369432458243896,11.245998260136805 L 28.36943244645738,11.245998505289354 L 28.36499595930402,11.434818145114725 L 28.364995959563046,11.434818390523413 L 28.36983108206489,11.623630401057085 L 28.369831094355458,11.623630646004628 L 28.383920660397013,11.811981078738308 L 28.383920684713303,11.811981323008283 L 28.407237991441228,11.999404785446963 L 28.407238027699258,11.999405028116106 L 28.439723947394004,12.185462830745452 L 28.439723995526215,12.185463071393094 L 28.48130223433899,12.369705080492546 L 28.481302294206532,12.369705318428553 L 28.531869855458496,12.551685215043285 L 28.53186992691177,12.5516854497071 L 28.591302833090737,12.730964544167492 L 28.591302915985565,12.730964775086845 L 28.659460023436242,12.907112007058778 L 28.659460117631077,12.90711223379154 L 28.73618311667758,13.079700357886553 L 28.73618322176711,13.079700579476425 L 28.82127756310549,13.248317608921846 L 28.82127767902233,13.24831782524374 L 28.91454690593427,13.412559402531825 L 28.91454703233726,13.412559612919027 L 29.015762263357658,13.572021380797315 L 29.015762399846828,13.57202158460324 L 29.12467949464617,13.726329703184362 L 29.12467964104946,13.72632990015459 L 29.241035385818744,13.875102900154662 L 29.241035541685264,13.87510308967132 L 29.364553371275868,14.017990019456374 L 29.36455353625969,14.017990201102679 L 29.494933997333092,14.15464392367776 L 29.494934170982322,14.154644096962684 L 29.631860644049304,14.28473654875901 L 29.631860826056744,14.284736713373931 L 29.775009062242336,14.40795508959892 L 29.77500925212251,14.407955245094316 L 29.924030207154264,14.523998185119043 L 29.92403040433696,14.523998331037939 L 30.078563589763867,14.632591176990735 L 30.07856379394918,14.632591313113481 L 30.238241091919924,14.733470851196222 L 30.238241302529126,14.73347097712942 L 30.402675521791235,14.826393067048471 L 30.402675738368252,14.826393182516375 L 30.571472058364368,14.911132757476118 L 30.57147228013936,14.911132862083344 L 30.744224436034198,14.987495372720247 L 30.744224662947186,14.987495466433012 L 30.92051113121861,15.05528254874155 L 30.92051136225844,15.055282631135542 L 31.09991252681506,15.11434169744921 L 31.0999127617941,15.114341768459736 L 31.281999469751344,15.164524045776846 L 31.281999707730233,15.164524105121968 L 31.466327547470154,15.205715152679664 L 31.46632778817143,15.205715200298384 L 31.652452347839137,15.237812021364432 L 31.652452590783906,15.237812057139655 L 31.839931366303166,15.260730728526624 L 31.83993161035433,15.260730752302786 L 32.02831256067762,15.274429312386436 L 32.028312805822736,15.274429324172415 L 32.21713244567705,15.278865811326453 L 32.21713269103536,15.278865811068721 L 32.405944701539916,15.274032595913773 L 32.40594494659576,15.274032583617593 L 32.594291564588325,15.259941110233534 L 32.59429180883795,15.259941085916916 L 32.78171908599424,15.23662187183969 L 32.78171932864316,15.236621835583312 L 32.967773316629106,15.204135915880029 L 32.96777355719005,15.204135867766512 L 33.152019380994346,15.16255953629706 L 33.152019619000164,15.162559476413762 L 33.333999515565075,15.111991915175642 L 33.33399975025898,15.111991843712392 L 33.5132750300228,15.05255893753484 L 33.513275260911755,15.052558854650098 L 33.689422492896256,14.984401747194557 L 33.68942271963367,14.984401652997652 L 33.862014658426105,14.907676746602723 L 33.86201488001117,14.907676641515332 L 34.03063190947593,14.822582300167195 L 34.03063212576481,14.8225821842691 L 34.19486988834116,14.729316772060498 L 34.194870098787625,14.729316645622095 L 34.354335681323384,14.628097599931506 L 34.35433588515062,14.628097463425426 L 34.50864018907415,14.519180368601578 L 34.508640385948006,14.51918022227004 L 34.65741720068134,14.402824477468727 L 34.657417390218164,14.40282432158881 L 34.80030431996463,14.279308399377717 L 34.80030450166612,14.27930823434383 L 34.93695822424145,14.148925865924035 L 34.93695839747578,14.14892569232544 L 35.06705084926846,14.012001126608448 L 35.06705101393585,14.012000944542676 L 35.19026557547969,13.868854615690267 L 35.19026573089787,13.868854425905795 L 35.306312485630094,13.71983347085453 L 35.30631263159796,13.719833273608945 L 35.41490547749556,13.56530008826059 L 35.41490561367828,13.56529988398034 L 35.515781337075,13.405620678653493 L 35.51578146293606,13.405620468160745 L 35.60870355290391,13.241188156158445 L 35.608703668343516,13.241187939640504 L 35.693447057970246,13.072391619694828 L 35.69344716265533,13.072391397754636 L 35.76980585859622,12.899639241868186 L 35.76980595224433,12.899639015110713 L 35.83759684926329,12.723350639446023 L 35.83759693168452,12.72335040833538 L 35.896655997986315,12.543949243814843 L 35.896656068996855,12.54394900883576 L 35.946838346302364,12.361862300920588 L 35.94683840566649,12.361862062856622 L 35.988025638530246,12.17753613047016 L 35.98802568613129,12.177535889846093 L 36.02012250721322,11.991409422740107 L 36.02012254297555,11.991409179897305 L 36.04304502905616,11.80392849702098 L 36.04304505284324,11.803928252883434 L 36.05674361291944,11.615551117354897 L 36.05674362470832,11.615550872101693 L 36.06117629716996,11.426731232251027 L 36.061176296909856,11.426730986993537 L 36.05634308175234,11.23791897638849 L 36.056343069463644,11.237918731432588 L 36.04225541077194,11.049572113440732 L 36.04225538644779,11.049571869090489 L 36.01893617237572,10.862144591975607 L 36.01893613612234,10.862144349343883 L 35.986450216418206,10.676086546660748 L 35.9864501683017,10.6760863060827 L 35.94487383683714,10.491840482300052 L 35.94487377694665,10.491840244268374 L 35.894306215718366,10.309864162431158 L 35.89430614424213,10.309863927702287 L 35.83486942336612,10.130584833227624 L 35.83486934050151,10.130584602399411 L 35.76671223302519,9.954437370361182 L 35.76671213884897,9.954437143670301 L 35.689991047149135,9.781849019576443 L 35.689990942040886,9.781848797944447 L 35.60489660071284,9.613231768519508 L 35.60489648479603,9.613231552197659 L 35.51162725788415,9.44898997490969 L 35.511627131481035,9.448989764522274 L 35.410411900460765,9.289527996644193 L 35.41041176397146,9.289527792838069 L 35.301494669172264,9.135219674257147 L 35.301494522768856,9.13521947728676 L 35.18513877798774,8.986446477271558 L 35.18513862214637,8.986446287784009 L 35.06162269991475,8.843559358013797 L 35.06162253488099,8.84355917631245 L 34.93124016648531,8.706905453762394 L 34.93123999283606,8.706905280479926 L 34.794311612396484,8.576812828658474 L 34.794311430439144,8.57681266408893 L 34.65116510158805,8.453594287853905 L 34.65116491168275,8.453594132336889 L 34.502143956664185,8.337551192322431 L 34.50214375948134,8.337551046403428 L 34.34761057404349,8.228958200442944 L 34.347610369880925,8.228958064334561 L 34.18793497926863,8.128078526259591 L 34.18793476861494,8.12807840029973 L 34.023498641957545,8.035156310352916 L 34.02349842552337,8.035156194958091 L 33.85470592026984,7.950412805331281 L 33.854705698252054,7.950412700609467 L 33.68194972773285,7.874054004694903 L 33.6819495009247,7.8740539110294545 L 33.50566112522815,7.806266828690552 L 33.50566089423504,7.806266746312869 L 33.326263544379465,7.7472076800020755 L 33.32626330934453,7.747207608974539 L 33.14417278670033,7.697025331658905 L 33.14417254875799,7.6970252723232955 L 32.95984661640633,7.655834224775008 L 32.95984637558775,7.65583417713551 L 32.77371990847598,7.6237411707448866 L 32.7737196658426,7.623741135013077 L 32.58624279766352,7.600814834240761 L 32.58624255331421,7.600814810432761 L 32.397865417791614,7.587120065049299 L 32.39786517273959,7.587120053270088 L 32.20904553283858,7.582683566114953 L 32.20904528748024,7.582683566372686 L 32.02023327697194,7.587516781527729 L 32.02023303192362,7.587516793823347 L 31.83188259923379,7.601608267207777 L 31.831882354976674,7.601608291524955 L 31.644455077811212,7.624927505603323 L 31.644454835187876,7.62492754185523 L 31.45839512517276,7.657413461556892 L 31.45839488455361,7.657413509682233 L 31.27415478281408,7.698989841145749 L 31.27415454482794,7.698989901025282 L 31.09217655557999,7.749557462271512 L 31.092176320929234,7.7495575337211555 L 30.9128972264623,7.808990439902291 L 30.9128969955431,7.808990522797064 L 30.736749763549668,7.8771476302560615 L 30.736749536858877,7.877147724432231 L 30.564161412795706,7.953868816118427 L 30.564161191103526,7.953868921257052 L 30.39554225430042,8.03896707729356 L 30.39554203809347,8.038967193148933 L 30.23130236816328,8.1322326053619 L 30.23130215764941,8.132232731841633 L 30.071840389772873,8.233451777553228 L 30.071840186082543,8.233451913965924 L 29.917533974823822,8.342365194089723 L 29.91753377779634,8.342365340534464 L 29.768756963117415,8.458724899985535 L 29.768756773618414,8.45872505583792 L 29.625871751189294,8.582240978073912 z" />
	<path fill-rule="evenodd" fill="#000000" stroke="#555555" stroke-width="0" opacity="1" d="M 64.90064231099714,14.283000856478752 L 64.90064248333836,14.283001031377465 L 65.03647604704227,14.414241705542514 L 65.03647622753924,14.414241871571935 L 65.17858114542204,14.538661875911714 L 65.17858133402243,14.538662033030748 L 65.32662191310745,14.655956192114093 L 65.32662210906939,14.655956339697498 L 65.48023213895067,14.765842366338008 L 65.480232341972,14.76584250416613 L 65.63905324150622,14.86806099924033 L 65.63905345108294,14.868061126961381 L 65.8027037511064,14.962364135513361 L 65.80270396661494,14.962364252751804 L 65.9707793097238,15.048522893229709 L 65.97077953078276,15.048522999780598 L 66.14288318897546,15.126331278798164 L 66.14288341493217,15.126331374347366 L 66.31859577205213,15.195602371979719 L 66.31859600248005,15.195602456347697 L 66.497497442325,15.256168326116518 L 66.49749767665425,15.256168399086835 L 66.67915332434215,15.307880368008657 L 66.67915356193012,15.307880429381266 L 66.86312854260923,15.350616427319146 L 66.86312878282726,15.350616476942136 L 67.04898059215557,15.38427732188288 L 67.04898083455308,15.384277359667827 L 67.2362517092795,15.408779128354533 L 67.23625195346527,15.40877915422094 L 67.42451464826124,15.424056996915418 L 67.4245148930938,15.42405701074989 L 67.61328875668704,15.430084224597794 L 67.6132890021464,15.43008422640554 L 67.80213915951732,15.426837923251929 L 67.8021394046845,15.426837913014575 L 67.9905928341563,15.414329536931865 L 67.99059307838401,15.414329514693225 L 68.17821490486139,15.39259339792216 L 68.17821514800845,15.392593363682886 L 68.36453997905748,15.36167146784136 L 68.36454022000663,15.361671421752893 L 68.54911792207326,15.321647670046136 L 68.54911816049099,15.321647612187867 L 68.7315214878908,15.272613557260703 L 68.7315217232927,15.272613487739909 L 68.91129291302056,15.214687385036145 L 68.91129314456376,15.214687304106256 L 69.08800495111899,15.14801411191706 L 69.08800517845387,15.14801401971042 L 69.26123798549747,15.072750140494126 L 69.26123820825248,15.072750037138752 L 69.43056477040712,14.989070946676819 L 69.43056498753771,14.98907083266375 L 69.59558094744575,14.897190153706209 L 69.59558115886958,14.89719002909107 L 69.75588978842477,14.79732138446526 L 69.75588999342258,14.79732124966307 L 69.9111098234614,14.689704964943852 L 69.91111002161891,14.689704820230753 L 70.06085958286337,14.574604109220228 L 70.06085977370057,14.57460395494214 L 70.20478048510492,14.452293475463826 L 70.20478066811002,14.452293312036206 L 70.34252920731122,14.323066795448568 L 70.34252938220517,14.323066623106746 L 70.4737624270288,14.18723687405044 L 70.47376259296179,14.187236693658004 L 70.59818259732434,14.045135590441497 L 70.59818275448679,14.045135401791569 L 70.7154769135133,13.897094822778259 L 70.71547706116482,13.897094626721078 L 70.82536308780992,13.743476967448775 L 70.82536322557,13.743476764522542 L 70.92758172066587,13.584655864954648 L 70.92758184840548,13.584655655345697 L 71.0218810423066,13.421009169942621 L 71.02188115944439,13.421008954626442 L 71.10804742929663,13.252933611537623 L 71.1080475359673,13.252933390235134 L 71.18585200026648,13.080829732100126 L 71.18585209575694,13.08082950628007 L 71.25512690808914,12.905113334448718 L 71.2551269924983,12.90511310390786 L 71.31568904756809,12.726215478775094 L 71.31568912051058,12.726215244532249 L 71.36740108945021,12.544563411474087 L 71.36740115081315,12.544563173933694 L 71.41014096344368,12.360584378560812 L 71.41014101308048,12.360584138287239 L 71.44380185800237,12.174736143755345 L 71.44380189580693,12.174735901214827 L 71.46829984980896,11.987457397045416 L 71.4682998756495,11.98745715310151 L 71.4835815330405,11.7992020876383 L 71.48358154688454,11.799201842686038 L 71.4896087607291,11.610424164505332 L 71.48960876253497,11.610423918946392 L 71.48635864468818,11.421577576217352 L 71.48635863445972,11.421577331260158 L 71.47385407306558,11.233120087039731 L 71.47385405081988,11.23311984270543 L 71.45211793405589,11.045498016289125 L 71.45211789981397,11.045497773126193 L 71.42119600396968,10.859176756752806 L 71.42119595789309,10.859176515862314 L 71.38117220618521,10.674591184405882 L 71.3811721483111,10.674590945921171 L 71.33213809337832,10.492191433192756 L 71.33213802389366,10.492191197907182 L 71.27421573590777,10.312420008258641 L 71.27421565488157,10.312419776446836 L 71.20753483333078,10.135707969952641 L 71.20753474117464,10.135707742757184 L 71.13227086188648,9.962478750240496 L 71.13227075862724,9.962478527684459 L 71.04859929757117,9.793151965572825 L 71.04859918341623,9.793151748169207 L 70.95671087510038,9.62813197361611 L 70.95671075057564,9.628131762349218 L 70.85684210592223,9.46781931805741 L 70.85684197107366,9.46781911298812 L 70.74922950107339,9.312606912372338 L 70.7492293563673,9.31260671422653 L 70.63412483062714,9.162853338241211 L 70.63412467641,9.162853147477112 L 70.51181801164276,9.018932436094842 L 70.51181784811753,9.018932252980157 L 70.38259133151026,8.881187528450344 L 70.38259115931798,8.881187353705569 L 70.24676522495362,8.74995049418928 L 70.24676504440798,8.749950328112819 L 70.1046601265805,8.625530323821474 L 70.10465993791796,8.625530166653194 L 69.95661935884908,8.50823982227495 L 69.95661916292075,8.50823967472037 L 69.8030015035791,8.39834983333336 L 69.80300130065767,8.398349695571596 L 69.6441804011432,8.296127385817808 L 69.64418019141947,8.29612725800723 L 69.48052989143497,8.201828064170009 L 69.4805296760021,8.201827946975179 L 69.31245433285433,8.115669306477322 L 69.31245411179536,8.115669199926433 L 69.1403504535599,8.037860920889536 L 69.14035022769039,8.03786082537471 L 68.96463787061346,7.968586013067008 L 68.96463764000744,7.968585928633868 L 68.78573620013636,7.908023873548505 L 68.78573596604427,7.908023800650581 L 68.60408794772478,7.856308017031837 L 68.60408770994579,7.856307955607181 L 68.42010509992927,7.813571957680266 L 68.42010485979125,7.813571908074048 L 68.23426067984755,7.779911063133303 L 68.23426043738868,7.779911025338546 L 68.04698193332744,7.755409256658354 L 68.04698168908375,7.755409230788542 L 67.8587266236224,7.740135202782317 L 67.85872637896837,7.740135188957682 L 67.66994488593991,7.734104160415853 L 67.66994464038278,7.7341041586051515 L 67.4811021124469,7.737350461757895 L 67.48110186729657,7.7373504719943025 L 67.29264080844011,7.749858848077015 L 67.292640564176,7.749858870319214 L 67.10502636709958,7.771594987088384 L 67.10502612397575,7.771595021324964 L 66.91870129289397,7.802516917171924 L 66.91870105198679,7.802516963251296 L 66.73411572052603,7.84254071496011 L 66.73411548206643,7.842540772827466 L 66.55171215468717,7.891574827749105 L 66.5517119192856,7.891574897269802 L 66.37194072960254,7.949500999959125 L 66.37194049797091,7.949501080922383 L 66.1952286914519,8.016178087790225 L 66.19522846413138,8.01617817999567 L 66.02200328639599,8.091442059245159 L 66.02200306379592,8.091442162528372 L 65.85267650156281,8.175117438336773 L 65.85267628443732,8.175117552341938 L 65.68765269521407,8.266998231260827 L 65.68765248363147,8.266998355969198 L 65.52734385416471,8.366870815232222 L 65.52734364914494,8.366870950054746 L 65.37213144846265,8.474487234793443 L 65.37213125039918,8.47448737944136 L 65.2223816890576,8.589588090526538 L 65.22238149831972,8.589588244720206 L 65.0784531575498,8.711898724182326 L 65.07845297439782,8.711898887738938 L 64.94071206458378,8.841121589631893 L 64.9407118898378,8.841121761825109 L 64.80947121562588,8.976951510885222 L 64.80947104954748,8.976951691432873 L 64.68505104523078,9.119056609289316 L 64.68505088811192,9.119056797889504 L 64.5677567290466,9.267097376951789 L 64.5677565814292,9.267097572961273 L 64.45787055478633,9.420711417538145 L 64.45787041699239,9.420711620511666 L 64.35565192191225,9.579532520055118 L 64.35565179417264,9.579532729664068 L 64.26135260032794,9.743179214969247 L 64.26135248308704,9.743179430486556 L 64.1751938425681,9.911258588367765 L 64.17519373609339,9.911258809263728 L 64.09738164236305,10.083358652809391 L 64.0973815467799,10.083358878834398 L 64.02810673448899,10.259075050561048 L 64.02810665007982,10.259075281101905 L 63.96754459501442,10.437972906221733 L 63.96754452206442,10.437973140490953 L 63.91583255312043,10.619628788256717 L 63.91583249177011,10.619629025748763 L 63.87309267915091,10.803604006380588 L 63.87309262948793,10.803604246792332 L 63.83943559925969,10.989456056009136 L 63.839435561476094,10.989456298433902 L 63.814937607459406,11.176734802715341 L 63.81493758162761,11.176735046551194 L 63.79965210954891,11.364986297265412 L 63.79965209569274,11.36498654243037 L 63.79362869654049,11.55376803530352 L 63.79362869473623,11.553768280658764 L 63.796874997890704,11.74261080869562 L 63.79687500812712,11.742611053846039 L 63.80938338421021,11.9310721127082 L 63.80938340645109,11.931072356960994 L 63.8311195232208,12.118690368734327 L 63.831119557458734,12.118690611869848 L 63.86204145329666,12.305015442897206 L 63.86204149939694,12.305015683900802 L 63.90206906580304,12.489601015384515 L 63.90206912363783,12.489601253704352 L 63.95109936387711,12.671996951735998 L 63.95109943340955,12.671997187181262 L 64.00902553611203,12.851768376905127 L 64.00902561702911,12.851768608414321 L 64.07569880921291,13.028484229647558 L 64.07569890144819,13.028484457052729 L 64.15096278065573,13.201713449383883 L 64.15096288399472,13.201713672101231 L 64.23464197447663,13.371040234296313 L 64.23464208846588,13.371040451384106 L 64.32652276742549,13.536060225988196 L 64.3265228920645,13.536060437454873 L 64.42639153664003,13.696369066929357 L 64.42639167152252,13.696369272043032 L 64.53401177095593,13.851585287421075 L 64.53401191554049,13.851585485400054 L 64.64910881187598,14.00133504666699 L 64.64910896625271,14.001335237626337 L 64.77142326042475,14.145255949032377 L 64.77142342374924,14.145256131922029 L 64.90064231099714,14.283000856478752 z" />
	<path fill-rule="evenodd" fill="#000000" stroke="#555555" stroke-width="0" opacity="1" d="M 78.5165633794019,41.19841754633105 L 78.51656345736018,41.198417778904286 L 78.6038512764903,41.439063910448944 L 78.6038513658448,41.43906413911422 L 78.7028502943471,41.675140267709075 L 78.7028503947402,41.6751404915456 L 78.81330866285617,41.90607059849879 L 78.81330877415486,41.90607081722573 L 78.93496698274038,42.131301771995396 L 78.93496710451005,42.13130198478346 L 79.06752007798531,42.35029591540588 L 79.06752021030358,42.35029612235802 L 79.21067040258775,42.562515157084675 L 79.21067054470107,42.5625153570061 L 79.36405937471096,42.767459771138924 L 79.36405952650514,42.7674599639045 L 79.52732078356337,42.96463384714263 L 79.52732094461157,42.964634032205424 L 79.70005790055299,43.153560547817705 L 79.70005807059187,43.1535607248619 L 79.88185873854516,43.33377829496801 L 79.8818589169546,43.33377846334858 L 80.07228079245712,43.504859842260736 L 80.0722809790389,43.50486000178968 L 80.27087392831561,43.666389387962816 L 80.2708741222379,43.666389537944994 L 80.47714223501848,43.817985461933375 L 80.47714243640254,43.81798560245504 L 80.69061269064578,43.95927422426813 L 80.6906128984912,43.95927435461483 L 80.91075123727039,44.08991616663692 L 80.91075145122062,44.08991628660878 L 81.137039076042,44.20960611325065 L 81.1370392957854,44.20960622266127 L 81.36892689080234,44.31804270315005 L 81.36892711552015,44.318042801588355 L 81.6058501061521,44.41497035148478 L 81.6058503354439,44.41497043878547 L 81.84725177634199,44.500160176438136 L 81.84725200970276,44.50016025240258 L 82.09253680866921,44.573398554974226 L 82.09253704545122,44.5733986193886 L 82.34112536911083,44.63451382568253 L 82.34112560874563,44.63451387839597 L 82.59240710609852,44.68335721535411 L 82.5924073480303,44.68335725624616 L 82.84579455626262,44.71981428305991 L 82.8457947999173,44.71981431203302 L 83.1006544798947,44.743793476055444 L 83.10065472462368,44.74379349303589 L 83.35638415466823,44.75524138855132 L 83.3563844001409,44.75524139350498 L 83.6123732294143,44.75411987358416 L 83.61237347451346,44.754119866497014 L 83.86799609321741,44.74044800460424 L 83.86799633795344,44.74044798547897 L 84.1226347655903,44.7142448550943 L 84.12263500903651,44.71424482398679 L 84.37568652426394,44.67557527487529 L 84.37568676569728,44.6755752318967 L 84.62654101741578,44.6245422607974 L 84.62654125662903,44.62454220598561 L 84.8745878937265,44.56126025374014 L 84.87458813003077,44.56126018723366 L 85.11921680169006,44.485881841550224 L 85.11921703428699,44.48588176358105 L 85.35986316594555,44.39859012971599 L 85.35986339436454,44.39859004046104 L 85.59594715233735,44.29959874134983 L 85.59594737644291,44.29959864083863 L 85.82687366865844,44.18913655805013 L 85.82687388720701,44.18913644684224 L 86.0521086566596,44.067482052956116 L 86.05210886964511,44.067481931072706 L 86.27110280022774,43.93492132823432 L 86.2711030070707,43.93492119598213 L 86.48332204183194,43.79177100367463 L 86.48332224178871,43.791770861534836 L 86.68826284124903,43.63838203150917 L 86.68826303393438,43.63838187977855 L 86.88543691716647,43.47512443741893 L 86.88543710231465,43.475124276296505 L 87.07436361790707,43.30238350567962 L 87.07436379491104,43.302383335677504 L 87.25457755035663,43.120586482384454 L 87.25457771870387,43.120586304012086 L 87.42565909761446,42.93016824320492 L 87.42565925717645,42.93016805658637 L 87.58718864330605,42.73157510736318 L 87.58718879334039,42.73157491336991 L 87.73878471739353,42.52529917111401 L 87.73878485774911,42.52529896997301 L 87.88008110893384,42.31183634514052 L 87.88008123946587,42.31183613700265 L 88.01071923675283,42.09169016890621 L 88.01071935663698,42.09168995510714 L 88.13040918331025,41.86540614491999 L 88.13040929273704,41.865405925146035 L 88.23884577319774,41.63351833018912 L 88.2388458716729,41.63351810538126 L 88.33576960687655,41.39659130005365 L 88.33576969414034,41.39659107085206 L 88.42095943182471,41.15518962986413 L 88.42095950776257,41.155189396592384 L 88.49420162501926,40.90990841234822 L 88.49420168947329,40.909908175424036 L 88.55531308105802,40.661323666521454 L 88.55531313376389,40.66132342691158 L 88.60415647073773,40.41003430009065 L 88.60415651161074,40.410034058281404 L 88.64061735311871,40.15665447943193 L 88.64061738210599,40.156654235676406 L 88.66459654612065,39.901790741087844 L 88.66459656310391,39.9017904962883 L 88.67604064392937,39.64605725146897 L 88.6760406488802,39.64605700622214 L 88.67492675834647,39.39007580630434 L 88.67492675125868,39.39007556105713 L 88.6612548893714,39.134452942456036 L 88.6612548702402,39.13445269766242 L 88.63504792516484,38.879806640666686 L 88.63504789405225,38.87980639720651 L 88.59637453023265,38.62675488188423 L 88.59637448729146,38.62675464065288 L 88.54534914558194,38.37590420364063 L 88.5453490907217,38.375903964211446 L 88.48206332379404,38.12786114185236 L 88.48206325732282,38.127860905677615 L 88.40668491161372,37.883224604547856 L 88.40668483365545,37.88322437197462 L 88.31939701452532,37.64257824042996 L 88.31939692517082,37.642578011764684 L 88.22039799667468,37.40650188318449 L 88.2203978962678,37.40650165931919 L 88.10993962814563,37.175575367046655 L 88.10993951687767,37.17557514837994 L 87.98828130828271,36.950340378899156 L 87.98828118649651,36.950340166080466 L 87.85572821306216,36.73134623552565 L 87.85572808067514,36.731346028471606 L 87.71257025896772,36.51912699369151 L 87.71257011699541,36.51912679396866 L 87.55918891635223,36.314182379808415 L 87.55918876445644,36.31418218691096 L 87.39592750743799,36.117012118414486 L 87.39592734642008,36.11701193338828 L 87.22319039044457,35.92808541773872 L 87.22319022044367,35.92808524073219 L 87.04138955248828,35.74786385593038 L 87.0413893740414,35.7478636875127 L 86.8509674985585,35.57678230861817 L 86.85096731197673,35.576782149089226 L 86.65237436270002,35.41525276291609 L 86.65237416877773,35.41525261293391 L 86.44610605599715,35.26365668894553 L 86.44610585461308,35.26365654842387 L 86.23263560036985,35.12236792661078 L 86.23263539252443,35.12236779626408 L 86.01249705374524,34.99172598424199 L 86.012496839795,34.99172586427012 L 85.78620921497362,34.872036037628256 L 85.78620899523023,34.872035928217635 L 85.55432140021328,34.76359944772886 L 85.55432117549547,34.76359934929055 L 85.31739818480801,34.66667179937142 L 85.31739795562922,34.66667171211061 L 85.07600414417766,34.58147815978527 L 85.07600391059445,34.58147808374826 L 84.83071148229244,34.508243595885645 L 84.83071124561982,34.508243531503936 L 84.58212292184743,34.44712832518227 L 84.58212268232857,34.447128272491376 L 84.33083355564165,34.39827730615636 L 84.33083331346975,34.39827726522393 L 84.07745373469066,34.361827867806895 L 84.0774534911614,34.36182783885182 L 83.82259381112092,34.33784867482346 L 83.82259356639194,34.33784865784302 L 83.56686413634739,34.32640076232759 L 83.56686389087473,34.326400757373925 L 83.31087506160132,34.32752227729475 L 83.31087481650216,34.32752228438189 L 83.05525219776102,34.341194146276656 L 83.0552519530991,34.341194165394306 L 82.80061352549902,34.367393481081585 L 82.80061328190625,34.36739351220782 L 82.54756176671506,34.40606687600739 L 82.5475615253544,34.40606691897487 L 82.29670727359985,34.45709989008151 L 82.2967070343866,34.457099944893294 L 82.04866039726805,34.52038189714415 L 82.0486601610053,34.52038196363782 L 81.80402385997645,34.59576030931582 L 81.80402362729025,34.595760387315096 L 81.56338512507284,34.683052021160584 L 81.56338489664846,34.683052110420505 L 81.32730876801601,34.782043409551356 L 81.32730854402155,34.78204351001254 L 81.09637462238683,34.89250559281634 L 81.09637440378039,34.892505704051906 L 80.87113963435603,35.01416009792279 L 80.87113942137051,35.0141602198062 L 80.65214549078789,35.14672082264459 L 80.65214528394492,35.14672095489678 L 80.43992624918369,35.28987114720427 L 80.43992604922691,35.28987128934407 L 80.23498544974385,35.44326011938677 L 80.23498525710227,35.44326027108112 L 80.03781137389304,35.60651389872821 L 80.03781118866078,35.60651405992372 L 79.84888467308727,35.77925864521691 L 79.84888449612392,35.77925881518191 L 79.668670740659,35.96105566849445 L 79.66867057231175,35.96105584686682 L 79.49758919340117,36.15147390767399 L 79.49758903383918,36.15147409429254 L 79.33605964770958,36.35006704351573 L 79.33605949767524,36.350067237508995 L 79.18446357367102,36.55634297969833 L 79.18446343322441,36.55634318097687 L 79.04317481136034,36.769809620603496 L 79.04317468104318,36.769809828395225 L 78.91252905434742,36.98994435244721 L 78.91252893430722,36.989944566515945 L 78.79283910768763,37.216236005988804 L 78.79283899829338,37.21623622570125 L 78.68440251781789,37.44812382068979 L 78.68440241934273,37.44812404549764 L 78.58747868411258,37.685050850890036 L 78.58747859689537,37.68505107995958 L 78.50228122984686,37.9264525208821 L 78.50228115382127,37.92645275442353 L 78.42904666597762,38.171733738581224 L 78.42904660155601,38.17173397540297 L 78.36793520994908,38.420326113783034 L 78.36793515725718,38.42032635333023 L 78.31909182028134,38.671607850774116 L 78.31909177940284,38.671608092611756 L 78.28263093789691,38.92498767144698 L 78.28263090890964,38.9249879152025 L 78.25865174489498,39.17985140979106 L 78.25865172791171,39.17985165459061 L 78.24720764708626,39.43558489940994 L 78.24720764213542,39.43558514465677 L 78.24832153266885,39.691566344504466 L 78.24832153976413,39.69156658989162 L 78.2620010310426,39.94719683795407 L 78.26200105015275,39.9471970824756 L 78.28820036585472,40.20183551021846 L 78.28820039695876,40.201835753666124 L 78.32686613136983,40.45488726884888 L 78.32686617436246,40.45488751036941 L 78.37789914544476,40.70573794731074 L 78.37789920027582,40.705738186596484 L 78.44118496722159,40.95378100902655 L 78.4411850336928,40.95378124520129 L 78.5165633794019,41.19841754633105 z" />
</svg>