<?xml version="1.0" standalone="no"?>
<!DOCTYPE svg PUBLIC "-//W3C//DTD SVG 1.1//EN" 
  "http://www.w3.org/Graphics/SVG/1.1/DTD/svg11.dtd">
<svg width="100.0m" height="100.0m" viewBox="0 0 100.0 100.0"
     xmlns="http://www.w3.org/2000/svg" version="1.1">
<desc>Outline to SVG export</desc>
	<path fill-rule="evenodd" fill="#000000" stroke="#555555" stroke-width="0" opacity="1" d="M 16.601394669881845,20.041402813181264 L 16.601394864614775,20.04140294912362 L 25.441337374152784,25.578588353365383 L 25.441337581452455,25.578588469248977 L 25.44133771257323,25.578588271235112 L 25.571927961676867,25.358257399344932 L 25.571928081644458,25.358257185110443 L 25.691549243806694,25.13176738151779 L 25.691549353089478,25.131767161696622 L 25.79990381768867,24.89968692460328 L 25.799903916045494,24.899686699690168 L 25.89673609858434,24.66256534503312 L 25.896736185814635,24.662565115470198 L 25.981809575320657,24.420967217827453 L 25.98180965112612,24.420966984412924 L 26.054922068816197,24.17549145074098 L 26.054922133122634,24.17549121369448 L 26.11588856635139,23.926725506841134 L 26.1158886189198,23.92672526701411 L 26.164567924060403,23.675266386369113 L 26.16456796477363,23.675266144369576 L 26.200849515683085,23.42171681164712 L 26.20084954448747,23.421716567772197 L 26.224636066476137,23.16669476338641 L 26.224636083268297,23.16669451842763 L 26.235872263290094,22.910818222643563 L 26.23587226803488,22.910817977191062 L 26.234533310578367,22.65468991159608 L 26.234533303268353,22.654689666220186 L 26.220623023027525,22.398941162672706 L 26.22062300367359,22.398940917880836 L 26.19417191819403,22.14418995668189 L 26.19417188686495,22.144189713276788 L 26.155250567981124,21.891042830747164 L 26.15525052471279,21.891042589017054 L 26.10394480302895,21.64011204346792 L 26.1039447479844,21.640111804319027 L 26.040388137782056,21.392006039403643 L 26.040388071010327,21.39200580305732 L 25.964721715975905,21.14731609635328 L 25.96472163767978,21.14731586357827 L 25.87713245773042,20.90664493645858 L 25.877132368207608,20.90664470807247 L 25.77784161560901,20.67055713531282 L 25.777841514874925,20.67055691135146 L 25.667079978639425,20.439636341178815 L 25.667079867063823,20.43963612249914 L 25.545114575700925,20.21442996334532 L 25.545114453490118,20.214429750350465 L 25.412239138366907,19.99548731802895 L 25.412239005977888,19.995487111489872 L 25.268781730788227,19.783325297063552 L 25.268781588272496,19.783325097062985 L 25.115079953461052,19.578466513635465 L 25.11507980132627,19.578466320912213 L 24.95150955411245,19.3814068785145 L 24.95150939276204,19.381406693562713 L 24.778463446620155,19.19261178486 L 24.77846327633041,19.192611607994717 L 24.596359340197377,19.012542810901788 L 24.596359161532853,19.012542642703036 L 24.405639739906952,18.841627202943098 L 24.40563955305297,18.841627043591014 L 24.206760501827485,18.680286484809844 L 24.206760307479787,18.68028633490388 L 24.000200370615836,18.52890021904756 L 24.00020016915504,18.52890007886791 L 23.786462886265344,18.387836523915595 L 23.786462678166497,18.387836393791794 L 23.566240416262797,18.257539811621108 L 23.566240202137553,18.257539691925004 L 23.339883912801103,18.138198909732374 L 23.339883693167668,18.13819880073343 L 23.10795604376426,18.030103735274256 L 23.107955819063964,18.03010363718075 L 22.87100803302538,17.93350987301657 L 22.871007803458852,17.933509785942746 L 22.629606362593034,17.848667185419743 L 22.629606129450462,17.848667109847593 L 22.384334681868232,17.775756870913295 L 22.384334444975,17.775756806778197 L 22.135788082959067,17.71497347883158 L 22.135787843490803,17.71497342645519 L 21.884561659131744,17.666446709054267 L 21.88456141726487,17.666446668462218 L 21.631254317589697,17.630298631829508 L 21.63125407404068,17.6302986031497 L 21.376489761500515,17.606616985237753 L 21.376489516653663,17.606616968527813 L 21.120868805412428,17.595466619115292 L 21.120868560195525,17.595466614440717 L 20.865005615752423,17.596866606995256 L 20.86500537075591,17.596866614344517 L 20.60952389567276,17.610805504792218 L 20.609523651189015,17.61080552415566 L 20.355037811194812,17.63725660963533 L 20.355037567991612,17.637256640959905 L 20.10215199208077,17.676155071665683 L 20.102151750437002,17.676155114933085 L 19.851480604106296,17.727420782323186 L 19.851480365259388,17.72742083730296 L 19.603630184685773,17.790908783053652 L 19.603629948784228,17.79090884968476 L 19.359188197138398,17.866470300653106 L 19.359187964451067,17.866470378889794 L 19.118747826368672,17.953941303310376 L 19.11874759818663,17.953941392713922 L 18.88289081438007,18.05308718695969 L 18.882890590675466,18.053087287523706 L 18.65217792132429,18.16368288457776 L 18.65217770274933,18.163682996031568 L 18.427171815000914,18.285463274759366 L 18.427171602297346,18.28546339671796 L 18.20840464585237,18.41813081105737 L 18.208404439421503,18.41813094327298 L 17.996406656875912,18.561361244155396 L 17.99640645696997,18.561361386484883 L 17.791694739233545,18.714820788261864 L 17.791694546717345,18.714820940093286 L 17.59474954504921,18.878135602900603 L 17.594749360266814,18.878135763935234 L 17.4060479116089,19.050905144743474 L 17.40604773466086,19.05090531492491 L 17.226059046190514,19.232726963673535 L 17.22605887810377,19.23272714201002 L 17.055194936668222,19.42315283227193 L 17.05519477738193,19.423153018804943 L 16.893875199391342,19.621732616612107 L 16.893875049508885,19.621732810648393 L 16.742485118952285,19.827983757339133 L 16.742484978755833,19.82798395850235 L 16.601394790816897,20.041402608789635 L 16.601394669881845,20.041402813181264 z" />
	<path fill-rule="evenodd" fill="#000000" stroke="#555555" stroke-width="0" opacity="1" d="M 34.859398004188876,5.595047037375418 L 34.85939777033921,5.595046962509775 L 34.61375439013275,5.52300647371891 L 34.61375415323868,5.523006410509902 L 34.36487591285115,5.463096647392796 L 34.36487567279576,5.463096595808758 L 34.11335003514608,5.415477775516642 L 34.1133497929804,5.415477735799908 L 33.859798552899164,5.380260484405532 L 33.859798309212316,5.380260456632531 L 33.60482418840812,5.357521068031187 L 33.6048239435284,5.3575210522384085 L 33.34903729306142,5.347320561531823 L 33.34903704766663,5.347320557774717 L 33.093059662484656,5.349685667811717 L 33.09305941730851,5.349685676096189 L 32.837509277805964,5.3646049427976035 L 32.83750903323959,5.364604963109318 L 32.5829926756907,5.392047868927764 L 32.58299243252319,5.392047901199975 L 32.33013165199792,5.431941966956444 L 32.3301314106102,5.431942011137805 L 32.079536558148575,5.484195684172867 L 32.07953631920241,5.484195740150923 L 31.83179867228892,5.548686950269327 L 31.831798436306425,5.548687017928773 L 31.587534067839695,5.625259362726067 L 31.587533835711522,5.625259441797015 L 31.3473168571259,5.713718371891137 L 31.347316628981176,5.713718462323663 L 31.111724966451554,5.813861798917967 L 31.111724743071075,5.813861900412964 L 30.88133441525583,5.925441688453397 L 30.881334197120793,5.925441800787927 L 30.65669642731397,6.048191011687421 L 30.65669621486568,6.048191134643041 L 30.438352689466925,6.181819851737925 L 30.43835248347724,6.181819984859459 L 30.226825815525547,6.32599632980196 L 30.226825616211194,6.325996472942771 L 30.022630789507453,6.480377123188909 L 30.022630597305323,6.48037727606469 L 29.826263521809892,6.644599835875054 L 29.8262633376297,6.644599997744711 L 29.638181776559662,6.81825629493039 L 29.63818160043577,6.818256465740371 L 29.45884713187582,7.0009306985542645 L 29.458846964322017,7.000930877824672 L 29.288692555929767,7.192184356563688 L 29.288692397396836,7.192184543811992 L 29.128126221406674,7.391555690526881 L 29.128126072196856,7.391555885402577 L 28.977541042021453,7.598564048733757 L 28.97754090262956,7.598564250585578 L 28.837291784808773,7.8127097056210175 L 28.83729165537467,7.812709914257586 L 28.707719864959124,8.033492936172728 L 28.707719746019674,8.033493150730799 L 28.589139995197662,8.26035679432532 L 28.589139886915323,8.26035701448489 L 28.48183064833184,8.492771037340411 L 28.481830551036985,8.492771262409592 L 28.386049316617527,8.730159645543702 L 28.38604923029866,8.73015987562141 L 28.30204586238479,8.971977118045828 L 28.302045787630433,8.971977351561371 L 28.230001484117643,9.217616917170767 L 28.230001420870046,9.217617154205769 L 28.17009356509805,9.466499209293948 L 28.170093513545304,9.466499449198183 L 28.122470878552377,9.718017457498709 L 28.122470838821947,9.718017699726984 L 28.087251680085576,9.9715689397736 L 28.087251652310222,9.9715691834665 L 28.064510356366544,10.22654711891418 L 28.064510340568205,10.226547363895763 L 28.054313664555977,10.482330199650319 L 28.05431366080171,10.482330444973087 L 28.05667877083875,10.738311644853052 L 28.056678779127306,10.738311890099695 L 28.071601860523618,10.993865844317899 L 28.07160188082728,10.993866088777558 L 28.099042879305365,11.248382446386197 L 28.099042911573694,11.248382689540735 L 28.13893316262795,11.501235840624258 L 28.138933206828938,11.501236082118206 L 28.19119069454776,11.751834749226216 L 28.191190750527834,11.751834988168879 L 28.25568386801436,11.999568820470655 L 28.255683935624834,11.999569056287953 L 28.332250558390452,12.243835332129354 L 28.33225063749537,12.243835564366503 L 28.42071147491377,12.484058264931361 L 28.42071156535697,12.484058493101665 L 28.520852994603825,12.719642526242549 L 28.52085309608277,12.719642749587175 L 28.63243479145965,12.950038799421453 L 28.63243490384062,12.950039017643011 L 28.755187929446688,13.174674880126762 L 28.755188052326567,13.17467509244347 L 28.888809140048906,13.393012895825784 L 28.888809273211866,13.393013101882241 L 29.032987525468492,13.604541677132792 L 29.032987668635354,13.60454187648081 L 29.187370226275632,13.80873479590036 L 29.187370379024983,13.808734987947316 L 29.351591031492152,14.00511160018108 L 29.351591193492453,14.005111784513474 L 29.525249397965613,14.193191438172455 L 29.52524956875887,14.193191614276314 L 29.707923801581867,14.372524175498395 L 29.7079239808517,14.372524343049935 L 29.899179366968035,14.542678751469332 L 29.899179554157172,14.54267890995306 L 30.098548793494075,14.70324699326491 L 30.098548988494716,14.703247142568795 L 30.30556096650323,14.853828358038752 L 30.305561168262066,14.853828497363653 L 30.51970853071586,14.994079522578103 L 30.519708739307948,14.994079651986718 L 30.74048222447542,15.12364953504745 L 30.74048243908982,15.123649654019788 L 30.96735371205704,15.242233219527815 L 30.96735393220203,15.242233327803262 L 31.199762232966002,15.34954065901633 L 31.199762458143685,15.34954075635565 L 31.437160378079604,15.445320083455654 L 31.43716060792498,15.445320169688392 L 31.678966406299367,15.529327352306565 L 31.678966639970472,15.529327427113888 L 31.924610020190766,15.601371730602418 L 31.92461025724066,15.601371793852538 L 32.17349231230315,15.661277742271546 L 32.173492552243985,15.661277793829408 L 32.4250105605748,15.708896614134463 L 32.42501080270479,15.708896653847614 L 32.67856585747315,15.744117719934696 L 32.6785661012165,15.74411774771587 L 32.93353640725457,15.766857136310746 L 32.933536652215366,15.766857152107086 L 33.18932330267882,15.777053828119923 L 33.18932354799926,15.777053831874065 L 33.44530093326004,15.774688721836336 L 33.44530117835323,15.774688713556706 L 33.70085894725013,15.759773261548483 L 33.70085919189934,15.759773241231935 L 33.95537554940116,15.732330335418565 L 33.955375792580206,15.732330303144535 L 34.20823275836468,15.69243623739551 L 34.20823299982724,15.692436193197963 L 34.4588240375981,15.6401787054687 L 34.45882427645809,15.640178649508611 L 34.70656192346485,15.575687439365927 L 34.70656215934756,15.575687371737757 L 34.95083224985253,15.499118841634754 L 34.95083248209247,15.49911876252811 L 35.19104755326705,15.410659832457645 L 35.191047781426384,15.410659742018215 L 35.42663562927276,15.310516405419508 L 35.42663585261176,15.310516303943007 L 35.65702808776702,15.198936515905867 L 35.65702830595843,15.19893640354144 L 35.88166798309935,15.076183377955282 L 35.88166819552245,15.076183255012339 L 36.100009813610626,14.942554537895289 L 36.10001001955029,14.942554404806696 L 36.31153478014493,14.798381874564788 L 36.31153497952241,14.798381731378749 L 36.51573171361089,14.643997266410326 L 36.51573190568492,14.643997113639315 L 36.712104703265354,14.479778368485269 L 36.71210488748872,14.47977820658435 L 36.90019217050596,14.30612190948473 L 36.90019234677856,14.30612173852858 L 37.07951727855395,14.123447505766167 L 37.07951744605174,14.123447326548915 L 37.24966803980247,13.932193847751346 L 37.2496681982803,13.932193660567123 L 37.41023628162163,13.73282251384681 L 37.41023643087554,13.732822318912921 L 37.56082146104119,13.525810340901534 L 37.560821600412645,13.525810139077008 L 37.70107262560626,13.311660869308227 L 37.7010727550133,13.311660660716853 L 37.83064263808873,13.090885268177527 L 37.83064275703548,13.090885053610087 L 37.94922632254278,12.864017595337865 L 37.9492264308408,12.86401737514802 L 38.05653376205025,12.631607167045084 L 38.05653385937772,12.631606941894715 L 38.152313186475496,12.394210929311127 L 38.152313272721486,12.39421069942968 L 38.23632045534193,12.152401086355152 L 38.23632053013535,12.152400852727196 L 38.3083648336263,11.90676128719227 L 38.30836489688234,11.90676105012219 L 38.36827084530582,11.657878995041077 L 38.368270896852685,11.657878755158382 L 38.41589353184621,11.40635693216111 L 38.415893571579126,11.406356689909966 L 38.45111082296705,11.152805449875164 L 38.45111085074065,11.152805206181675 L 38.47385023933915,10.89782727071574 L 38.473850255134174,10.897827025771306 L 38.48404693114714,10.642044189998265 L 38.484046934901414,10.642043944675205 L 38.48168182486304,10.38606274465117 L 38.48168181659129,10.386062499692255 L 38.466773993975075,10.130516174958238 L 38.46677397363558,10.130515930034079 L 38.43932343844181,9.87599575790179 L 38.43932340618281,9.875995514862138 L 38.39942934042048,9.623138548993346 L 38.39942929622916,9.623138307560607 L 38.34717180850769,9.372539640439912 L 38.3471717525185,9.372539401462241 L 38.28267672768061,9.124805569142952 L 38.28267666008982,9.124805333394342 L 38.206111944674866,8.880539057565255 L 38.206111865538375,8.880538825237332 L 38.1176491207625,8.64031993933711 L 38.11764903038042,8.640319711318204 L 38.017513323169666,8.404735678167166 L 38.01751322163566,8.404735454697246 L 37.90592961891994,8.174339404879424 L 37.90592950658488,8.1743391867453 L 37.783180295686414,7.949703324287154 L 37.78318017272914,7.94970311183783 L 37.649551455625044,7.731361493770837 L 37.649551322525305,7.7313612878148055 L 37.50537497759976,7.519832712541187 L 37.50537483439756,7.519832513143905 L 37.350990369424906,7.315639593743451 L 37.350990216681154,7.315639401705457 L 37.18677147154499,7.119266604146417 L 37.18677130957562,7.119266419848906 L 37.0131150124432,6.931186766183365 L 37.0131148416321,6.931186590060114 L 36.83043679411283,6.751850214141801 L 36.83043661486064,6.751850046605888 L 36.63918313612302,6.581695638214881 L 36.63918294885197,6.581695479663618 L 36.43981180216158,6.421131211039993 L 36.43981160725962,6.421131061812829 L 36.23280344392256,6.2705498463267615 L 36.23280324211111,6.270549706964825 L 36.018653972292846,6.130298681738804 L 36.01865376378958,6.130298552383481 L 35.79788218597338,6.000724854631763 L 35.79788197125937,6.000724735602762 L 35.571014513017815,5.882144984805098 L 35.57101429291954,5.882144876552921 L 35.338600270138784,5.774833730657154 L 35.338600044852825,5.77483363327305 L 35.10120784692033,5.679061935545339 L 35.10120761727402,5.679061849386764 L 34.859398004188876,5.595047037375418 z" />
	<path fill-rule="evenodd" fill="#000000" stroke="#555555" stroke-width="0" opacity="1" d="M 65.41808331040014,5.514621706655851 L 65.41808307295163,5.5146217684108 L 65.17199718826093,5.585113491604095 L 65.17199695416346,5.585113564922398 L 64.92965709863736,5.667594870113579 L 64.9296568682879,5.667594954878853 L 64.69165813416359,5.761871292675744 L 64.69165790823254,5.761871388653992 L 64.45858012876721,5.867713877509068 L 64.45857990803383,5.867713984351743 L 64.2309647697918,5.984863225073952 L 64.23096455438592,5.984863342715288 L 64.00937663211299,6.113040862621165 L 64.00937642278811,6.113040990662105 L 63.7943497734727,6.251933984942084 L 63.79434957073737,6.251934123060872 L 63.58639154866306,6.401210713353668 L 63.58639135291705,6.401210861275403 L 63.38600549770801,6.5605124663302155 L 63.38600530938015,6.5605126237435964 L 63.19367990176479,6.729457774237858 L 63.193679721460356,6.72945794063719 L 63.009883968755126,6.907627020271288 L 63.00988379677505,6.907627195377418 L 62.835044944621046,7.094612031980579 L 62.83504478155401,7.094612215184756 L 62.66959007567113,7.289943601409665 L 62.669589921696506,7.289943792507485 L 62.513919904974514,7.493160150349427 L 62.51391976054319,7.493160348802669 L 62.368408272840036,7.703777212325181 L 62.36840813844202,7.703777417436885 L 62.23340231695253,7.921272173511128 L 62.233402192641364,7.921272385206111 L 62.10923773042755,8.145130050144914 L 62.109237616707496,8.145130267588236 L 61.99620824508715,8.374809155063392 L 61.99620814221308,8.374809377734554 L 61.89457707510816,8.609763986439845 L 61.89457698321604,8.609764214059101 L 61.80460361979195,8.849418525250272 L 61.80460353921714,8.849418757000985 L 61.72649768759527,9.0931967520142 L 61.72649761847845,9.093196987475592 L 61.66044619864356,9.340522647596577 L 61.660446141191684,9.340522886039743 L 61.60660555561123,9.590785860179285 L 61.60660550988378,9.590786101393178 L 61.56511690220119,9.84338748273978 L 61.5651168684053,9.843387725608785 L 61.536064161883594,10.097720977869189 L 61.53606414001971,10.097721222374796 L 61.519531257925834,10.353175994478764 L 61.51953124809258,10.353176239649311 L 61.51555252265966,10.609130736650613 L 61.515552524869065,10.609130982045201 L 61.52413940017908,10.864978667592663 L 61.52413941443155,10.864978912623762 L 61.545272817025676,11.120090362422458 L 61.545272843249585,11.120090606172582 L 61.5788879233305,11.373863098499243 L 61.57888796153125,11.373863340992287 L 61.62491986928531,11.62567889536873 L 61.624919919328605,11.625679135629177 L 61.68325421397426,11.87493121594223 L 61.68325427574322,11.874931453439627 L 61.75374981364117,12.121021152862511 L 61.75374988692259,12.12102138684381 L 61.83622737742813,12.36336124239332 L 61.83622746221598,12.363361472809146 L 61.930503800005646,12.601360206915205 L 61.93050389597117,12.601360432818229 L 62.03634638481354,12.834442026949196 L 62.036346491700066,12.834442247771076 L 62.1534957324124,13.062049756606706 L 62.15349585002231,13.06204997195154 L 62.28167336998137,13.283637894316405 L 62.281673497944396,13.283638103520655 L 62.42056267750482,13.4986723821831 L 62.42056281576212,13.498672585123469 L 62.5698432206756,13.706626792402586 L 62.56984336860183,13.706626988146057 L 62.729148788417106,13.907009028745579 L 62.72914894569155,13.907009216907484 L 62.898086466811684,14.099334624537754 L 62.89808663332329,14.099334804965899 L 63.07626334232864,14.283134372348265 L 63.076263517359415,14.283134544254189 L 63.26324453926934,14.457973396408535 L 63.2632447225477,14.457973559541692 L 63.45857992346598,14.623428265424378 L 63.458580114491205,14.623428419340419 L 63.66179265764883,14.779098436069527 L 63.66179285615358,14.779098580539145 L 63.87240590491739,14.924606253503711 L 63.87240611010078,14.924606387945138 L 64.0899046808623,15.059608394737094 L 64.08990489250174,15.059608519011679 L 64.3137663722254,15.183772981276107 L 64.31376658954763,15.183773094934596 L 64.54344166234384,15.29680628125576 L 64.54344188510466,15.296806384173955 L 64.77839649379628,15.398437451272965 L 64.77839672134978,15.398437543140387 L 65.01805103249859,15.488414721242181 L 65.01805126440382,15.488414801870086 L 65.26183307408881,15.566516838791353 L 65.26183330944231,15.566516907874606 L 65.50915515488389,15.632568327713281 L 65.5091553934017,15.632568385182187 L 65.75941455290598,15.686405156081582 L 65.75941479391852,15.686405201773109 L 66.01201617525011,15.727901438840448 L 66.01201641835405,15.727901472670421 L 66.26635729989866,15.756950364486753 L 66.26635754438816,15.756950386345117 L 66.52181231657497,15.773479453750749 L 66.5218125615958,15.773479463578035 L 66.77776324397293,15.777462003705638 L 66.77776348937138,15.777462001499824 L 67.03360736018988,15.768878940884603 L 67.03360760528034,15.76887892663075 L 67.28872668439605,15.747745524042438 L 67.28872692824147,15.747745497806518 L 67.54249560586523,15.71412660303323 L 67.54249584827532,15.714126564843463 L 67.7943114026929,15.66809465708189 L 67.79431164295337,15.668094607038588 L 68.0435637232764,15.609760312390595 L 68.04356396075423,15.609760250627247 L 68.2896574748738,15.539264712728409 L 68.28965770887514,15.53926463944124 L 68.53199756438867,15.456787148947946 L 68.53199779485588,15.456787064139752 L 68.76998889958236,15.362510726347068 L 68.7699891254065,15.36251063041442 L 69.00307453428944,15.256668141545537 L 69.00307475508019,15.25666803467672 L 69.23068226387176,15.139522608680672 L 69.23068247933179,15.139522491007904 L 69.45227040163425,15.011341156391333 L 69.4522706108508,15.011341028416602 L 69.6672972601589,14.872451848834952 L 69.6672974630099,14.872451710636915 L 69.8752592997582,14.723167490970992 L 69.8752594954412,14.723167343094486 L 70.07564535070534,14.563865737995863 L 70.07564553898595,14.563865580623984 L 70.26796713192144,14.39492805950488 L 70.26796731223591,14.394927893100107 L 70.45176687959457,14.216758813504946 L 70.4517670516488,14.216758638323238 L 70.62660208907637,14.029773801755184 L 70.62660225213193,14.029773618560432 L 70.79206077274573,13.834434602904263 L 70.79206092666716,13.834434411872687 L 70.94773094339376,13.631221868718333 L 70.94773108786339,13.631221670213574 L 71.09323876087515,13.420608621381442 L 71.09323889522898,13.420608416339181 L 71.22824853139136,13.203113660298307 L 71.22824865578517,13.203113448460725 L 71.35240930329059,12.979251968854973 L 71.35240941696156,12.979251751500133 L 71.46543878861719,12.749572863953267 L 71.46543889146795,12.749572641336048 L 71.56706995856511,12.514625662035932 L 71.5670700504896,12.514625434338665 L 71.65704341391321,12.274967308455137 L 71.65704349446403,12.27496707677505 L 71.73515316079889,12.031185267007748 L 71.7351532299068,12.031185031588906 L 71.8012084644095,11.78386318625809 L 71.80120852191581,11.783862947583275 L 71.85504147809894,11.533599973490722 L 71.8550415237958,11.533599732419 L 71.89653013148957,11.280998351004389 L 71.89653016528636,11.280998108127305 L 71.92558287180852,11.026661041169412 L 71.9255828936714,11.026660796672603 L 71.94211577576314,10.771206024601664 L 71.94211578559758,10.77120577935613 L 71.9460906963386,10.515251282244868 L 71.94609069413544,10.515251037144957 L 71.93751526290492,10.259407166251666 L 71.93751524864612,10.259406921013039 L 71.91638184606695,10.004287842007809 L 71.91638181982135,10.00428759808932 L 71.88275911034962,9.750518920429077 L 71.88275907218262,9.750518678163575 L 71.83673097910818,9.498703123710628 L 71.83673092905177,9.498702883378327 L 71.77839663441442,9.24945080310079 L 71.7783965726454,9.249450565603155 L 71.70790103476052,9.003360866225925 L 71.7079009614486,9.00336063215502 L 71.62541965624582,8.761024591288466 L 71.62541957149847,8.761024360987435 L 71.53114323369587,8.523021812155129 L 71.5311431377076,8.523021586198729 L 71.42530064883778,8.289943806700915 L 71.42530054204006,8.289943586054894 L 71.30815893073148,8.062332262557785 L 71.30815881299405,8.06233204697615 L 71.17997747840978,7.84074793942312 L 71.17997735044189,7.840747730220548 L 71.04108435612082,7.625717266147902 L 71.04108421800512,7.625717063413477 L 70.89180762777016,7.417755226726131 L 70.89180747972178,7.417755030817371 L 70.73249824525696,7.217372990273291 L 70.73249808801941,7.217372802157745 L 70.56356056687956,7.025047394505031 L 70.56356040036815,7.025047214077101 L 70.3853836913817,6.841247646714235 L 70.38538351631124,6.8412474747712 L 70.19840249438225,6.666412437292634 L 70.19840231118727,6.666412274233613 L 70.00306711026332,6.500953753652522 L 70.00306691915908,6.500953599672448 L 69.79985056127758,6.345283582920151 L 69.7998503629132,6.345283438550228 L 69.58924875819321,6.1997757655600845 L 69.5892485529587,6.199775631079577 L 69.37174998224988,6.064769809626729 L 69.37174977055646,6.064769685318634 L 69.14788829091853,5.940605223101762 L 69.14788807347733,5.940605109384723 L 68.91820537128955,5.827575737755025 L 68.9182051486476,5.827575634895338 L 68.68325053990321,5.725944567773503 L 68.68325031233319,5.725944475899868 L 68.44360363056738,5.635971112490105 L 68.44360339870285,5.635971031876137 L 68.1998139595962,5.557865180250225 L 68.19981372425555,5.557865111169112 L 67.95249950827076,5.491813691349013 L 67.9524992696139,5.491813633848264 L 67.70223248073515,5.43798067764522 L 67.70223223982424,5.43798063197556 L 67.4496308583964,5.39648439489241 L 67.44963061538282,5.39648436107276 L 67.19529736323219,5.3674316545635925 L 67.19529711865243,5.367431632694916 L 66.93984234651214,5.350902565292295 L 66.93984210148896,5.350902555464973 L 66.68388378971733,5.346920015337256 L 66.68388354432119,5.3469200175431055 L 66.42803967347048,5.3555030781594075 L 66.42803942844189,5.3555030924081395 L 66.17292797874792,5.376632680299982 L 66.17292773478705,5.376632706548135 L 65.91915142779905,5.410255416011988 L 65.91915118544281,5.410255454194619 L 65.66733563099844,5.456287361961091 L 65.66733539073806,5.4562874120043725 L 65.41808331040014,5.514621706655851 z" />
	<path fill-rule="evenodd" fill="#000000" stroke="#555555" stroke-width="0" opacity="1" d="M 74.7355423003489,25.842739088543638 L 74.7355425002002,25.842738960247413 L 83.22171000224174,19.77727141572877 L 83.22171018832906,19.77727126817637 L 83.22171005517049,19.777271071532102 L 83.06779487365068,19.572725394158198 L 83.06779472122872,19.572725201627414 L 82.90401466587689,19.37597665677125 L 82.90401450439902,19.37597647219069 L 82.73078926761292,19.187503905049308 L 82.73078909719455,19.18750372852845 L 82.54852303662159,19.007755365736532 L 82.54852285769087,19.007755197739204 L 82.35765084834883,18.837165914307942 L 82.35765066141964,18.837165755320267 L 82.15864572524966,18.676155167491284 L 82.15864553084647,18.676155017943145 L 81.95198068996157,18.525096965776118 L 81.95198048824061,18.52509682580001 L 81.73814402337688,18.384365149230998 L 81.73814381523522,18.384365019450968 L 81.5176621540306,18.25429159677622 L 81.51766193971726,18.254291477332053 L 81.29106913936613,18.135194835524604 L 81.29106891948786,18.1351947267564 L 81.05889903715833,18.027353338477084 L 81.05889881199836,18.027353240540254 L 80.82172405164361,17.931045578377674 L 80.82172382220632,17.93104549170525 L 80.58010875845463,17.846485178493854 L 80.5801085248507,17.846485103121758 L 80.3346253618229,17.773883854384422 L 80.33462512489224,17.773883790591857 L 80.08588421343838,17.71341708219914 L 80.0858839737605,17.713417030127395 L 79.83447277684711,17.665222191086887 L 79.83447253466333,17.665222150799202 L 79.58100140323879,17.62942888068277 L 79.58100115954232,17.62942885234951 L 79.32607281506648,17.60611344501372 L 79.32607257027453,17.606113428670426 L 79.07031262260855,17.595333104533207 L 79.07031237728559,17.595333100219246 L 78.81433117740268,17.597114562134262 L 78.81433093216202,17.597114569862303 L 78.55873883103524,17.611454003134977 L 78.5587385864419,17.61145402288934 L 78.30416882321933,17.638317095275433 L 78.30416857990338,17.638317127006257 L 78.05122387620479,17.677638988708086 L 78.05122363463289,17.677639032361533 L 77.80050671193607,17.7293319454445 L 77.8005064730172,17.7293320008475 L 77.55262768226447,17.79325863635741 L 77.5526274463341,17.7932587034164 L 77.30818187999121,17.86926647353784 L 77.30818164733223,17.86926655219827 L 77.06776439743646,17.957187610455403 L 77.06776416922179,17.957187700320336 L 76.83194743972349,18.05679507248208 L 76.83194721607654,18.05679517348718 L 76.60130321116506,18.16785425583627 L 76.60130299275284,18.16785436768976 L 76.37638865760267,18.290096224370338 L 76.37638844501048,18.290096346765047 L 76.15774546617018,18.423221524299567 L 76.15774525974521,18.42322165703833 L 75.94589243555863,18.56692116523317 L 75.94589223591345,18.56692130793006 L 75.74134836461857,18.720842287691568 L 75.74134817231997,18.720842439927395 L 75.54459390542148,18.88461486589363 L 75.54459372062024,18.88461502756192 L 75.35612496825068,19.05784407896972 L 75.35612479178938,19.057844249335076 L 75.17637642893523,19.240112217317947 L 75.17637626100176,19.240112396179132 L 75.00579079228538,19.430974868763354 L 75.00579063320758,19.430975055798566 L 74.84478004537856,19.629985714009013 L 74.84477989591004,19.62998590830912 L 74.69371802902144,19.836650749232263 L 74.69371788902113,19.836650950984648 L 74.55298621246958,20.050485508475038 L 74.55298608267815,20.05048571663403 L 74.42291266002579,20.27096737780069 L 74.4229125405502,20.27096759217382 L 74.30381780610902,20.49756420718153 L 74.3038176973351,20.49756442707994 L 74.19598393841622,20.729728587426745 L 74.19598384054488,20.729728812436917 L 74.0996704563171,20.96690738754631 L 74.09967036962715,20.966907617022443 L 74.01510624172568,21.208528402804436 L 74.01510616635429,21.208528636400167 L 73.94250491761744,21.454004170039067 L 73.94250485382358,21.454004406966206 L 73.88203433075732,21.702751040377937 L 73.88203427864843,21.702751280237567 L 73.8338470689936,21.95416056981213 L 73.83384702874179,21.954160811790974 L 73.79804994392114,22.20763385063737 L 73.79804991557897,22.207634094394543 L 73.77473450824671,22.462558624138087 L 73.77473449190269,22.462558868938896 L 73.763954167764,22.71832072398689 L 73.7639541634496,22.718320969234064 L 73.76573181067073,22.974296447037116 L 73.76573181840321,22.9742966924214 L 73.78007506636776,23.229892608210854 L 73.78007508611778,23.22989285273018 L 73.80693815850833,23.484464523341945 L 73.80693819023783,23.484464766650632 L 73.84626005193489,23.737413285012106 L 73.8462600956033,23.737413526659356 L 73.8979568233774,23.988132356690947 L 73.89795687877171,23.988132595563254 L 73.96188351428009,24.236007571616412 L 73.96188358135555,24.23600780759672 L 74.03789516618883,24.48045337399824 L 74.03789524479315,24.480453606493576 L 74.12580867366937,24.72086513436617 L 74.12580876357684,24.720865362694322 L 74.22541804308294,24.956683999533624 L 74.2254181440437,24.95668422308626 L 74.33647150433697,25.187326320618954 L 74.33647161626673,25.187326539180162 L 74.45871728764394,25.41223896698908 L 74.45871740994866,25.412239179425658 L 74.59184258749256,25.63089169501538 L 74.5918427203167,25.630891901574675 L 74.73554215740491,25.842738898892822 L 74.7355423003489,25.842739088543638 z" />
	<path fill-rule="evenodd" fill="#000000" stroke="#555555" stroke-width="0" opacity="1" d="M 21.261070267292776,47.10245895014973 L 21.261070460062893,47.10245908327709 L 26.069059163347085,50.0854605334202 L 26.069059368240406,50.08546064701322 L 26.069059501367366,50.08546045423907 L 26.156318535133636,49.94481298325774 L 26.15631864872285,49.94481277836589 L 26.156318455952732,49.944812645238535 L 21.34832975266854,46.96181119509542 L 21.34832954777522,46.961811081502404 L 21.34832941464826,46.961811274276556 L 21.26107038088199,47.102458745257884 L 21.261070267292776,47.10245895014973 z" />
	<path fill-rule="evenodd" fill="#000000" stroke="#555555" stroke-width="0" opacity="1" d="M 21.261070267292776,47.10245895014973 L 21.261070460062893,47.10245908327709 L 26.069059163347085,50.0854605334202 L 26.069059368240406,50.08546064701322 L 26.069059501367366,50.08546045423907 L 26.156318535133636,49.94481298325774 L 26.15631864872285,49.94481277836589 L 26.156318455952732,49.944812645238535 L 21.34832975266854,46.96181119509542 L 21.34832954777522,46.961811081502404 L 21.34832941464826,46.961811274276556 L 21.26107038088199,47.102458745257884 L 21.261070267292776,47.10245895014973 z" />
	<path fill-rule="evenodd" fill="#000000" stroke="#555555" stroke-width="0" opacity="1" d="M 21.381944672534694,53.56703949149363 L 21.381944810292236,53.56703968098504 L 21.485723341563936,53.69597988078341 L 21.48572349723092,53.69598005585907 L 21.485723686721965,53.69597991810278 L 25.893571662398188,50.14831558360696 L 25.893571837475072,50.14831542793996 L 25.89357169971753,50.14831523844855 L 25.78979316844583,50.01937503865018 L 25.789793012778844,50.01937486357453 L 25.7897928232878,50.019375001330815 L 21.381944847611578,53.567039335826635 L 21.381944672534694,53.56703949149363 z" />
	<path fill-rule="evenodd" fill="#000000" stroke="#555555" stroke-width="0" opacity="1" d="M 21.381944672534694,53.56703949149363 L 21.381944810292236,53.56703968098504 L 21.485723341563936,53.69597988078341 L 21.48572349723092,53.69598005585907 L 21.485723686721965,53.69597991810278 L 25.893571662398188,50.14831558360696 L 25.893571837475072,50.14831542793996 L 25.89357169971753,50.14831523844855 L 25.78979316844583,50.01937503865018 L 25.789793012778844,50.01937486357453 L 25.7897928232878,50.019375001330815 L 21.381944847611578,53.567039335826635 L 21.381944672534694,53.56703949149363 z" />
	<path fill-rule="evenodd" fill="#000000" stroke="#555555" stroke-width="0" opacity="1" d="M 74.18011476192288,50.08181380854823 L 74.18011495469727,50.081813941678874 L 78.98810556532497,53.064815391818904 L 78.98810577021797,53.06481550541172 L 78.98810590334523,53.06481531263809 L 79.07536302976187,52.92417165635342 L 79.07536314335171,52.92417145146158 L 79.07536295058156,52.92417131833404 L 74.26737996933775,49.94116986818781 L 74.26737976444943,49.94116975459708 L 74.26737963131782,49.94116994736137 L 74.18011487552299,50.08181360365617 L 74.18011476192288,50.08181380854823 z" />
	<path fill-rule="evenodd" fill="#000000" stroke="#555555" stroke-width="0" opacity="1" d="M 74.18011476192288,50.08181380854823 L 74.18011495469727,50.081813941678874 L 78.98810556532497,53.064815391818904 L 78.98810577021797,53.06481550541172 L 78.98810590334523,53.06481531263809 L 79.07536302976187,52.92417165635342 L 79.07536314335171,52.92417145146158 L 79.07536295058156,52.92417131833404 L 74.26737996933775,49.94116986818781 L 74.26737976444943,49.94116975459708 L 74.26737963131782,49.94116994736137 L 74.18011487552299,50.08181360365617 L 74.18011476192288,50.08181380854823 z" />
	<path fill-rule="evenodd" fill="#000000" stroke="#555555" stroke-width="0" opacity="1" d="M 74.4428634805182,49.87831115897411 L 74.44286361827663,49.878311348465374 L 74.54664596424415,50.00725536296196 L 74.54664611991153,50.00725553803686 L 74.54664630940233,50.00725540028045 L 78.954490470384,46.45958725108578 L 78.95449064545899,46.459587095420346 L 78.9544905077061,46.45958690592842 L 78.85071579112476,46.33064670613552 L 78.85071563545931,46.33064653105547 L 78.85071544596623,46.330646668812946 L 74.4428636555956,49.878311003306735 L 74.4428634805182,49.87831115897411 z" />
	<path fill-rule="evenodd" fill="#000000" stroke="#555555" stroke-width="0" opacity="1" d="M 74.4428634805182,49.87831115897411 L 74.44286361827663,49.878311348465374 L 74.54664596424415,50.00725536296196 L 74.54664611991153,50.00725553803686 L 74.54664630940233,50.00725540028045 L 78.954490470384,46.45958725108578 L 78.95449064545899,46.459587095420346 L 78.9544905077061,46.45958690592842 L 78.85071579112476,46.33064670613552 L 78.85071563545931,46.33064653105547 L 78.85071544596623,46.330646668812946 L 74.4428636555956,49.878311003306735 L 74.4428634805182,49.87831115897411 z" />
</svg>