<?xml version="1.0" standalone="no"?>
<!DOCTYPE svg PUBLIC "-//W3C//DTD SVG 1.1//EN" 
  "http://www.w3.org/Graphics/SVG/1.1/DTD/svg11.dtd">
<svg width="100.0m" height="100.0m" viewBox="0 0 100.0 100.0"
     xmlns="http://www.w3.org/2000/svg" version="1.1">
<desc>Outline to SVG export</desc>
	<path fill-rule="evenodd" fill="#000000" stroke="#555555" stroke-width="0" opacity="1" d="M 25.471517590311013,50.00000000255983 L 25.471517780670343,50.00000012288451 L 26.214805603027344,50.41936111450195 L 26.958091735839844,50.838722229003906 L 29.931243896484375,52.51616668701172 L 30.674530029296875,52.93552780151367 L 32.16110610961914,53.77425003051758 L 32.90439605484028,54.1936111437283 L 33.6476821705503,54.61245726446362 L 34.39096829512373,55.026954635470794 L 35.13425823675634,55.435310345360946 L 35.87754436339354,55.83629606013511 L 36.62083432758917,56.228672015448105 L 36.62083437370809,56.228672039488 L 37.364120457074634,56.611213670534156 L 37.36412050988107,56.61121369731737 L 38.107406586394674,56.98268888890719 L 38.10740664622302,56.98268891831104 L 38.850696530269666,57.341861708689294 L 38.850696597408074,57.34186174051878 L 39.59398265922449,57.68750379734801 L 39.59398273412245,57.6875038314302 L 40.337268788009396,58.018379193024835 L 40.33726887100843,58.01837922907569 L 41.08055491654528,58.33326337789344 L 41.0805550081451,58.33326341563266 L 41.823844859568275,58.63092039009339 L 41.823844960189,58.630920429133006 L 42.56713098767637,58.91011426774451 L 42.56713109775148,58.91011430762676 L 43.310417115568974,59.1696166783674 L 43.310417235525286,59.169616718552334 L 44.05370324323125,59.40819928947918 L 44.05370337352313,59.408199329350765 L 44.79698937071644,59.62462613922699 L 44.79698951168733,59.62462617804739 L 45.54027931275871,59.81766508044575 L 45.540279464674036,59.81766511737407 L 46.2835654400101,59.98608396596932 L 46.28356560303841,59.98608400006479 L 47.026851567222295,60.12865446332543 L 47.0268517414177,60.12865449355502 L 47.77013769447674,60.24414442534217 L 47.77013787972596,60.244144450588024 L 48.51342763661713,60.33131789014623 L 48.513427832508256,60.33131790921982 L 49.25671376431099,60.38894652522688 L 49.25671397030567,60.388946536927804 L 49.99999981957403,60.415794366041524 L 50.00000018042597,60.415794366041524 L 50.74328602969523,60.38894653692777 L 50.743286235688124,60.38894652522699 L 51.48657598218672,60.331317909219955 L 51.48657617808234,60.33131789014591 L 52.22986212028815,60.244144450586425 L 52.229862305509336,60.24414442534481 L 52.973148258572294,60.12865830825339 L 52.9731484327876,60.128658278020886 L 53.71643821164453,59.98608781476473 L 53.71643837470128,59.98608778066296 L 54.45972435003256,59.81766511737234 L 54.459724501929216,59.817665080448066 L 55.203010488327266,59.6246261780437 L 55.20301062926925,59.624626139231516 L 55.946296626469326,59.40820314404989 L 55.94629675677638,59.408203104174106 L 56.68958657916846,59.16962053325063 L 56.68958669913168,59.16962049306348 L 57.432872716939094,58.91011812232637 L 57.43287282702725,58.91011808243921 L 58.17616266921828,58.63092042912839 L 58.17616276981373,58.63092039009856 L 58.9194488065566,58.333267230328005 L 58.91944889814771,58.33326719259274 L 59.662734943673826,58.01838685847637 L 59.66273502670269,58.01838682241265 L 60.40602489527799,57.68750764612494 L 60.40602497016436,57.687507612047916 L 61.14931103198646,57.341865555216046 L 61.149311099124866,57.34186552338656 L 61.89260098317151,56.98269273300831 L 61.89260104299986,56.98269270360446 L 62.63588711951346,56.61121751201463 L 62.6358871723199,56.61121748523142 L 63.37917325567272,56.228675854192325 L 63.37917330181927,56.22867583013785 L 64.12245937181046,55.83629610255895 L 64.86575314011766,55.435314196652456 L 65.60903927894148,55.02695466609674 L 66.35232542001205,54.61245728623205 L 67.09561156998055,54.193611146307184 L 70.81204223632812,52.096805572509766 L 71.55533599853516,51.67744445800781 L 74.52848031198118,50.00000012288473 L 74.52848050234043,50.00000000255983 L 74.52848029301246,49.999999919514686 L 73.78519439697266,49.747337341308594 L 73.04190826416016,49.49467849731445 L 72.29862213134766,49.24201583862305 L 71.55532836914062,48.989356994628906 L 70.81204223632812,48.7366943359375 L 70.06875610351562,48.48403549194336 L 69.32546997070312,48.23137283325195 L 68.58218383789062,47.97871398925781 L 67.83889770507812,47.726051330566406 L 67.09560394464852,47.47338867247919 L 66.35231782504137,47.22103882344611 L 65.60903169847931,46.97130966899917 L 64.86574557004982,46.725280770197756 L 64.12245181227044,46.48369217895445 L 63.379165683981384,46.24728776123838 L 62.63587955580792,46.01680756830956 L 61.89259342768928,45.79299928079677 L 61.14930346060347,45.57660294287259 L 61.14930341188403,45.57660292895614 L 60.40601733027569,45.368354804874386 L 60.40601727657602,45.36835479015121 L 59.662731199950784,45.16900635551353 L 59.66273114126475,45.169006340155015 L 58.91944506969576,44.97929383137243 L 58.91944500588369,44.97929381553153 L 58.17615512481404,44.799957283710235 L 58.1761550557356,44.79995726756111 L 57.432868994678955,44.63174439317516 L 57.43286892023608,44.631744376923294 L 56.68958286455395,44.475399025715525 L 56.689582784728934,44.47539900960255 L 55.946296734533426,44.331653603216715 L 55.946296649118956,44.331653587466626 L 55.20301060451492,44.20125962100736 L 55.203010513509646,44.2012596059064 L 54.45972065980691,44.084957130350006 L 54.45972056319935,44.08495711619878 L 53.71643452986499,43.98348236781682 L 53.71643442752155,43.98348235491866 L 52.97314839986914,43.897586828741076 L 52.97314829190298,43.8975868174506 L 52.22986226987895,43.82800674969667 L 52.229862156284106,43.828006740367705 L 51.48657232513503,43.77548599663661 L 51.48657220603173,43.77548598964784 L 50.74328619503791,43.74076462082668 L 50.74328607053399,43.74076461656439 L 50.00000010878976,43.72458648918429 L 49.99999989121024,43.72458648918429 L 49.256713929465626,43.7407646165644 L 49.25671380496227,43.74076462082665 L 48.513423979273284,43.77548598964775 L 48.51342386016558,43.77548599663678 L 47.7701378437152,43.828006740367734 L 47.770137730121796,43.8280067496966 L 47.026851708095435,43.89758681745075 L 47.02685160013258,43.89758682874085 L 46.28356175777015,43.983482354919964 L 46.28356165544854,43.983482367815085 L 45.54027562213008,44.08495330149812 L 45.54027552546944,44.08495331565715 L 44.796989486475574,44.20125960590845 L 44.79698939549963,44.20125962100481 L 44.05370335086695,44.3316535874691 L 44.053703265480316,44.331653603213795 L 43.31041340060149,44.47539519490017 L 43.310413320721395,44.47539521102422 L 42.567127265052015,44.631744376926186 L 42.56712719063845,44.6317443931718 L 41.82383731486383,44.79995726756252 L 41.82383724579756,44.79995728370862 L 41.08055117942827,44.97929000083216 L 41.08055111559771,44.97929001667753 L 40.337265044046944,45.16900252545546 L 40.33726498534329,45.1690025408187 L 39.59397509400834,45.368354790156765 L 39.5939750403506,45.36835480486842 L 38.85068895874462,45.5765991142525 L 38.8506889099786,45.57659912818226 L 38.10739903081302,45.79299925476903 L 37.36411289328578,46.01680754432432 L 36.62082675585305,46.24728392479908 L 35.87753680380811,46.48368834491042 L 35.13425066653046,46.72527693868084 L 34.3909607146098,46.97130965483124 L 33.64767457554757,47.221038813319446 L 32.904388429511386,47.47338867127169 L 32.161102294921875,47.726051330566406 L 31.417814254760742,47.97871398925781 L 30.67452621459961,48.23137283325195 L 29.93124008178711,48.48403549194336 L 29.18795394897461,48.7366943359375 L 28.444665908813477,48.989356994628906 L 27.701377868652344,49.24201583862305 L 26.95808982849121,49.49467849731445 L 26.214805603027344,49.747337341308594 L 25.47151779963908,49.999999919514835 L 25.471517590311013,50.00000000255983 z" />
</svg>