<?xml version="1.0" standalone="no"?>
<!DOCTYPE svg PUBLIC "-//W3C//DTD SVG 1.1//EN" 
  "http://www.w3.org/Graphics/SVG/1.1/DTD/svg11.dtd">
<svg width="100.0m" height="100.0m" viewBox="0 0 100.0 100.0"
     xmlns="http://www.w3.org/2000/svg" version="1.1">
<desc>Outline to SVG export</desc>
	<path fill-rule="evenodd" fill="#000000" stroke="#555555" stroke-width="0" opacity="1" d="M 20.677089655049723,39.285926936144435 L 20.677089721475266,39.28592669992014 L 20.72373959372325,39.10290539231415 L 20.723739648456394,39.10290515321773 L 20.761356329306462,38.91781628242926 L 20.76135637227713,38.91781604073416 L 20.789842587084486,38.73109829635174 L 20.78984261812369,38.73109805298407 L 20.80913351712996,38.54321301269222 L 20.80913353619233,38.54321276808983 L 20.81918334307844,38.3546067509849 L 20.819183350117576,38.35460650567825 L 20.819965362040623,38.16573727484018 L 20.819965357032995,38.165737029482 L 20.8114776666459,37.977054718503844 L 20.811477649614947,37.977054473808586 L 20.79374505241759,37.78901303113969 L 20.793745023386073,37.78901278744422 L 20.766805666306613,37.60206997619587 L 20.76680562536265,37.60206973428179 L 20.730726265510732,37.41667187340603 L 20.730726212736325,37.416671633749054 L 20.685594588042648,37.23327648635888 L 20.68559452357674,37.233276249598674 L 20.631515538059848,37.052307246465226 L 20.631515462074827,37.05230701321214 L 20.56862453733021,36.87421047340369 L 20.568624449959188,36.87421024407348 L 20.497070359011403,36.69941722787631 L 20.497070260467613,36.69941700305934 L 20.417020849713456,36.528343311778585 L 20.417020740359956,36.52834309227157 L 20.328680095875857,36.361404527459705 L 20.328679975771088,36.361404313380476 L 20.232250276274396,36.19900141777066 L 20.23225014587026,36.199001209942 L 20.127969809554365,36.04152689671769 L 20.127969669152836,36.04152669559488 L 20.016086651105237,35.889350990043994 L 20.016086500863754,35.88935079587275 L 19.8968735515566,35.74285898187341 L 19.896873392111445,35.742858795476884 L 19.7706147060885,35.602386565912894 L 19.770614537575813,35.60238638744394 L 19.637613382914296,35.468280879359284 L 19.637613205933103,35.46828070945727 L 19.498193831420952,35.34086235694947 L 19.498193646316388,35.340862195933674 L 19.352689837584133,35.22043617443908 L 19.352689644774426,35.22043602267694 L 19.201454260909294,35.10729606353767 L 19.201454060794113,35.107295921357434 L 19.044847590123396,35.00171668234606 L 19.04484738344212,35.0017165502648 L 18.883251295161294,34.903945986365095 L 18.883251082220447,34.903945864564115 L 18.71704684572239,34.81421667210362 L 18.717046626885825,34.81421656081054 L 18.54664241415699,34.73275762127301 L 18.546642190314312,34.73275752093911 L 18.372448080738273,34.65975575423105 L 18.372447852128282,34.6597556649563 L 18.19487964726357,34.595390361655824 L 18.194879414543244,34.59539028370681 L 18.014368174484325,34.539817846150214 L 18.014367938388723,34.539817779759915 L 17.831344723409646,34.493164092812755 L 17.831344484230513,34.493164038058524 L 17.646255613500976,34.45554735722044 L 17.646255371771545,34.45554731424453 L 17.459541442086856,34.42706300678415 L 17.459541198753083,34.42706297575013 L 17.271656158419148,34.40777207673954 L 17.27165591386707,34.40777205767985 L 17.083049896812593,34.397720343450274 L 17.083049651354266,34.397720336408035 L 16.894176605793625,34.39694213917718 L 16.894176360637672,34.39694214418069 L 16.705494049638876,34.4054260198764 L 16.70549380478344,34.40542603691749 L 16.517456176854736,34.42316054145648 L 16.5174559332327,34.42316057048038 L 16.330509307218215,34.45009992757048 L 16.330509065368272,34.450099968501235 L 16.145115019233867,34.486175513651304 L 16.1451147794267,34.486175566458634 L 15.961715817353838,34.531311005842255 L 15.961715580711584,34.53131107027669 L 15.780746577582304,34.585388148446185 L 15.780746344206426,34.585388224472055 L 15.602653619076564,34.648281056567676 L 15.602653389901667,34.64828114387942 L 15.427856559012094,34.71983332748109 L 15.427856334036251,34.71983342609462 L 15.256786457468342,34.79988474418532 L 15.256786238082766,34.799884853479455 L 15.089843858555092,34.88822549797599 L 15.089843644396666,34.88822561812508 L 14.927440748788056,34.98465722496721 L 14.927440541031741,34.98465735532599 L 14.76996622779868,35.088935784301526 L 14.769966026624973,35.0889359247379 L 14.617794135762235,35.200817035442405 L 14.617793941655947,35.20081718563224 L 14.471298312980052,35.320030134926576 L 14.471298126483786,35.32003029445717 L 14.330829711651884,35.446288980444365 L 14.330829533207808,35.446289148937055 L 14.196724025071413,35.57929221099604 L 14.196723855245192,35.5792923878969 L 14.069301688056907,35.71871176239612 L 14.069301526941294,35.71871194761555 L 13.948879320155106,35.86421575632835 L 13.948879168460568,35.86421594905407 L 13.835739209282655,36.015449425624695 L 13.83573906711539,36.01544962571798 L 13.730156013424654,36.17205800371565 L 13.730155881298904,36.17205821046522 L 13.632385317429257,36.333656206042505 L 13.632385195611034,36.33365641901799 L 13.542659817833439,36.499858748187336 L 13.54265970658083,36.499858966946654 L 13.461200767038559,36.67026127233924 L 13.461200666680174,36.67026149623758 L 13.388198899952881,36.844459420551836 L 13.388198810731483,36.844459649020266 L 13.32382969273214,37.022025946556916 L 13.323829614745035,37.02202617938231 L 13.268257177217455,37.20253741934697 L 13.268257110806067,37.2025376555253 L 13.221607238552183,37.385558963154445 L 13.22160718381897,37.385559202251144 L 13.183990502962423,37.57064807307151 L 13.183990460001604,37.57064831470207 L 13.155502337849558,37.757362244382584 L 13.155502306799452,37.757362487825105 L 13.136211407798314,37.94525134275926 L 13.136211388734612,37.94525158739623 L 13.126163489194658,38.13385378980886 L 13.126163482157915,38.13385403507088 L 13.125381470234759,38.322727080628745 L 13.12538147524239,38.32272732598661 L 13.133869165630404,38.511409636985235 L 13.13386918265753,38.51140988163994 L 13.15159987250892,38.69944750961853 L 13.151599901542228,38.699447753340436 L 13.178539258618086,38.88639437925612 L 13.17853929956779,38.8863946212034 L 13.214618659419722,39.07178866738693 L 13.21461871218466,39.07178890700145 L 13.259750336876003,39.255187869074454 L 13.259750401361554,39.25518810590453 L 13.313831294223336,39.43615710903374 L 13.313831370189856,39.43615734222731 L 13.376720387593183,39.614250067357226 L 13.376720474971961,39.61425029670818 L 13.44827647327405,39.789047127617565 L 13.44827657179531,39.78904735238542 L 13.528324075204608,39.960121043668934 L 13.528324184577508,39.96012126321741 L 13.616664829040728,40.12705982798982 L 13.616664949167697,40.12706004210644 L 13.713096556021924,40.28946293773542 L 13.713096686380624,40.28946314549161 L 13.817375115356324,40.446937458724925 L 13.81737525579249,40.446937659898325 L 13.929256366473872,40.59910955072962 L 13.929256516713142,40.59910974489666 L 14.048473280746856,40.74560537363039 L 14.04847344013262,40.74560555995977 L 14.174728311477715,40.88607778953985 L 14.174728480015707,40.88607796803954 L 14.307731541974416,41.02018729076713 L 14.30773171903539,41.02018746074441 L 14.447151093532048,41.14760199854574 L 14.44715127858167,41.14760215951132 L 14.592655087330911,41.26802818101998 L 14.59265528016504,41.26802833280039 L 14.743892571388999,41.38116829194914 L 14.743892771456608,41.38116843409552 L 14.900497334781306,41.48674767310698 L 14.900497541508118,41.486747805217405 L 15.062095537135322,41.58451836911725 L 15.062095750032487,41.58451849089318 L 15.228298079184713,41.67424768335385 L 15.228298298061624,41.67424779466751 L 15.398704418086052,41.75570673418087 L 15.398704641994781,41.755706834541286 L 15.57289875163108,41.828704786582286 L 15.57289898004944,41.828704875782705 L 15.75046527761147,41.89307399379125 L 15.750465510437145,41.89307407177845 L 15.930976750448462,41.94864650932039 L 15.930976986531961,41.948646575707606 L 16.1139982941047,41.99530026263942 L 16.113998533412627,41.99530031742045 L 16.299091218881234,42.03291318357574 L 16.299091460395143,42.03291322651285 L 16.485805390139728,42.06140134867467 L 16.4858056335718,42.0614013797237 L 16.673690673856242,42.08069227872921 L 16.67369091840832,42.0806922977889 L 16.86229693546315,42.09074401201849 L 16.862297180920848,42.09074401906072 L 17.051166411786216,42.09152221629157 L 17.05116665693872,42.09152221128825 L 17.239852782684167,42.083038335590096 L 17.239853027444628,42.0830383185582 L 17.427890655320724,42.065307628716475 L 17.42789089914148,42.06530759966892 L 17.61483752505784,42.03836442790066 L 17.61483776690637,42.03836438696518 L 17.80023181313868,42.00228502710376 L 17.80023205275355,42.00228497433874 L 17.983631014866504,41.957153349637565 L 17.983631251617474,41.95715328517565 L 18.1645983473596,41.90307620701841 L 18.164598580705658,41.903076131002315 L 18.34269321309373,41.84018329893775 L 18.34269344247484,41.84018321154247 L 18.517488366148758,41.76862339850276 L 18.51748859066636,41.7686233000925 L 18.688560374629713,41.68858342605566 L 18.68856059436164,41.688583316594645 L 18.855502973749243,41.60023885747992 L 18.85550318785128,41.600238737359234 L 19.01790417616203,41.503807130488426 L 19.017904383873,41.50380700015816 L 19.17538060446489,41.39952857117423 L 19.175380805661533,41.399528430722675 L 19.327552696500327,41.28764732003578 L 19.327552890631246,41.287647169825895 L 19.47404661194352,41.16843422054578 L 19.474046798445883,41.168434061007595 L 19.614517120666047,41.04217156029025 L 19.61451729902883,41.04217139187534 L 19.74862280715084,40.909172144522934 L 19.74862297707816,40.90917196751666 L 19.876041329573965,40.76975259301763 L 19.876041490589756,40.769752407913074 L 19.996467512093982,40.624248599169185 L 19.99646766383813,40.62424840638353 L 20.109607622980157,40.47301492986087 L 20.109607765170907,40.47301472973275 L 20.215188911526752,40.31640635171837 L 20.21518904360669,40.31640614504057 L 20.312961514834083,40.154808149444115 L 20.312961636674583,40.154807936431816 L 20.40268701443164,39.98860560730053 L 20.40268712570296,39.98860538850204 L 20.484146065255626,39.818199268395404 L 20.48414616558013,39.81819904457238 L 20.557147932304897,39.64400493495646 L 20.557148021557563,39.644004706407394 L 20.621515232212033,39.46643840886721 L 20.621515310168757,39.466438176132584 L 20.677089655049723,39.285926936144435 z" />
	<path fill-rule="evenodd" fill="#000000" stroke="#555555" stroke-width="0" opacity="1" d="M 86.73974612988958,37.001556513769465 L 86.73974605189893,37.00155628111385 L 86.67533878694069,36.824005242247665 L 86.67533869769031,36.82400501384796 L 86.6023025987693,36.64982616308367 L 86.60230249826384,36.649825938995356 L 86.5207977823735,36.47943889228761 L 86.52079767125781,36.479438673912604 L 86.43104559061544,36.31325541817034 L 86.43104546859708,36.31325520494586 L 86.33323675790017,36.15168009768071 L 86.33323662569512,36.15167989091691 L 86.22761542505742,35.99509821572998 L 86.22761528292604,35.995098015785594 L 86.11444099146756,35.84388742730229 L 86.11444083974249,35.84388723462357 L 85.99398811536749,35.69841012869613 L 85.99398795430827,35.69840994361645 L 85.8665390842966,35.55901345729598 L 85.86653891428652,35.55901328027709 L 85.73240670343402,35.426044550577835 L 85.73240652484711,35.426044382032224 L 85.5919037777558,35.299820028250075 L 85.5919035913819,35.29981986890018 L 85.44538125972893,35.18063743703781 L 85.44538106568949,35.18063728696244 L 85.29319010136419,35.068786693795644 L 85.29318990006946,35.068786553335066 L 85.13568888409364,34.964538641966456 L 85.13568867618143,34.964538511575824 L 84.97326670706798,34.868148866323374 L 84.9732664931127,34.86814874634911 L 84.80630504020172,34.779838619432425 L 84.80630482039093,34.77983850999085 L 84.63520824099878,34.6998329682181 L 84.63520801635238,34.69983286981347 L 84.46040355593061,34.628318833074495 L 84.46040332669318,34.62831874579325 L 84.28228771342194,34.56546024593281 L 84.2822874800248,34.565460169954825 L 84.10131847695465,34.51142505341838 L 84.10131824021444,34.511424989013605 L 83.91790783411332,34.46633151125734 L 83.91790759427812,34.466331458502125 L 83.73249828929801,34.430297874952586 L 83.73249804759074,34.4302978341002 L 83.54554760685993,34.403396623929744 L 83.54554736313146,34.403396594945804 L 83.35750592050789,34.38570405202196 L 83.35750567575498,34.38570403504025 L 83.16882336480663,34.37725830626988 L 83.16882311944671,34.377258301316715 L 82.9799500739414,34.37808227485503 L 82.97994982857672,34.37808228195185 L 82.79135144081503,34.388175957801714 L 82.7913511963722,34.388175976905394 L 82.60346997076901,34.40750502283513 L 82.60346972726072,34.407505053946174 L 82.4167557975746,34.436035137714455 L 82.41675555602,34.436035180714796 L 82.23167431459794,34.473690008491644 L 82.23167407541932,34.473690063297894 L 82.0486603972439,34.52038189714955 L 82.0486601610289,34.52038196363005 L 81.86816417981748,34.575996362777936 L 81.86816394709817,34.5759964407882 L 81.69061290826326,34.6404037057351 L 81.69061267986379,34.64040379498539 L 81.51643382905901,34.71343989392337 L 81.51643360504931,34.71343999439123 L 81.34603892907221,34.79494471022643 L 81.34603871037828,34.794944821509546 L 81.17986308402416,34.884704531534624 L 81.1798628711147,34.884704653378016 L 81.01828776367434,34.98250954948868 L 81.01828755695287,34.982509681660055 L 80.86170206713378,35.08812706756488 L 80.86170186702424,35.08812720981126 L 80.71049509332416,35.2013015012017 L 80.71049490063342,35.20130165294056 L 80.56501779468074,35.32175819202877 L 80.56501760966083,35.32175835303848 L 80.42562112331125,35.44920722307678 L 80.42562094629291,35.44920739308632 L 80.29264840187544,35.58334341865724 L 80.29264823336925,35.583343597200226 L 80.16642769426069,35.72383871492775 L 80.16642753492,35.723838901285674 L 80.04724128842723,35.87036123286252 L 80.04724113821841,35.870361427077036 L 79.93539435975045,36.022556206085774 L 79.93539421940356,36.022556407221224 L 79.83114630802702,36.18005360851673 L 79.83114617755325,36.180053816563685 L 79.73475653229852,36.342483415065594 L 79.73475641239872,36.34248362889086 L 79.64644628541876,36.509441267229164 L 79.6464461760301,36.50944148692134 L 79.56643681961388,36.68053043682442 L 79.5664367210699,36.68053066178852 L 79.49492649904771,36.855342751535105 L 79.49492641184202,36.855342980583494 L 79.43206791197578,37.033454779178825 L 79.43206783595052,37.033455012728524 L 79.37803653409637,37.21442783052454 L 79.37803646975088,37.21442806704935 L 79.33293917728476,37.39783847322185 L 79.33293912450972,37.39783871313378 L 79.29690554097058,37.583244203368054 L 79.29690550011439,37.58324444509502 L 79.27000428994542,37.77019488581547 L 79.27000426096141,37.77019512954454 L 79.25231171803776,37.958236572165944 L 79.25231170105589,37.95823681692288 L 79.24386597228532,38.14692294256822 L 79.24386596733234,38.14692318792448 L 79.24468994087111,38.335792418840725 L 79.24468994795659,38.335792663993224 L 79.25477599441963,38.524398681098184 L 79.254776013545,38.52439892585393 L 79.27410887414949,38.7122801512865 L 79.27410890526997,38.71228039482397 L 79.30264280372936,38.898986695117564 L 79.30264284672961,38.89898693663959 L 79.34030148923156,39.08406817822281 L 79.34030154396969,39.08406841711478 L 79.3869857484364,39.26708209528894 L 79.38698581499379,39.26708233178612 L 79.44260402881056,39.44757831292155 L 79.44260410678075,39.447578545516464 L 79.50701137175228,39.62513339911161 L 79.50701146099917,39.62513362750733 L 79.58004755993386,39.799316292996565 L 79.58004766041346,39.799316517035244 L 79.66154474682831,39.96969593416842 L 79.66154485815375,39.969696152941516 L 79.75131219760074,40.13587940874931 L 79.75131231933376,40.135879621468725 L 79.84911340073768,40.29745854357754 L 79.84911353305932,40.297458750533956 L 79.95473473365094,40.454040425652565 L 79.95473487574601,40.45404062554844 L 80.06790916720682,40.605255028727164 L 80.06790931896833,40.60525522145455 L 80.18836204330218,40.750732327332294 L 80.18836220440737,40.75073251246228 L 80.31581107436871,40.89012518403538 L 80.31581124443355,40.89012536110382 L 80.44995108477453,41.02309409090605 L 80.44995126310431,41.02309425921129 L 80.59044638083199,41.1493224277046 L 80.59044656742236,41.14932258724382 L 80.73696889899162,41.268501204345796 L 80.73696909297038,41.268501354371814 L 80.88916005732722,41.38035194756178 L 80.88916025862194,41.380352088022356 L 81.04666127455498,41.48459999936264 L 81.04666148255542,41.48460012980562 L 81.20909108110139,41.5809897750865 L 81.20909129488504,41.58098989496429 L 81.37604511848677,41.66930002192083 L 81.3760453383036,41.66930013137035 L 81.54713428822575,41.74930567310317 L 81.54713451302,41.749305771572814 L 81.72194660282688,41.82081980831199 L 81.72194683192987,41.820819895541796 L 81.90005481578886,41.88367839539248 L 81.90005504936086,41.883678471426144 L 82.08103931118579,41.93771358795827 L 82.08103954781537,41.93771365233002 L 82.26444995408758,41.98280713012835 L 82.26445019369044,41.9828071828384 L 82.44985186917998,42.01884839575197 L 82.44985211131774,42.01884843667803 L 82.63680255192956,42.04574201744675 L 82.63680279546054,42.04574204640227 L 82.82484423817894,42.06343458933504 L 82.8248444829411,42.063434606317166 L 83.01353442323266,42.07188033508567 L 83.01353466868575,42.071880340038 L 83.202400084907,42.071052551806936 L 83.2024003299584,42.071052544721894 L 83.39100634711409,42.06096649825614 L 83.39100659186929,42.06096647913081 L 83.57888781735197,42.04163361852117 L 83.57888806079055,42.04163358741579 L 83.76559436113209,42.01310350364138 L 83.76559460265636,42.01310346064568 L 83.95067584409347,41.97544863286578 L 83.95067608327209,41.97544857805953 L 84.13368976140048,41.92875674421987 L 84.1336899977083,41.92875667771078 L 84.31418597899895,41.873138463846175 L 84.31418621147223,41.87313838592012 L 84.49174487970058,41.80873493566233 L 84.49174510833967,41.80873484632027 L 84.66592395907432,41.73569493271939 L 84.66592418299125,41.73569483229084 L 84.83630360022441,41.65419774582816 L 84.83630381891865,41.654197634545305 L 85.00248707466415,41.564434109824276 L 85.00248728757977,41.56443398797756 L 85.16406239501707,41.46662909186874 L 85.16406260173854,41.46662895969737 L 85.32064809160813,41.361011573758475 L 85.32064829162017,41.36101143158505 L 85.47186269477407,41.24783714014281 L 85.47186288744145,41.24783698843098 L 85.61733999323286,41.12738807886092 L 85.61734017858318,41.12738791755945 L 85.75672903551663,40.99993141816535 L 85.75672921227405,40.999931248399115 L 85.88970175681892,40.86579903739198 L 85.88970192531964,40.865798858860316 L 86.01593009372243,40.72529992654108 L 86.0159302532574,40.72529973995073 L 86.13510887040832,40.57877359362899 L 86.13510902034605,40.57877339976508 L 86.24696342819911,40.42658243544799 L 86.24696356880087,40.426582233947194 L 86.3512038508073,40.26908121793747 L 86.35120398101613,40.26908101031541 L 86.44760125565331,40.10665904120176 L 86.44760137579974,40.10665882693924 L 86.53590387333048,39.939697374030736 L 86.53590398261338,39.939697154538585 L 86.61591333907752,39.768608204533 L 86.6159134376215,39.768607979568905 L 86.68742365965012,39.59379588980661 L 86.6874237468445,39.593795660790256 L 86.75028224673663,39.41568767681384 L 86.75028232272602,39.415687443390105 L 86.80432125393061,39.23471081101622 L 86.80432131837581,39.23471057411966 L 86.84941098146192,39.05129635323616 L 86.8494110341465,39.051296113732924 L 86.88545224707396,38.86589062347959 L 86.88545228799434,38.86589038137473 L 86.91234586876305,38.6789437554553 L 86.91234589772151,38.678943511900606 L 86.93003844066398,38.490898254386785 L 86.93003845763575,38.490898009845175 L 86.93849181578643,38.30221569899274 L 86.93849182074774,38.30221545322915 L 86.93766021782524,38.113342407819474 L 86.93766021072987,38.113342162667124 L 86.92756653487169,37.924736145365245 L 86.92756651577666,37.92473590100139 L 86.90824128454697,37.73685849016584 L 86.9082412534071,37.73685824643959 L 86.87970735494561,37.55015194613226 L 86.87970731198875,37.55015170482346 L 86.8420562988929,37.36506664865352 L 86.84205624405674,37.36506640933395 L 86.7953644102293,37.18205654594581 L 86.79536434373524,37.18205630969095 L 86.73974612988958,37.001556513769465 z" />
	<path fill-rule="evenodd" fill="#000000" stroke="#555555" stroke-width="0" opacity="1" d="M 25.471517590311013,50.00000000255983 L 25.471517780670343,50.00000012288451 L 26.214805603027344,50.41936111450195 L 26.958091735839844,50.838722229003906 L 29.931243896484375,52.51616668701172 L 30.674530029296875,52.93552780151367 L 32.16110610961914,53.77425003051758 L 32.90439605484028,54.1936111437283 L 33.6476821705503,54.61245726446362 L 34.39096829512373,55.026954635470794 L 35.13425823675634,55.435310345360946 L 35.87754436339354,55.83629606013511 L 36.62083432758917,56.228672015448105 L 36.62083437370809,56.228672039488 L 37.364120457074634,56.611213670534156 L 37.36412050988107,56.61121369731737 L 38.107406586394674,56.98268888890719 L 38.10740664622302,56.98268891831104 L 38.850696530269666,57.341861708689294 L 38.850696597408074,57.34186174051878 L 39.59398265922449,57.68750379734801 L 39.59398273412245,57.6875038314302 L 40.337268788009396,58.018379193024835 L 40.33726887100843,58.01837922907569 L 41.08055491654528,58.33326337789344 L 41.0805550081451,58.33326341563266 L 41.823844859568275,58.63092039009339 L 41.823844960189,58.630920429133006 L 42.56713098767637,58.91011426774451 L 42.56713109775148,58.91011430762676 L 43.310417115568974,59.1696166783674 L 43.310417235525286,59.169616718552334 L 44.05370324323125,59.40819928947918 L 44.05370337352313,59.408199329350765 L 44.79698937071644,59.62462613922699 L 44.79698951168733,59.62462617804739 L 45.54027931275871,59.81766508044575 L 45.540279464674036,59.81766511737407 L 46.2835654400101,59.98608396596932 L 46.28356560303841,59.98608400006479 L 47.026851567222295,60.12865446332543 L 47.0268517414177,60.12865449355502 L 47.77013769447674,60.24414442534217 L 47.77013787972596,60.244144450588024 L 48.51342763661713,60.33131789014623 L 48.513427832508256,60.33131790921982 L 49.25671376431099,60.38894652522688 L 49.25671397030567,60.388946536927804 L 49.99999981957403,60.415794366041524 L 50.00000018042597,60.415794366041524 L 50.74328602969523,60.38894653692777 L 50.743286235688124,60.38894652522699 L 51.48657598218672,60.331317909219955 L 51.48657617808234,60.33131789014591 L 52.22986212028815,60.244144450586425 L 52.229862305509336,60.24414442534481 L 52.973148258572294,60.12865830825339 L 52.9731484327876,60.128658278020886 L 53.71643821164453,59.98608781476473 L 53.71643837470128,59.98608778066296 L 54.45972435003256,59.81766511737234 L 54.459724501929216,59.817665080448066 L 55.203010488327266,59.6246261780437 L 55.20301062926925,59.624626139231516 L 55.946296626469326,59.40820314404989 L 55.94629675677638,59.408203104174106 L 56.68958657916846,59.16962053325063 L 56.68958669913168,59.16962049306348 L 57.432872716939094,58.91011812232637 L 57.43287282702725,58.91011808243921 L 58.17616266921828,58.63092042912839 L 58.17616276981373,58.63092039009856 L 58.9194488065566,58.333267230328005 L 58.91944889814771,58.33326719259274 L 59.662734943673826,58.01838685847637 L 59.66273502670269,58.01838682241265 L 60.40602489527799,57.68750764612494 L 60.40602497016436,57.687507612047916 L 61.14931103198646,57.341865555216046 L 61.149311099124866,57.34186552338656 L 61.89260098317151,56.98269273300831 L 61.89260104299986,56.98269270360446 L 62.63588711951346,56.61121751201463 L 62.6358871723199,56.61121748523142 L 63.37917325567272,56.228675854192325 L 63.37917330181927,56.22867583013785 L 64.12245937181046,55.83629610255895 L 64.86575314011766,55.435314196652456 L 65.60903927894148,55.02695466609674 L 66.35232542001205,54.61245728623205 L 67.09561156998055,54.193611146307184 L 70.81204223632812,52.096805572509766 L 71.55533599853516,51.67744445800781 L 74.52848031198118,50.00000012288473 L 74.52848050234043,50.00000000255983 L 74.52848029301246,49.999999919514686 L 73.78519439697266,49.747337341308594 L 73.04190826416016,49.49467849731445 L 72.29862213134766,49.24201583862305 L 71.55532836914062,48.989356994628906 L 70.81204223632812,48.7366943359375 L 70.06875610351562,48.48403549194336 L 69.32546997070312,48.23137283325195 L 68.58218383789062,47.97871398925781 L 67.83889770507812,47.726051330566406 L 67.09560394464852,47.47338867247919 L 66.35231782504137,47.22103882344611 L 65.60903169847931,46.97130966899917 L 64.86574557004982,46.725280770197756 L 64.12245181227044,46.48369217895445 L 63.379165683981384,46.24728776123838 L 62.63587955580792,46.01680756830956 L 61.89259342768928,45.79299928079677 L 61.14930346060347,45.57660294287259 L 61.14930341188403,45.57660292895614 L 60.40601733027569,45.368354804874386 L 60.40601727657602,45.36835479015121 L 59.662731199950784,45.16900635551353 L 59.66273114126475,45.169006340155015 L 58.91944506969576,44.97929383137243 L 58.91944500588369,44.97929381553153 L 58.17615512481404,44.799957283710235 L 58.1761550557356,44.79995726756111 L 57.432868994678955,44.63174439317516 L 57.43286892023608,44.631744376923294 L 56.68958286455395,44.475399025715525 L 56.689582784728934,44.47539900960255 L 55.946296734533426,44.331653603216715 L 55.946296649118956,44.331653587466626 L 55.20301060451492,44.20125962100736 L 55.203010513509646,44.2012596059064 L 54.45972065980691,44.084957130350006 L 54.45972056319935,44.08495711619878 L 53.71643452986499,43.98348236781682 L 53.71643442752155,43.98348235491866 L 52.97314839986914,43.897586828741076 L 52.97314829190298,43.8975868174506 L 52.22986226987895,43.82800674969667 L 52.229862156284106,43.828006740367705 L 51.48657232513503,43.77548599663661 L 51.48657220603173,43.77548598964784 L 50.74328619503791,43.74076462082668 L 50.74328607053399,43.74076461656439 L 50.00000010878976,43.72458648918429 L 49.99999989121024,43.72458648918429 L 49.256713929465626,43.7407646165644 L 49.25671380496227,43.74076462082665 L 48.513423979273284,43.77548598964775 L 48.51342386016558,43.77548599663678 L 47.7701378437152,43.828006740367734 L 47.770137730121796,43.8280067496966 L 47.026851708095435,43.89758681745075 L 47.02685160013258,43.89758682874085 L 46.28356175777015,43.983482354919964 L 46.28356165544854,43.983482367815085 L 45.54027562213008,44.08495330149812 L 45.54027552546944,44.08495331565715 L 44.796989486475574,44.20125960590845 L 44.79698939549963,44.20125962100481 L 44.05370335086695,44.3316535874691 L 44.053703265480316,44.331653603213795 L 43.31041340060149,44.47539519490017 L 43.310413320721395,44.47539521102422 L 42.567127265052015,44.631744376926186 L 42.56712719063845,44.6317443931718 L 41.82383731486383,44.79995726756252 L 41.82383724579756,44.79995728370862 L 41.08055117942827,44.97929000083216 L 41.08055111559771,44.97929001667753 L 40.337265044046944,45.16900252545546 L 40.33726498534329,45.1690025408187 L 39.59397509400834,45.368354790156765 L 39.5939750403506,45.36835480486842 L 38.85068895874462,45.5765991142525 L 38.8506889099786,45.57659912818226 L 38.10739903081302,45.79299925476903 L 37.36411289328578,46.01680754432432 L 36.62082675585305,46.24728392479908 L 35.87753680380811,46.48368834491042 L 35.13425066653046,46.72527693868084 L 34.3909607146098,46.97130965483124 L 33.64767457554757,47.221038813319446 L 32.904388429511386,47.47338867127169 L 32.161102294921875,47.726051330566406 L 31.417814254760742,47.97871398925781 L 30.67452621459961,48.23137283325195 L 29.93124008178711,48.48403549194336 L 29.18795394897461,48.7366943359375 L 28.444665908813477,48.989356994628906 L 27.701377868652344,49.24201583862305 L 26.95808982849121,49.49467849731445 L 26.214805603027344,49.747337341308594 L 25.47151779963908,49.999999919514835 L 25.471517590311013,50.00000000255983 z" />
</svg>