<?xml version="1.0" encoding="UTF-8" standalone="no"?>
<!DOCTYPE svg PUBLIC "-//W3C//DTD SVG 1.1//EN" "http://www.w3.org/Graphics/SVG/1.1/DTD/svg11.dtd">
<!-- Created with Vectornator (http://vectornator.io/) -->
<svg height="100%" stroke-miterlimit="10" style="fill-rule:nonzero;clip-rule:evenodd;stroke-linecap:round;stroke-linejoin:round;" version="1.1" viewBox="0 0 100 100" width="100%" xml:space="preserve" xmlns="http://www.w3.org/2000/svg" xmlns:vectornator="http://vectornator.io" xmlns:xlink="http://www.w3.org/1999/xlink">
<defs/>
<g id="Layer-1" vectornator:layerName="Layer 1">
<path d="M49.7482 3.59862C30.4988 3.59862 14.7493 21.0981 14.7493 40.3475C14.7493 75.3464 27.6989 89.6959 49.7482 94.5958C68.6476 91.0959 84.7471 77.4463 84.7471 40.3475C84.7471 21.0981 68.9976 3.59862 49.7482 3.59862ZM46.5983 48.0472C46.5983 53.2971 45.1983 59.2469 45.1983 59.2469C45.1983 59.2469 42.0484 56.447 40.9985 55.047C39.5985 53.2971 36.4486 54.697 34.6987 57.1469C32.9487 59.5969 32.5987 60.2968 31.1988 63.7967C30.4988 65.8967 31.5488 70.4465 32.5987 73.9464C33.2987 76.7463 43.7984 84.7961 43.7984 84.7961C43.7984 84.7961 30.8488 83.7461 24.549 70.0965C19.9991 60.6468 19.6492 54.347 19.6492 43.8474C19.6492 33.3477 22.0991 15.1483 41.6985 7.79849C37.4986 10.5984 32.5987 15.8482 31.5488 24.248C29.7988 38.9475 37.4986 41.3974 39.5985 41.3974C41.6985 41.3974 44.1484 37.5476 43.7984 31.2478C43.7984 31.2478 46.5983 33.6977 46.9483 43.8474C46.9483 45.9473 43.7984 45.9473 43.7984 45.9473C43.7984 45.9473 46.5983 46.2973 46.5983 48.0472ZM56.048 85.1461C56.048 85.1461 66.5477 77.0963 67.2477 74.2964C68.2976 70.7965 69.3476 66.2466 68.6476 64.1467C67.2477 60.6468 66.8977 59.9468 65.1477 57.4969C63.3978 55.047 60.5979 53.647 58.8479 55.397C57.448 56.7969 54.648 59.5969 54.648 59.5969C54.648 59.5969 53.2481 53.2971 53.2481 48.3972C53.2481 46.6473 56.398 46.2973 56.398 46.2973C56.398 46.2973 53.2481 46.6473 53.2481 44.1973C53.5981 34.0477 56.398 31.5977 56.398 31.5977C56.048 37.8975 58.4979 41.7474 60.5979 41.7474C62.6978 41.7474 70.3976 38.9475 68.6476 24.598C67.5976 16.1982 62.3478 10.9484 58.4979 7.79849C78.0973 15.1483 80.5472 33.3477 80.5472 43.8474C80.5472 54.347 80.1972 60.6468 75.6474 70.0965C68.6476 83.7461 56.048 85.1461 56.048 85.1461Z" fill="#000000" fill-rule="nonzero" opacity="1" stroke="none"/>
</g>
</svg>
