<?xml version="1.0" encoding="UTF-8" standalone="no"?>
<!DOCTYPE svg PUBLIC "-//W3C//DTD SVG 1.1//EN" "http://www.w3.org/Graphics/SVG/1.1/DTD/svg11.dtd">
<!-- Created with Vectornator (http://vectornator.io/) -->
<svg height="100%" stroke-miterlimit="10" style="fill-rule:nonzero;clip-rule:evenodd;stroke-linecap:round;stroke-linejoin:round;" version="1.1" viewBox="0 0 100 100" width="100%" xml:space="preserve" xmlns="http://www.w3.org/2000/svg" xmlns:vectornator="http://vectornator.io" xmlns:xlink="http://www.w3.org/1999/xlink">
<defs/>
<g id="Layer-1" vectornator:layerName="Layer 1">
<path d="M82.4228 46.8553L91.5503 46.8553M9.40306 46.8553L18.5305 46.8553M68.7316 78.8014C76.4899 78.8014 82.4228 72.8686 82.4228 65.1102L82.4228 37.7278C82.4228 19.9292 67.3625 5.3253 49.5639 5.78168C32.2217 6.23805 18.5305 21.7547 18.5305 39.0969L18.5305 65.1102C18.5305 72.8686 24.4634 78.8014 32.2217 78.8014" fill="none" opacity="1" stroke="#000000" stroke-linecap="butt" stroke-linejoin="miter" stroke-width="2"/>
<path d="M64.1679 37.7278C59.1269 37.7278 55.0404 41.8143 55.0404 46.8553C55.0404 51.8962 59.1269 55.9827 64.1679 55.9827C69.2088 55.9827 73.2953 51.8962 73.2953 46.8553C73.2953 41.8143 69.2088 37.7278 64.1679 37.7278ZM50.4767 65.1102C42.7183 65.1102 36.7855 71.0431 36.7855 78.8014C36.7855 86.5598 42.7183 92.4926 50.4767 92.4926C58.235 92.4926 64.1679 86.5598 64.1679 78.8014C64.1679 71.0431 58.235 65.1102 50.4767 65.1102ZM36.7855 37.7278C31.7445 37.7278 27.658 41.8143 27.658 46.8553C27.658 51.8962 31.7445 55.9827 36.7855 55.9827C41.8264 55.9827 45.9129 51.8962 45.9129 46.8553C45.9129 41.8143 41.8264 37.7278 36.7855 37.7278Z" fill="#000000" fill-rule="nonzero" opacity="1" stroke="none"/>
</g>
</svg>
